<?xml version="1.0" encoding="UTF-8"?>
<!DOCTYPE svg  PUBLIC '-//W3C//DTD SVG 1.1//EN'  'http://www.w3.org/Graphics/SVG/1.1/DTD/svg11.dtd'>
<svg version="1.1" xmlns="http://www.w3.org/2000/svg">
<defs>
<font id="SVN-DessertMenuScript" horiz-adv-x="600">
<font-face font-family="SVN-Dessert Menu Script" font-weight="400" ascent="800" bbox="-300.442 -432.059 1019 997.12" cap-height="744" descent="-200" panose-1="0 0 5 0 0 0 0 0 0 0" underline-position="-100" underline-thickness="50" unicode-range="U+0020-00FE" units-per-em="1000" x-height="434"/>
<missing-glyph/>
<glyph glyph-name="space" horiz-adv-x="400" unicode=" "/>
<glyph glyph-name="space" horiz-adv-x="400" unicode=" "/>
<glyph d="M103 191q-11 0 -28.5 6t-19.5 24q-7 69 -10 137.5t0 148.5q3 79 9.5 139.5t11.5 83.5t20 31.5t39 8.5q32 0 48 -14.5t15 -35.5q-2 -60 -6.5 -119t-9.5 -121q-2 -31 -5 -73t-6 -82t-5.5 -71.5t-3.5 -41.5q-2 -8 -8 -12t-13.5 -6t-15 -2.5t-12.5 -0.5zM90 -5q-59 7 -49 68 q12 62 74 53q31 -4 42.5 -20t6.5 -48q-12 -60 -74 -53z" glyph-name="exclam" horiz-adv-x="268" unicode="!"/>
<glyph d="M193 477q-20 -3 -22 14.5t2 45.5q2 17 4 30t4 25.5t4.5 26t5.5 31.5q3 17 14.5 22t20.5 6q17 -2 26 -11t8 -32q0 -12 -0.5 -27t-1.5 -31t-2.5 -30t-4.5 -24q-5 -20 -21.5 -31.5t-36.5 -14.5zM63 477q-20 -3 -22 14.5t2 45.5q2 17 4 30t4.5 25.5t5 26t5.5 31.5q3 17 14 22 t20 6q17 -2 26.5 -11t8.5 -32q0 -12 -1 -27t-2 -31t-2.5 -30t-4.5 -24q-5 -20 -21.5 -31.5t-36.5 -14.5z" glyph-name="quotedbl" horiz-adv-x="320" unicode='"'/>
<glyph d="M475 428q-8 -1 -14.5 -2t-12.5 -2q-5 -22 -9.5 -46t-9.5 -49q11 -1 21.5 -1.5t18.5 -2.5q12 -2 19 -8.5t5.5 -14t-12.5 -14.5t-33 -10q-8 -2 -15 -2.5t-15 -1.5q-7 -39 -13 -71.5t-9 -51.5q-3 -15 -6 -32t-7 -32t-9.5 -27t-12.5 -17q-14 -10 -29.5 -10.5t-32.5 0.5 q-13 0 -15 23t2.5 58t13 76.5t16.5 79.5h-17h-60q-8 -37 -13 -67.5t-8 -48.5q-3 -15 -6 -32t-7 -32t-10 -27t-13 -18q-14 -9 -29.5 -10t-32.5 0q-13 1 -14.5 24.5t3 59t13 77.5t15.5 80l-38 6q-14 2 -22 9.5t-8.5 15.5t7.5 15t27 8h45q5 22 10.5 46t11.5 50q-11 1 -21.5 2.5 t-22.5 3.5q-14 2 -22 9.5t-8.5 15.5t7.5 15t26 8h55q8 33 16.5 64.5t15.5 59t12.5 50t8.5 36.5q7 29 21.5 37t29.5 3q17 -5 22.5 -10.5t7.5 -19.5q2 -12 -0.5 -33t-7 -46.5t-11 -54.5t-13.5 -58l-6 -27h59h24q17 65 31.5 122t21.5 85q6 29 20.5 37t29.5 3q17 -5 23 -11 t8 -20q1 -12 -1 -33t-7 -46.5t-11.5 -54.5t-12.5 -57l-6 -27q11 -1 20 -1.5t17 -2.5q12 -2 18.5 -8.5t5 -14t-12 -14.5t-32.5 -10zM348 420h-22h-58q-5 -21 -9 -43.5t-9 -45.5h63h15z" glyph-name="numbersign" horiz-adv-x="609" unicode="#"/>
<glyph d="M387 340q24 -30 45 -64t32.5 -71t8.5 -75.5t-28 -77.5q-20 -32 -48.5 -52t-60.5 -31q1 -20 0 -41t-3 -55q-1 -14 -11 -22.5t-22 -10t-22.5 5.5t-13.5 25q-3 35 -5 54t-3 33q-52 1 -98 19.5t-72 50.5q-11 14 -19.5 30t-14.5 35t1.5 29t19 12.5t24 -3.5t17.5 -20 q3 -9 10.5 -22.5t15.5 -24.5q12 -18 29.5 -28.5t36 -13t37.5 2.5t34 19q24 22 26.5 51.5t-9.5 63.5t-34.5 69t-49.5 68q-18 23 -42 55t-42 72.5t-24.5 89.5t10.5 105q16 54 50 81t72 38v103q0 24 13 29.5t29 -2t30 -25t16 -40.5q2 -26 3.5 -34.5t1.5 -19.5q27 0 46.5 -4 t33 -10.5t23 -15t17.5 -17.5q15 -19 18.5 -32t5.5 -32q1 -13 -9.5 -20.5t-23.5 -9t-24 4t-11 17.5q0 19 -6 31t-14.5 19.5t-18.5 10t-18 2.5q-29 -2 -49.5 -23t-28.5 -60q-9 -41 3.5 -81t33.5 -76t44.5 -65t37.5 -47z" glyph-name="dollar" horiz-adv-x="524" unicode="$"/>
<glyph d="M210 10q-13 -8 -23 -6.5t-15 6.5q-5 6 2 34t20 67t29 84t29 85q14 43 35 103t42 121t39.5 113t28.5 78q6 15 14.5 23t17.5 11t16.5 1t11.5 -8q3 -6 1 -20t-7 -29q-13 -39 -33 -89t-40 -119q-9 -32 -25 -80.5t-33.5 -99.5t-32.5 -97t-23 -71q-5 -15 -11 -32t-12.5 -32 t-14.5 -27t-16 -16zM173 427q-51 2 -81 37t-32 95q-1 38 10 70t31 54.5t47.5 34t58.5 7.5q42 -5 65.5 -30.5t24.5 -65.5q1 -39 -8.5 -76t-26.5 -65t-40 -45t-49 -16zM180 474q12 -1 25 12t23 34.5t16 48.5t5 54q0 27 -9.5 40.5t-29.5 15.5q-26 2 -40.5 -27.5t-17.5 -87.5 q-1 -18 1 -34t6 -28.5t9.5 -20t11.5 -7.5zM478 17q-51 2 -81 37t-32 95q-1 38 10 70t31 54.5t47 33.5t58 7q42 -5 66 -30.5t25 -64.5q1 -40 -8.5 -76.5t-27 -65t-40.5 -45t-48 -15.5zM484 64q13 -1 25.5 12t22.5 34.5t16 48.5t6 54q-1 50 -39 56q-26 2 -40.5 -27.5 t-17.5 -87.5q-2 -36 6.5 -62.5t20.5 -27.5z" glyph-name="percent" horiz-adv-x="662" unicode="%"/>
<glyph d="M786 154q7 0 11.5 -5t4.5 -13t-5 -14q-31 -39 -75.5 -57t-97.5 -18q-56 0 -102 13q-37 -45 -93.5 -70.5t-122.5 -25.5q-51 0 -96 15t-78.5 43.5t-52.5 69.5t-19 92q0 72 39.5 134.5t108.5 124.5q-5 29 -8 58t-3 59q0 41 10 72t27 51.5t39.5 31t46.5 10.5q54 0 83 -30 t29 -71q0 -32 -19 -81t-72 -109q20 -91 63.5 -166t106.5 -120q19 40 19 79q0 41 -15 67t-44 43q-7 3 -7 11q0 14 11 21q4 3 10 1q43 -17 67 -57.5t24 -97.5q0 -52 -18 -95q50 -22 103 -22q41 0 67.5 14.5t39.5 31.5q9 10 18 10zM329 605q-1 -12 -1.5 -24t-0.5 -24 q18 20 29 39t11 34q0 10 -4.5 13t-9.5 3q-11 0 -17 -12t-7 -29zM365 49q26 0 49.5 9t43.5 25q-76 35 -131.5 100t-87.5 149q-20 -24 -34 -52.5t-14 -65.5t14.5 -67.5t38.5 -52t55.5 -33.5t65.5 -12z" glyph-name="ampersand" horiz-adv-x="815" unicode="&amp;"/>
<glyph d="M63 477q-20 -3 -22 14.5t2 45.5q2 17 4 30t4.5 25.5t5 26t5.5 31.5q3 17 14 22t20 6q17 -2 26.5 -11t8.5 -32q0 -12 -1 -27t-2 -31t-2.5 -30t-4.5 -24q-5 -20 -21.5 -31.5t-36.5 -14.5z" glyph-name="quotesingle" horiz-adv-x="171" unicode="'"/>
<glyph d="M209 -40q-19 13 -47 49.5t-54.5 89t-45.5 116.5t-21 132t8 132t25.5 117t33 92t32.5 56q11 14 27.5 16t26.5 -6q4 -4 9 -8.5t7.5 -11t2 -16t-7.5 -24.5t-15.5 -53t-15.5 -87t-11 -103.5t-2 -102.5q3 -69 15 -126.5t26.5 -101.5t28 -73.5t19.5 -42.5q6 -12 7.5 -25.5 t-3 -22t-15.5 -9t-30 12.5z" glyph-name="parenleft" horiz-adv-x="270" unicode="("/>
<glyph d="M88 756q18 -13 45 -49.5t51.5 -89t41.5 -116.5t16 -132t-13 -132t-29 -117.5t-36.5 -92t-34.5 -56.5q-12 -14 -28 -16t-26 6q-5 4 -9.5 8.5t-7 11t-1.5 16t9 24.5q7 15 17 53t19 87.5t14.5 104t5.5 102.5q-1 69 -11 126.5t-22.5 101.5t-25 73.5t-18.5 41.5q-6 13 -7 26.5 t4 21.5t16 9t30 -12z" glyph-name="parenright" horiz-adv-x="270" unicode=")"/>
<glyph d="M265 364q-8 9 -19.5 28.5t-20.5 38.5q-5 10 -14 11t-16 -8q-13 -15 -25 -29t-18 -20q-9 -8 -17 -12t-23 4t-19 20t2 23q5 10 17.5 24.5t25.5 27.5q8 8 7 16t-10 12q-7 3 -12.5 5.5t-8.5 4.5q-11 6 -17 12.5t-3 23.5t13 24.5t23 5.5q8 -2 20 -6.5t26 -11.5q10 -4 17.5 0 t8.5 15q1 15 1.5 27.5t2.5 19.5q2 12 6.5 20t21.5 10t27 -5.5t12 -19.5q2 -8 1 -22t-3 -31q-2 -11 5 -16.5t17 -3.5q16 5 29.5 8t20.5 4q12 2 21 0t17 -18q7 -15 3 -27t-15 -18q-10 -5 -30.5 -9.5t-39.5 -7.5q-11 -2 -14.5 -10t2.5 -17q9 -15 17.5 -28.5t12.5 -20.5 q5 -11 5.5 -20t-11.5 -21t-25 -12t-21 9z" glyph-name="asterisk" horiz-adv-x="449" unicode="*"/>
<glyph d="M410 281q12 -2 19 -8t5.5 -13.5t-12 -14.5t-32.5 -11q-35 -5 -53 -6.5t-38 -2.5q-1 -33 -2 -60.5t-2 -39.5q-3 -30 -17.5 -38.5t-28.5 -6.5q-7 1 -15.5 1.5t-16.5 3.5t-14.5 10t-9.5 19q-4 14 -5.5 44.5t-0.5 64.5q-26 0 -50 1t-46 4q-14 2 -22 9.5t-9 16t7 15.5t26 8 q24 0 48.5 1t47.5 2l3 37q4 34 7.5 56.5t5.5 31.5q1 4 2.5 11t4 13.5t7 11t11.5 4.5q21 0 42.5 -15.5t24.5 -47.5q2 -13 2.5 -38.5t0.5 -57.5q26 1 56.5 -0.5t53.5 -4.5z" glyph-name="plus" horiz-adv-x="495" unicode="+"/>
<glyph d="M97 -59q-9 10 -2 18l14 16q9 12 7 25q-54 6 -44 61q5 28 20.5 39t45.5 7q44 -6 44 -60q0 -19 -7 -39.5t-18 -34.5q-17 -21 -34 -31.5t-26 -0.5z" glyph-name="comma" horiz-adv-x="262" unicode=","/>
<glyph d="M250 250q-45 0 -71 0.5t-43.5 2t-31.5 4t-34 5.5q-14 2 -21.5 9.5t-8 15.5t7.5 15t26 8h58.5t54 0.5t45.5 0.5h32q42 0 76.5 -1t59.5 -5q12 -2 19 -8.5t5.5 -14t-12.5 -14.5t-33 -10q-41 -6 -67.5 -7t-61.5 -1z" glyph-name="hyphen" horiz-adv-x="465" unicode="-"/>
<glyph d="M91 -5q-61 7 -49 68q10 62 73 53q32 -4 43 -19.5t6 -47.5q-11 -62 -73 -54z" glyph-name="period" horiz-adv-x="226" unicode="."/>
<glyph d="M203 -60q-13 -8 -23 -6.5t-15 6.5q-5 6 2 34t19.5 67t28.5 84t30 85q9 28 22 65t26.5 77.5t28 81.5t27.5 77.5t23.5 66t17.5 47.5q6 15 14.5 23t17.5 11t16.5 1t10.5 -8q4 -6 1.5 -20t-7.5 -29q-13 -39 -32.5 -89t-39.5 -119q-10 -32 -26 -80.5t-33 -99.5t-32 -97 t-23 -71q-5 -15 -11 -32t-12.5 -32t-14.5 -27t-16 -16z" glyph-name="slash" horiz-adv-x="609" unicode="/"/>
<glyph d="M517 702q20 -15 41 -47t38 -77t27.5 -102t8.5 -123q-1 -32 -5 -72.5t-13.5 -82t-27 -81.5t-45 -71t-66.5 -50.5t-93 -19.5q-24 0 -57 3.5t-68 16.5t-69.5 37.5t-61 66.5t-42.5 103.5t-14 149.5q2 98 22 167t49 115.5t62.5 73.5t63.5 41q2 2 6 4h3q44 14 83 11t70.5 -14 t54 -25.5t33.5 -23.5zM420 30q26 0 47.5 16t38.5 42t29 60t19.5 70.5t11 72t2.5 65.5q-4 119 -24.5 187.5t-51.5 103.5q-14 15 -38 32t-57 17h-3h-1q-25 0 -46.5 -32.5t-38 -83t-26 -112.5t-9.5 -123q0 -62 8.5 -118.5t26 -100.5t45.5 -70t67 -26z" glyph-name="zero" horiz-adv-x="702" unicode="0"/>
<glyph d="M485 40q12 -2 19 -8t5.5 -13.5t-12.5 -14.5t-33 -10q-21 -3 -37 -5t-32.5 -3t-35.5 -1h-44q-45 0 -74 0.5t-50 2t-38 4t-37 5.5q-14 2 -22 10t-8.5 16t7.5 15t26 7h80q0 31 -2 86t0 143q1 34 4.5 77.5t8.5 89.5t10 91.5t10 84.5q2 16 -2 18.5t-12 -5.5q-8 -10 -21 -22 t-29 -24t-31.5 -22.5t-27.5 -17.5t-25 -4t-20.5 11t-7 19t13.5 20q23 16 39.5 29t30.5 23q14 11 32 28.5t48 51.5q12 13 23.5 18t22.5 5t22 -4t22 -7q10 -4 22.5 -8t23.5 -10.5t20.5 -17t14.5 -26.5q10 -32 12.5 -72t-2.5 -105q-2 -21 -2.5 -54.5t-0.5 -73v-83.5t0.5 -87 t0.5 -82v-69q56 -1 88 -6z" glyph-name="one" horiz-adv-x="527" unicode="1"/>
<glyph d="M348 -9q-54 -5 -101.5 -9.5t-86 -5.5t-66.5 4t-42 20q-26 26 -1 90.5t106 173.5q30 41 57 83.5t49 82t37.5 73.5t22.5 59q14 50 8 77.5t-24 34.5q-17 7 -41.5 5t-47.5 -10q-26 -9 -53 -31t-40 -44q-7 -11 -19 -12t-20 7t-8 25t17 42q34 50 87.5 69.5t109.5 19.5 q32 0 65.5 -8.5t63 -30t52.5 -58t33 -91.5q7 -38 -3 -80.5t-31.5 -85.5t-50.5 -84.5t-61 -78.5t-63.5 -67t-56.5 -50q-23 -18 -22 -32t21 -14l136 -1q57 1 95.5 -4.5t62.5 -12.5q7 -2 12 -10.5t3.5 -17.5t-11 -16.5t-32.5 -7.5q-21 0 -37 0.5t-33 0.5t-37.5 -1t-49.5 -4z " glyph-name="two" horiz-adv-x="619" unicode="2"/>
<glyph d="M219 -24q-20 0 -42.5 2.5t-44.5 10.5t-43 23.5t-39 41.5q-11 16 -6 25.5t16.5 13.5t24.5 2.5t19 -6.5t13 -15t17.5 -19.5t24 -17t32.5 -7.5q32 0 56.5 17.5t41 45.5t25 63.5t8.5 72.5q0 36 -3.5 61.5t-15 40.5t-33 19t-58.5 -2q-11 -2 -21 1.5t-18 9.5t-14.5 13t-9.5 12 q-7 9 -7.5 16.5t3 13.5t10.5 11.5t14 11.5q10 8 29 26t38 40.5t34 46.5t18 45q15 104 -80 104q-16 0 -26 -4.5t-16.5 -10.5t-11 -12.5t-9.5 -11.5q-8 -8 -20 -7.5t-21 7t-11.5 17.5t7.5 25q11 14 32 25t47 17.5t55.5 9t58.5 -0.5q33 -3 61.5 -14.5t49 -31.5t32.5 -50t12 -71 q0 -34 -12 -59.5t-28.5 -44.5t-34.5 -31t-30 -18q24 -6 53.5 -16.5t55.5 -31.5t44 -56.5t18 -93.5t-20.5 -106t-59 -82t-93 -52.5t-122.5 -18.5z" glyph-name="three" horiz-adv-x="584" unicode="3"/>
<glyph d="M548 298q22 -3 25 -17.5t-25 -24.5q1 -50 1 -91.5v-63.5q0 -53 -14 -77t-30 -36q-15 -13 -41 -22t-64 -11q-26 -1 -38 26.5t-16 70.5t-2 94t4 97h-71h-71.5h-44.5t-32.5 1t-35.5 4q-26 3 -36 24.5t-6 46.5q2 17 6.5 39.5t9 46t9 46.5t6.5 41q3 30 5 53t3.5 44.5t2.5 43.5 t4 50q3 32 18 40t33 2q18 -7 25.5 -13.5t11.5 -21.5q4 -14 6 -32.5t2.5 -38.5t0 -40t-1.5 -38q-1 -15 -3.5 -36t-6 -46t-8.5 -52t-11 -52q-2 -7 -4 -15.5t8 -16.5t37.5 -13t85.5 -5h60q3 48 8.5 107t12 116t12 105t8.5 74q1 12 8 19.5t17 12t21.5 5.5t22.5 0 q22 -2 46.5 -15.5t34.5 -46.5q10 -32 12.5 -72t-2.5 -105q-1 -16 -1.5 -39t-1 -50t-0.5 -57.5v-60.5z" glyph-name="four" horiz-adv-x="643" unicode="4"/>
<glyph d="M549 286q7 -58 -15 -118t-66 -108t-108.5 -75t-143.5 -19q-20 2 -42.5 4.5t-44.5 10t-43 22.5t-39 41q-11 16 -6 25.5t16 13.5t24.5 2.5t19.5 -6.5t13 -15t17.5 -19.5t24 -17t32.5 -7.5q32 0 64.5 13.5t58.5 41t42.5 70.5t17.5 103q1 30 -6 56t-19 45t-27.5 30t-31.5 11 q-42 0 -73 -25.5t-63 -72.5q-4 -8 -13 -10.5t-20 -2.5t-21.5 3t-17.5 7q-23 14 -29.5 27t-4.5 42q0 9 2.5 33.5t6.5 57t8.5 69.5t9.5 72.5t10 65.5t10 49q5 23 13.5 31t29.5 6q30 0 63 -0.5t63 -0.5h54h36q35 0 68.5 -2t58.5 -5q7 -1 12.5 -7t5.5 -13.5t-8.5 -15 t-30.5 -10.5q-21 -3 -37.5 -5t-31.5 -3l-30 -2t-33 -2l-86 -7q1 -14 1 -28.5t-2 -31.5t-6 -39t-10 -51q-2 -14 -6.5 -30t-6.5 -30q0 -8 3 -12q47 28 99 34q36 4 75 -4t73 -31t58.5 -62.5t31.5 -97.5z" glyph-name="five" horiz-adv-x="587" unicode="5"/>
<glyph d="M388 400q49 12 88 0t66.5 -40.5t42.5 -68.5t15 -85q0 -44 -16.5 -88t-46 -79.5t-69.5 -57t-87 -21.5q-32 0 -69 6t-73 21.5t-69 43.5t-57 72.5t-35.5 108.5t-5.5 151q6 92 29 156.5t54.5 107t69.5 66.5t74.5 36t68.5 14.5t53 2.5q55 -1 83 -14.5t44 -32.5 q15 -19 18.5 -32t5.5 -33q1 -12 -8 -19t-21 -8.5t-23.5 3.5t-15.5 17q-5 11 -9.5 23t-13.5 20.5t-23.5 12t-38.5 -2.5q-25 -6 -49.5 -34t-44.5 -72t-33.5 -100t-16.5 -119q0 -8 -0.5 -15.5t-0.5 -15.5q18 22 43.5 43.5t70.5 32.5zM381 30q33 0 56.5 15.5t39 41t22.5 56.5 t7 63q0 31 -8.5 57.5t-22 45.5t-32 30t-37.5 11t-39.5 -7.5t-38 -24.5t-30.5 -44t-18 -66q4 -36 12 -68.5t20.5 -57t29.5 -38.5t39 -14z" glyph-name="six" horiz-adv-x="670" unicode="6"/>
<glyph d="M443 734q10 -1 20.5 -4.5t18.5 -11t12.5 -19t1.5 -27.5q-5 -32 -20.5 -72t-49.5 -105q-11 -21 -30.5 -59t-43.5 -84.5t-49.5 -97t-50 -97.5t-45.5 -86t-34 -62q-17 -30 -34.5 -36.5t-33 3.5t-26.5 33t-15.5 53.5t-0.5 64.5t20 65q16 27 35.5 65.5t40 83.5t42.5 93 t41.5 92t37 82t30.5 64q-11 -1 -24 -2t-28 -3q-46 -5 -73.5 -9.5t-46 -7t-33 -3t-34.5 2.5q-14 2 -18.5 16t-1 30.5t15 30t29.5 14.5q30 0 58.5 -0.5t53 -0.5h44.5h32q54 0 89 -1.5t60 -4.5h10v0z" glyph-name="seven" horiz-adv-x="537" unicode="7"/>
<glyph d="M415 429q49 -45 77 -87.5t40.5 -83t11.5 -78.5t-8 -73q-8 -35 -32 -60.5t-57 -42t-72 -24.5t-78 -8q-41 0 -80.5 10t-72 33t-53 60t-21.5 91q-1 30 10 58t29 53.5t41 47.5t47 42q-56 64 -74.5 125.5t-10.5 112.5q6 42 24.5 69t44 43t57.5 22.5t65 7.5q36 1 69 -7 t59 -24.5t42.5 -42.5t19.5 -60q2 -26 -5 -49.5t-20.5 -44.5t-31.5 -40t-38 -35q4 -4 8 -7.5t9 -7.5zM300 692q-51 -5 -71.5 -26t-14.5 -44q8 -32 43 -62t88 -72q32 29 53.5 61t21.5 63q0 25 -12.5 41.5t-30.5 25.5t-39 11.5t-38 1.5zM387 107q2 15 -3.5 35t-22 46t-45.5 59 t-74 74l-5 5q-20 -18 -39 -38t-33.5 -41.5t-22.5 -44.5t-7 -47t14 -48.5t33 -44t45 -31.5t50 -12q20 0 39 6t34 17t24.5 27.5t12.5 37.5z" glyph-name="eight" horiz-adv-x="614" unicode="8"/>
<glyph d="M269 755q32 0 69 -6t73 -21.5t69 -43.5t57 -72.5t35.5 -108.5t5.5 -151q-6 -92 -29 -156.5t-54.5 -107t-69.5 -66.5t-74.5 -36t-68.5 -14.5t-53 -2.5q-27 0 -39.5 8.5t-11 19.5t15 21.5t37.5 16.5q25 6 49 33.5t44 70.5t34 98t17 116q-20 -24 -45.5 -38t-67.5 -16 q-50 -2 -89.5 13.5t-66.5 44.5t-41.5 68t-14.5 84q0 44 16.5 88t45.5 79.5t69.5 57t87.5 21.5zM244 365q18 0 38 4.5t38.5 15.5t33.5 31t23 52q-1 43 -6.5 82t-17.5 69t-32.5 48t-51.5 18q-33 0 -56.5 -15.5t-39 -41t-22.5 -57t-7 -62.5t8.5 -57.5t22 -45.5t31.5 -30t38 -11 z" glyph-name="nine" horiz-adv-x="650" unicode="9"/>
<glyph d="M90 328q-59 7 -49 68q12 62 74 53q31 -4 42.5 -20t6.5 -48q-12 -60 -74 -53zM90 -5q-59 7 -49 68q12 62 74 53q31 -4 42.5 -20t6.5 -48q-12 -60 -74 -53z" glyph-name="colon" horiz-adv-x="226" unicode=":"/>
<glyph d="M109 293q-61 7 -49 68q10 62 73 53q32 -4 43 -19.5t6 -47.5q-11 -62 -73 -54zM97 -59q-9 10 -2 18l14 16q9 12 7 25q-54 6 -44 61q5 28 20.5 39t45.5 7q44 -6 44 -60q0 -19 -7 -39.5t-18 -34.5q-17 -21 -34 -31.5t-26 -0.5z" glyph-name="semicolon" horiz-adv-x="262" unicode=";"/>
<glyph d="M270 133q-9 6 -34.5 20t-55 30.5t-57 32.5t-39.5 27q-26 21 -24.5 45t26.5 40q18 12 46 26t58.5 28t58.5 26t46 19q21 7 32.5 2.5t15.5 -14t1 -21t-11 -18.5q-12 -11 -27.5 -23t-32 -23.5t-32 -21.5t-27.5 -16q-13 -6 -17.5 -11t-3.5 -9.5t5.5 -8.5t9.5 -8t17.5 -9.5 t28 -12t32.5 -15t32 -18.5t16 -26t-7 -29t-23.5 -18.5t-33.5 6.5z" glyph-name="less" horiz-adv-x="405" unicode="&lt;"/>
<glyph d="M229 332q-26 -1 -45.5 -0.5t-36 2t-32.5 4t-36 5.5q-14 1 -22 8.5t-9 16t7 15.5t26 8q60 1 98.5 1.5t62.5 1.5q34 1 67.5 0t58.5 -5q12 -2 19 -8t5.5 -13.5t-12.5 -14.5t-33 -11q-21 -3 -36.5 -5t-29 -3t-26 -1.5t-26.5 -0.5zM241 175q-26 -1 -45.5 -0.5t-36 2t-32.5 4 t-36 5.5q-14 1 -22 8.5t-9 16t7 15.5t26 8q60 1 98.5 1.5t62.5 1.5q34 1 67.5 0t58.5 -5q12 -2 19 -8t5.5 -13.5t-12.5 -14.5t-33 -11q-21 -3 -36.5 -5t-29 -3t-26 -1.5t-26.5 -0.5z" glyph-name="equal" horiz-adv-x="465" unicode="="/>
<glyph d="M135 133q-18 -12 -33.5 -6.5t-23.5 18.5t-7 29t16 26t32 18.5t32.5 15t28 12t17.5 9.5t9.5 8t5.5 8.5t-3.5 9.5t-16.5 11q-13 6 -28.5 16t-32 21.5t-32 23.5t-27.5 23q-8 7 -11 18.5t1 21t15.5 14t32.5 -2.5q18 -7 46.5 -19t58.5 -26t58 -28t46 -26q25 -16 26.5 -40 t-23.5 -45q-13 -11 -40.5 -27t-57 -32.5t-55 -30.5t-34.5 -20z" glyph-name="greater" horiz-adv-x="405" unicode="&gt;"/>
<glyph d="M229 189q-28 14 -42.5 30.5t-19.5 35t-3 38.5t6 40q5 24 24 55.5t41.5 64.5t41.5 64.5t24 54.5q6 28 4.5 47.5t-7.5 32.5t-15 20.5t-18 11.5q-17 7 -41.5 5t-47.5 -10q-26 -9 -51 -29.5t-44 -37.5q-9 -9 -20.5 -7.5t-17 11.5t-1.5 26.5t26 36.5q22 21 43 35t42.5 23 t45 13t51.5 4q32 0 68 -6.5t66 -27t50 -57.5t20 -97q0 -40 -20.5 -81t-46.5 -80t-51 -74.5t-35 -64.5q-5 -15 -9 -33t-11 -31.5t-19 -18.5t-33 6zM219 -5q-61 7 -49 68q10 62 73 53q32 -4 43 -19.5t6 -47.5q-11 -62 -73 -54z" glyph-name="question" horiz-adv-x="514" unicode="?"/>
<glyph d="M398 536q44 -4 87 -22.5t76.5 -51t53 -78.5t17.5 -103t-18.5 -96.5t-39 -63.5t-45.5 -34.5t-38 -10.5t-31 4.5t-29.5 13.5t-24.5 22.5t-15 32.5q-22 -27 -48.5 -47t-52.5 -20q-47 0 -73.5 29.5t-26.5 80.5q0 52 19 89.5t43.5 62t48 37t31.5 13.5q24 3 40 -12 q17 -14 19 -29.5t-13 -26.5q-28 -21 -48 -54.5t-25 -67.5q-3 -24 -0.5 -40t7.5 -16q9 0 19.5 7.5t21.5 20.5t21 30.5t18 36.5q3 20 7.5 39.5t11.5 37.5q8 24 25.5 34.5t40.5 4.5q21 -5 27.5 -18.5t1.5 -42.5q-5 -30 -9.5 -59.5t-6.5 -53.5t0 -39t11 -15t24 9.5t29.5 28.5 t25.5 46.5t11 62.5t-17 71t-45.5 65t-65 47.5t-76.5 18.5q-46 0 -88 -18t-74 -51.5t-52.5 -82.5t-23.5 -111t16.5 -105.5t49 -71.5t62.5 -42t56 -18q29 -4 57 -3t52 5t42 11t29 15q10 8 17 6.5t9 -8t-0.5 -16t-10.5 -17.5q-12 -11 -32.5 -21t-47.5 -17t-58 -11t-64 -4 q-19 0 -46 5t-56.5 17.5t-59 33.5t-52.5 53.5t-37.5 78t-14.5 106.5q0 91 30 154.5t78 102.5t108.5 54.5t121.5 10.5z" glyph-name="at" horiz-adv-x="693" unicode="@"/>
<glyph d="M569 48q9 -30 8 -47.5t-12 -25t-33.5 -7.5t-56.5 5q-20 3 -34 7t-24.5 13.5t-19.5 25.5t-18 43q-10 28 -21 68.5t-22 84.5q-14 0 -29.5 -0.5t-35.5 -0.5h-51.5t-40.5 1q-29 -92 -51.5 -142t-34.5 -73q-6 -12 -19 -20t-24 -9t-17.5 7.5t1.5 28.5q11 34 32 92t42 122l-36 6 q-14 2 -22 9.5t-8.5 15.5t7.5 15t26 8h50q11 35 23 75.5t24 82t23.5 81.5t21 74t16.5 60t11 39q1 23 13 40.5t48 17.5q31 0 52 -14.5t36 -41t25.5 -63t19.5 -79.5q7 -29 17.5 -72t23 -91.5t26 -100t26 -97t22.5 -82t16 -56.5zM321 276q-6 26 -11 50t-9 43q-8 40 -15.5 82 t-15.5 80q-15 -57 -33.5 -124t-38.5 -131h87h36z" glyph-name="A" horiz-adv-x="607" unicode="A"/>
<glyph d="M491 299q20 -3 42.5 -16.5t38.5 -37.5t20 -57t-12 -74q-24 -61 -62.5 -98.5t-79.5 -54.5q-12 -5 -22 -6t-18.5 1.5t-16.5 6.5t-17 9q-8 4 -16.5 10t-14.5 13.5t-6 15.5t11 16q44 28 77 56t53 73q8 19 12 38.5t0.5 35.5t-15 26t-34.5 9q-6 -3 -11 -3q-18 -2 -29.5 1 t-25.5 14q-7 6 -13 13.5t-9 16.5t-0.5 18t13.5 17q43 28 67.5 83t22.5 125q-1 50 -13.5 79t-30.5 29q-17 0 -36.5 -21.5t-37.5 -54.5t-32 -72.5t-20 -75.5q-1 -41 -1 -90.5t0.5 -96.5t0.5 -86v-60q0 -27 -4.5 -45.5t-10.5 -31.5t-14 -21.5t-15 -14.5q-16 -13 -42 -22 t-64 -11q-19 -1 -30.5 14t-17.5 40.5t-7 58.5t-0.5 68.5t2.5 71t3 66.5q1 46 6.5 109t12.5 125.5t13 116.5t9 82q3 23 25 31t44 6t47 -15.5t35 -46.5q9 -32 12 -70q13 24 29 45.5t35 38t39.5 26.5t41.5 10q27 0 55 -8.5t51.5 -27t40.5 -49.5t24 -76q8 -52 1 -95t-23 -76.5 t-38.5 -58.5t-44.5 -42z" glyph-name="B" horiz-adv-x="696" unicode="B"/>
<glyph d="M284 -24q-22 3 -47.5 8.5t-51 19.5t-48.5 39t-39.5 67t-23.5 104t-1 149q6 92 28.5 156.5t54.5 107t69.5 66.5t74 36t69 14.5t53.5 2.5q55 -1 83 -14.5t43 -32.5q16 -19 19.5 -32t5.5 -33q1 -12 -8 -19t-21 -8.5t-23.5 3.5t-15.5 17q-5 11 -9.5 23t-13.5 20.5t-23.5 12 t-38.5 -2.5q-25 -6 -49.5 -34t-45 -72t-33.5 -100t-16 -119q-3 -55 0 -112.5t14.5 -105t33.5 -77.5t57 -30q19 0 32.5 7.5t24 17t17.5 19.5t13 15t19.5 6.5t24.5 -2.5t16 -13.5t-6 -25.5q-35 -53 -90.5 -71t-147.5 -7z" glyph-name="C" horiz-adv-x="613" unicode="C"/>
<glyph d="M425 732q58 0 105.5 -32.5t80.5 -85t50 -118t15 -131.5q-3 -74 -23 -135.5t-52.5 -110.5t-74.5 -84t-89 -55q-16 -8 -41.5 -9t-39.5 10t-14.5 26t22.5 29q37 24 67 57.5t51 74t32 85t11 89.5q0 20 -1.5 51.5t-6.5 66.5t-13.5 70.5t-22.5 63.5t-33.5 46t-45.5 18 q-17 0 -36.5 -21.5t-37.5 -54t-32 -71.5t-20 -75q-1 -41 -1 -90.5t0.5 -97t0.5 -87v-60.5q0 -27 -4.5 -45.5t-10.5 -31.5t-14 -21.5t-15 -14.5q-16 -13 -42 -22t-64 -11q-19 -1 -30.5 14t-17.5 40.5t-7 58.5t-0.5 68.5t2.5 71t3 66.5q1 46 6.5 109t12.5 125.5t13 116.5t9 82 q3 23 25 31t44 6t47 -15.5t35 -46.5q5 -16 7.5 -33t4.5 -38q13 24 29 46t35 38.5t39.5 26.5t41.5 10z" glyph-name="D" horiz-adv-x="746" unicode="D"/>
<glyph d="M528 91q11 7 24.5 5t22.5 -9.5t10 -19.5t-12 -25q-22 -21 -59.5 -36t-82.5 -23t-94 -7.5t-95 10.5q-33 4 -64 21.5t-55 54.5t-38.5 96t-14.5 146q2 30 6 67t9.5 76t12 78.5t12 74.5t10 63.5l7.5 47.5q2 19 20 25.5t38 5.5q57 0 106.5 -1t72.5 0q57 0 94.5 -2t61.5 -5 q7 -1 13 -7t6 -13.5t-8.5 -15t-30.5 -10.5q-21 -3 -38 -5.5t-35 -5t-39 -4.5t-50 -5l-60 -8q3 -15 5.5 -35t3 -49t-1 -68.5t-6.5 -93.5h7q56 0 93 -1.5t63 -4.5q7 -1 13 -7.5t6 -14t-9 -15t-31 -10.5q-19 -3 -35.5 -4.5t-33.5 -3.5t-35.5 -4t-42.5 -6q0 -53 -0.5 -105 t3.5 -94.5t15.5 -70.5t35.5 -33q18 -4 44.5 -1t55 10.5t55 18.5t45.5 23z" glyph-name="E" horiz-adv-x="625" unicode="E"/>
<glyph d="M530 732q7 -1 13 -7t6 -13.5t-9 -15t-31 -10.5q-21 -3 -37.5 -5.5t-34.5 -5t-39 -4.5t-51 -5q-23 -3 -41.5 -5.5t-32.5 -4.5q6 -32 6.5 -75.5t-3.5 -97.5q-1 -14 -1.5 -32t-0.5 -39h21q57 0 94 -1.5t62 -4.5q7 -1 13 -7.5t6 -14t-9 -15t-31 -10.5q-20 -3 -37.5 -5 t-35 -3.5t-37.5 -4t-46 -6.5q0 -35 0.5 -70.5t0.5 -67.5t0.5 -58.5t0.5 -42.5q0 -27 -4.5 -45.5t-10.5 -31.5t-14 -21.5t-15 -14.5q-16 -13 -42 -22t-64 -11q-19 -1 -30.5 14t-17.5 40.5t-7 58.5t-0.5 68.5t2.5 71t3 66.5q1 46 6.5 108t12.5 124.5t13 115.5t9 81 q1 11 7.5 18.5t16.5 12t21.5 6t22.5 0.5q60 0 112.5 -1t76.5 0q57 0 94 -2t62 -5z" glyph-name="F" horiz-adv-x="569" unicode="F"/>
<glyph d="M569 311q18 0 26.5 -12t8 -26.5t-8.5 -27t-22 -12.5h-16.5t-15.5 1q0 -15 -0.5 -30.5t-1.5 -32.5q-1 -32 -2 -56.5t-4 -54.5q-3 -23 -18 -40t-47 -19q-32 -20 -76.5 -26.5t-107.5 1.5q-22 3 -47.5 8.5t-51 19.5t-48.5 39t-39.5 67t-23.5 104t-1 149q6 92 28.5 156.5 t54.5 107t69.5 66.5t74 36t69 14.5t53.5 2.5q55 -1 83 -14.5t43 -32.5q16 -19 19.5 -32t5.5 -33q1 -12 -8 -19t-21 -8.5t-23.5 3.5t-15.5 17q-5 11 -9.5 23t-13.5 20.5t-23.5 12t-38.5 -2.5q-25 -6 -49.5 -34t-45 -72t-33.5 -100t-16 -119q-3 -55 0 -112.5t14.5 -105 t33.5 -77.5t57 -30q5 0 7 1q0 6 8 13q7 6 11 11t6 12t3.5 17t3.5 27q4 38 4.5 72.5t-1.5 61.5q-20 2 -37.5 5t-40.5 7q-23 3 -31.5 10.5t-8.5 15t6 13.5t13 7q23 3 55.5 4t86.5 3h16h20.5h17.5h20.5t28.5 1z" glyph-name="G" horiz-adv-x="643" unicode="G"/>
<glyph d="M618 699q4 -14 5.5 -36.5t1 -51t-2 -60.5t-3.5 -63q-2 -33 -3 -88t-2 -113.5t-1.5 -110.5t-0.5 -78v-35t-1.5 -35t-5.5 -30t-11 -19q-13 -11 -30 -11.5t-36 0.5q-15 0 -21 28t-7.5 70t0 91.5t1.5 91.5q0 37 3 85q-20 -3 -36 -4.5t-32.5 -2.5t-34.5 -1.5t-43 -0.5h-46 t-37 1q0 -34 0.5 -68t0.5 -64v-54v-39q0 -27 -4.5 -45.5t-10.5 -31.5t-14 -21.5t-15 -14.5q-16 -13 -42 -22t-64 -11q-19 -1 -30.5 14t-17.5 40.5t-7 58.5t-0.5 68.5t2.5 71t3 66.5q1 46 6.5 109t12.5 125.5t13 116.5t9 82q3 23 25 31t44 6t47 -15.5t35 -46.5q9 -32 12 -72 t-2 -105q-2 -20 -2.5 -51t-0.5 -68q32 1 57.5 1h38.5q47 0 80 -1t56 -3q3 44 6.5 90t7 87t6 74.5t3.5 53.5q2 32 16.5 40.5t32.5 3.5q19 -5 26.5 -11.5t12.5 -21.5z" glyph-name="H" horiz-adv-x="695" unicode="H"/>
<glyph d="M126 -45q-19 -1 -30.5 14t-17.5 40.5t-7 58.5t-0.5 68.5t2.5 71t3 66.5q1 46 6.5 109t12.5 125.5t13 116.5t9 82q3 23 25 31t44 6t47 -15.5t35 -46.5q9 -32 12 -72t-2 -105q-2 -21 -2.5 -54.5t-0.5 -72.5v-81t0.5 -79.5t0.5 -68.5v-48q0 -27 -4.5 -45.5t-10.5 -31.5 t-14 -21.5t-15 -14.5q-16 -13 -42 -22t-64 -11z" glyph-name="I" horiz-adv-x="366" unicode="I"/>
<glyph d="M278 -44q-92 -11 -146.5 7t-85.5 71q-10 16 -4.5 25.5t17 13t24.5 2.5t19 -6q5 -5 12 -14t17 -18t24 -17t32 -10q24 -3 39.5 21t24.5 66.5t12.5 99.5t3.5 120v113.5v117.5t0.5 104.5t1.5 75.5q1 23 22.5 30.5t43.5 5.5q23 -2 48.5 -15.5t37.5 -45.5t17.5 -81.5 t4.5 -113.5q0 -19 2.5 -47t2.5 -62q0 -137 -14.5 -221.5t-38 -132.5t-54 -66.5t-63.5 -22.5z" glyph-name="J" horiz-adv-x="518" unicode="J"/>
<glyph d="M658 21q12 -8 12 -16.5t-7.5 -15.5t-19.5 -12.5t-23 -8.5q-18 -6 -43.5 -2.5t-52 17t-51 37t-42.5 58.5q-17 34 -31.5 78.5t-31 84t-38.5 66.5t-55 27q0 -35 0.5 -70.5t0.5 -66.5v-56v-40q0 -27 -4.5 -45.5t-10.5 -31.5t-14 -21.5t-15 -14.5q-16 -13 -42 -22t-64 -11 q-19 -1 -30.5 14t-17.5 40.5t-7 58.5t-0.5 68.5t2.5 71t3 66.5q1 46 6.5 109t12.5 125.5t13 116.5t9 82q3 23 25 31t44 6t47 -15.5t35 -46.5q9 -32 12 -72t-2 -105q-1 -11 -1.5 -24t-0.5 -29q17 33 38.5 71t41.5 66q30 42 68 72t76 44q27 9 59.5 1.5t52.5 -23.5 q12 -11 17.5 -21t9.5 -30q2 -12 -9 -21.5t-26.5 -13.5t-30.5 -1.5t-21 14.5q-11 23 -26 28.5t-29 0.5q-34 -10 -61 -37t-47 -55q-9 -13 -20 -31t-22.5 -38t-22 -41l-19.5 -39q18 3 36 -1l30 -5t37.5 -10t38.5 -20.5t32 -37.5q18 -33 34 -75t35.5 -84.5t45.5 -80.5t64 -63z " glyph-name="K" horiz-adv-x="700" unicode="K"/>
<glyph d="M343 -32q-30 0 -79 -1.5t-104 6.5q-33 4 -52 29t-28 65.5t-9.5 93.5t2.5 113q3 46 5 111.5t3.5 132t2 123t1.5 84.5q1 23 22.5 31t43.5 6q23 -2 48.5 -15.5t37.5 -46.5q11 -32 17 -81t5 -114q0 -32 3.5 -88t8.5 -115t9 -112t6 -79q3 -26 7 -38t26 -15q29 -4 50.5 -5 t39.5 -1.5t34.5 -1.5t37.5 -4q22 -3 32.5 -13.5t11.5 -21.5t-5.5 -20.5t-17.5 -10.5q-17 -2 -32 -4t-32.5 -4t-40 -3t-54.5 -1z" glyph-name="L" horiz-adv-x="545" unicode="L"/>
<glyph d="M746 699q4 -14 5.5 -36.5t1 -51t-2 -60.5t-3.5 -63q-2 -33 -3.5 -88t-2.5 -113.5t-1 -110.5v-78v-35t-1.5 -35t-5.5 -30t-11 -19q-13 -11 -30 -11.5t-37 0.5q-15 0 -21 28t-7.5 70t0 91.5t1.5 91.5q0 44 4 104t9 123q-18 -26 -38.5 -54t-38.5 -53t-31.5 -43.5 t-18.5 -25.5q-30 -46 -56 -48t-41 21q-23 33 -53 78.5t-59 99.5l-27 52q-2 -22 -2.5 -55t-0.5 -72v-80.5t0.5 -78.5t0.5 -68v-48q0 -27 -4.5 -45.5t-10.5 -31.5t-14 -21.5t-15 -14.5q-16 -13 -42 -22t-64 -11q-19 -1 -30.5 14t-17.5 40.5t-7 58.5t-0.5 68.5t2.5 71t3 66.5 q1 46 6.5 109t12.5 125.5t13 116.5t9 82q3 23 25 31t44 6q13 -2 27 -6t27 -14q16 -10 32.5 -30t32.5 -43.5t29 -46.5t22 -39q9 -17 20 -38t22.5 -41.5t21 -37.5t14.5 -26l2 -2q14 18 29.5 37.5t30 39t27.5 38t22 33.5q15 24 33.5 52.5t37 53t35.5 41t28 16.5q12 6 27 1 q19 -5 27 -11.5t13 -21.5z" glyph-name="M" horiz-adv-x="822" unicode="M"/>
<glyph d="M597 699q4 -14 5.5 -36.5t1 -51t-2 -60.5t-3.5 -63q-2 -33 -3.5 -88t-2 -113.5t-1 -110.5t-0.5 -78t-0.5 -56.5t-8.5 -48.5q-1 -4 -4 -8q-1 -2 -5 -6q-9 -8 -20 -10t-24 -2h-11.5t-10.5 1q-12 1 -20 6t-16.5 14t-18 22.5t-22.5 30.5q-29 38 -56 91.5t-65 125.5 q-11 22 -25 52.5t-29.5 65t-31.5 70.5t-31 69q-1 -3 -1 -10q-2 -33 -3.5 -88t-2.5 -113.5t-1 -110v-78.5v-34.5t-1.5 -35t-5.5 -30t-11 -19.5q-13 -11 -30 -11.5t-36 0.5q-15 1 -21.5 29t-8 70t0 91t1.5 91q0 30 2 69t5 81.5t6.5 86t7 82.5t6 70.5t3.5 50.5q2 24 11 34.5 t21 11.5q14 4 34.5 2.5t38.5 -9.5q26 -12 46.5 -39t40 -64t40.5 -81t47 -90q23 -39 48 -93t50 -112q1 47 5.5 108.5t9.5 122.5t9 112.5t6 78.5q2 32 16.5 40.5t31.5 3.5q20 -5 27.5 -11.5t12.5 -21.5z" glyph-name="N" horiz-adv-x="673" unicode="N"/>
<glyph d="M382 -24q-24 0 -57 3.5t-68 16.5t-69.5 37.5t-61 66.5t-42.5 103.5t-14 149.5q2 101 24.5 171.5t53 117t65 72.5t60.5 40q17 7 39 4.5t36 -13.5q8 -6 15 -14t10.5 -18t3 -21t-8.5 -24q-13 -21 -29.5 -51.5t-31 -70.5t-24.5 -90t-10 -111q0 -62 8.5 -118.5t26 -100.5 t45.5 -70t67 -26q26 0 47.5 16t38.5 42t29 60t19.5 70.5t11 72t2.5 65.5q-2 59 -11 109t-21 87.5t-24 62t-20 32.5q-20 20 -41 22t-41 -1q-8 -1 -14.5 6.5t-8.5 18t2 20t17 12.5q34 8 61 1t50 -24q20 -15 41 -47t38 -77t27.5 -102t8.5 -123q-1 -32 -5 -72.5t-13.5 -82 t-27 -81.5t-45 -71t-66.5 -50.5t-93 -19.5z" glyph-name="O" horiz-adv-x="702" unicode="O"/>
<glyph d="M606 552q4 -57 -6 -103t-28 -81t-41 -60.5t-45 -42t-40 -24.5t-26 -9q-18 -2 -29.5 1t-25.5 14q-7 6 -13 13.5t-9 16.5t-0.5 18t13.5 17q21 14 39.5 32.5t32 44.5t21 60.5t7.5 80.5q0 59 -18 93.5t-36 34.5q-17 0 -36.5 -21.5t-37.5 -54t-32 -71.5t-20 -75 q-1 -41 -1 -90.5t0.5 -97t0.5 -87v-60.5q0 -27 -4.5 -45.5t-10.5 -31.5t-14 -21.5t-15 -14.5q-16 -13 -42 -22t-64 -11q-19 -1 -30.5 14t-17.5 40.5t-7 58.5t-0.5 68.5t2.5 71t3 66.5q1 46 6.5 109t12.5 125.5t13 116.5t9 82q3 23 25 31t44 6t47 -15.5t35 -46.5 q5 -16 7.5 -33t4.5 -38q13 24 29 46t35 38.5t39.5 26.5t41.5 10q27 0 57.5 -10t57 -31.5t45 -55.5t21.5 -83z" glyph-name="P" horiz-adv-x="651" unicode="P"/>
<glyph d="M370 -24q-24 0 -55 4.5t-63.5 17t-63.5 33.5t-56.5 55t-42 82t-19.5 113q-3 75 13.5 133t44.5 100t62.5 67.5t66.5 35.5q25 8 47.5 -2t32.5 -24q12 -16 11.5 -33t-14.5 -37q-14 -21 -27 -38.5t-23.5 -43.5t-16.5 -64.5t-6 -101.5q0 -35 8.5 -77t26 -79t45.5 -62t67 -25 q26 0 47 16t37.5 42t28.5 60t19.5 70.5t10.5 72t2 65.5q-2 59 -11.5 104t-23.5 77.5t-31 55t-34 36.5q-51 42 -104 40.5t-119 -36.5q-7 -4 -15.5 1t-14 14t-4.5 19.5t12 18.5q33 22 72.5 32t79.5 9.5t77 -12t64 -31.5t53 -49t45.5 -70t30.5 -93.5t9 -118.5q-1 -32 -6 -72.5 t-17 -82t-31.5 -81.5t-49.5 -71t-70.5 -50.5t-94.5 -19.5zM525 -214q-50 0 -90.5 18.5t-75.5 40.5t-65.5 40.5t-60.5 18.5q-26 0 -47.5 -15t-31.5 -32q-4 -8 -9 -10t-9 -0.5t-6 6t0 10.5q5 15 18 32.5t33 32.5t46 24.5t56 9.5q55 0 95.5 -19t71.5 -42t55.5 -42t48.5 -19 t39 10.5t29 21.5q14 12 18 6t-1 -17q-6 -12 -14 -25t-21.5 -24t-32.5 -18.5t-46 -7.5z" glyph-name="Q" horiz-adv-x="712" unicode="Q"/>
<glyph d="M678 21q12 -8 12 -16.5t-7.5 -15.5t-19 -12.5t-22.5 -8.5q-18 -6 -43.5 -2.5t-52 17t-51.5 37t-42 58.5q-17 34 -30.5 65.5t-25.5 59t-24.5 51t-27.5 42.5q-17 20 -11 43q2 14 15 23q2 2 4 3q2 2 3.5 2.5t3.5 2.5q39 28 63.5 71.5t23.5 108.5q-1 50 -13.5 79t-30.5 29 q-17 0 -36.5 -21.5t-37.5 -54t-32 -71.5t-20 -75q-1 -41 -1 -90.5t0.5 -97t0.5 -87v-60.5q0 -27 -4.5 -45.5t-10.5 -31.5t-14 -21.5t-15 -14.5q-16 -13 -42 -22t-64 -11q-19 -1 -30.5 14t-17.5 40.5t-7 58.5t-0.5 68.5t2.5 71t3 66.5q1 46 6.5 109t12.5 125.5t13 116.5t9 82 q3 23 25 31t44 6t47 -15.5t35 -46.5q5 -16 7.5 -33t4.5 -38q13 24 29 46t35 38.5t39.5 26.5t41.5 10q27 0 56 -8t53.5 -27t41.5 -49.5t20 -75.5q4 -55 -6.5 -98t-29.5 -75.5t-42.5 -54.5t-45.5 -36q6 -14 15 -30q18 -33 36 -68t40 -69t50 -64.5t65 -55.5z" glyph-name="R" horiz-adv-x="731" unicode="R"/>
<glyph d="M86 28q-11 14 -19.5 30t-14.5 35t1.5 29t19 12.5t24 -3.5t17.5 -20q3 -9 10.5 -22.5t15.5 -24.5q12 -18 29.5 -28.5t36 -13t37.5 2.5t34 19q24 22 26.5 51.5t-9.5 63.5t-34.5 69t-49.5 68q-18 23 -42 55t-42 72.5t-24.5 89.5t10.5 105q13 44 39 70t56.5 39.5t62 17 t57.5 3.5q27 0 46.5 -4t33 -10.5t23 -15t17.5 -17.5q15 -19 18.5 -32t5.5 -32q1 -13 -9.5 -20.5t-23.5 -9t-24 4t-11 17.5q0 19 -6 31t-14.5 19.5t-18.5 10t-18 2.5q-29 -2 -49.5 -23t-28.5 -60q-9 -41 3.5 -81t33.5 -76t44.5 -65t37.5 -47q24 -30 45 -64t32.5 -71 t8.5 -75.5t-28 -77.5q-32 -50 -82 -72t-103 -22t-100.5 18.5t-73.5 51.5z" glyph-name="S" horiz-adv-x="524" unicode="S"/>
<glyph d="M550 742q12 -2 19 -8.5t5.5 -14t-12.5 -14.5t-33 -10q-29 -5 -55 -8t-64 -5q10 -32 12.5 -72t-2.5 -105q-1 -21 -2 -54.5t-1 -72.5v-81t0.5 -79.5t0.5 -68.5v-48q0 -53 -14 -77t-30 -36q-15 -13 -41 -22t-64 -11q-29 -1 -41 31.5t-14.5 81t0.5 104.5t4 102q1 41 5.5 97 t10.5 113t12.5 109.5t10.5 87.5q-41 1 -69 3t-48.5 4.5t-36.5 5t-33 5.5q-14 2 -21.5 9.5t-8 15.5t7.5 15t26 8h66t74 0.5t76.5 0.5h73.5h69.5t51 -1t37.5 -2t28 -3z" glyph-name="T" horiz-adv-x="615" unicode="T"/>
<glyph d="M373 -24q-42 0 -90.5 11.5t-92 44t-75.5 90.5t-39 152q-4 46 -5 106.5t-1 121.5t2 115.5t4 89.5q2 23 23 31t44 6q22 -2 47.5 -15.5t37.5 -46.5q12 -32 17.5 -72t5.5 -105q-1 -131 9.5 -222t31 -148t50.5 -82t69 -23q39 0 66.5 32t44.5 80.5t25 105.5t9 108q2 84 -2 166 t-6 166q-2 31 13 40t33 4q19 -5 27 -11.5t14 -21.5q5 -14 7.5 -36.5t3.5 -51t1 -60.5v-63q-1 -34 -1.5 -67.5t-2.5 -67.5q-2 -37 -8 -79.5t-18 -84.5t-31.5 -80t-48.5 -67.5t-69.5 -47.5t-94.5 -18z" glyph-name="U" horiz-adv-x="717" unicode="U"/>
<glyph d="M617 732q17 -6 23 -12t6 -21q0 -14 -6 -36.5t-15 -51t-20.5 -60.5t-23.5 -63q-8 -22 -19.5 -54.5t-24 -70t-25.5 -77t-25 -75.5t-21.5 -66t-14.5 -47q-6 -20 -13.5 -43t-16.5 -42q-2 -8 -6 -14t-8 -11q-11 -13 -33.5 -22t-60.5 -11q-19 -1 -35.5 14t-31.5 40.5t-28 58.5 t-24.5 68.5t-22 71t-20.5 66.5q-10 30 -20.5 69t-21.5 81t-21 84.5t-19 80.5t-16 68.5t-12 49.5q-3 12 1.5 19.5t13 12t19.5 5.5t23 0q23 -2 52 -15.5t50 -46.5q21 -32 37.5 -72t34.5 -105q6 -22 17.5 -57t26 -75.5t29.5 -83.5t29 -81q3 11 6.5 20.5t6.5 19.5q15 45 39 109 t49 128.5t47 119.5t33 83q11 32 28 40.5t34 3.5z" glyph-name="V" horiz-adv-x="686" unicode="V"/>
<glyph d="M891 724q20 -7 20 -39q0 -33 -8 -87t-21 -118q-4 -23 -11.5 -56.5t-15.5 -71.5t-17 -78.5t-17 -77t-15 -66.5t-11 -47q-4 -16 -9.5 -33.5t-11.5 -34t-12.5 -30t-13.5 -21.5q-10 -10 -19 -11.5t-22 0.5q-8 0 -18 0.5t-22 1.5q-19 1 -34.5 16.5t-28.5 41t-23.5 58t-20 67.5 t-17.5 70t-16 66q-9 35 -16 69.5t-13 67.5q-16 -41 -33.5 -89.5t-33.5 -94t-29.5 -83.5t-21.5 -59q-6 -16 -13 -34.5t-15 -35t-17 -30t-19 -19.5q-17 -11 -34 -11.5t-36 0.5h-2h-11q-28 -1 -48 31.5t-34.5 81t-25.5 104.5t-21 102t-19.5 109t-18 125.5t-15.5 116.5t-11 82 q-2 12 3.5 19.5t14.5 12t20.5 5.5t22.5 0q22 -2 50 -15.5t46 -46.5q17 -32 29.5 -72t23.5 -105q4 -21 11.5 -55t17 -73t20 -81t19.5 -80l4 10l4 10q11 27 28 70t37 91.5t40.5 99t37.5 92.5l1 -3v3q-2 11 3 18.5t13.5 12t20 5.5t22.5 0q23 -2 51 -15.5t47 -45.5 q9 -16 16.5 -33.5t14 -39t13.5 -47.5t16 -57q12 -43 24.5 -83.5t24.5 -77.5q2 4 2 8q8 30 17.5 69t19.5 81.5t20 86.5t19 83t15.5 70.5t10.5 50.5q6 32 20 43.5t31 5.5z" glyph-name="W" horiz-adv-x="988" unicode="W"/>
<glyph d="M562 10q17 -2 24.5 -10t3.5 -17t-18.5 -16t-40.5 -7q-42 0 -83 17t-80 47t-75 71t-67 88q-37 -45 -69.5 -88.5t-55.5 -87.5q-6 -11 -17 -13.5t-20 2t-13 15t4 27.5q24 52 58.5 103.5t73.5 104.5q-44 78 -73.5 160.5t-38.5 152.5q-8 61 -9.5 97t5.5 55.5t25 26t49 8.5 q23 1 35.5 -2.5t19 -14.5t9.5 -31t7 -51q9 -66 29 -133t46 -131q56 75 100.5 149t61.5 149q3 15 14 22.5t23 6t21.5 -12t9.5 -30.5q0 -44 -15.5 -89t-42.5 -90.5t-62 -91.5t-74 -92q30 -61 63 -114t64.5 -92t59.5 -62.5t48 -25.5z" glyph-name="X" horiz-adv-x="621" unicode="X"/>
<glyph d="M568 703q7 -19 12 -55t8.5 -78.5t5 -88t1.5 -82.5q0 -91 -10 -158.5t-27.5 -116t-39.5 -80t-46.5 -50t-49 -27t-46.5 -11.5q-93 -11 -147.5 7t-85.5 71q-10 16 -4.5 25.5t17.5 13t25 2.5t18 -6t12 -14t17 -18t24 -17t32 -10q24 -3 46.5 11t40 50t29 96.5t14.5 149.5 q1 23 1 46.5t1 48.5q-11 -45 -25 -82.5t-34.5 -64t-47.5 -41.5t-63 -15q-51 0 -87 12.5t-59 32.5t-34 46t-14 54q-3 31 -1.5 82t6 104.5t11.5 101.5t16 72q7 20 20.5 31.5t30 17.5t32.5 6.5t28 -2.5q10 -3 18 -6.5t12.5 -12t6 -23t-2.5 -38.5q-3 -16 -7.5 -53.5t-8.5 -84 t-5.5 -97t3 -92t16 -68t34.5 -26.5q25 0 48 30t43.5 79t36.5 112t27 129q-2 72 0 112q1 23 22.5 30.5t44.5 5.5q22 -2 47.5 -15.5t37.5 -45.5z" glyph-name="Y" horiz-adv-x="687" unicode="Y"/>
<glyph d="M504 58q7 -1 13 -7.5t6 -14t-9 -15t-31 -10.5q-21 -3 -37.5 -5t-34.5 -4.5t-39 -5t-51 -5.5q-46 -5 -86 -9.5t-73 -5.5t-57.5 4t-38.5 20q-25 25 -25.5 55t13 65.5t37 76t47.5 87.5q24 40 55 94t62.5 109.5t60 105.5t47.5 83q-17 -2 -38 -4t-50 -5q-46 -5 -73 -9.5 t-45.5 -7t-33 -3t-34.5 2.5q-14 2 -18.5 16t-1 30.5t14.5 30t30 14.5q30 0 58.5 -0.5t53 -0.5h44.5h32q53 0 88.5 -1.5t59.5 -4.5h10q10 -1 21 -4.5t19 -11t12 -19t2 -27.5q-5 -32 -21 -72t-50 -105q-11 -22 -27 -53.5t-34.5 -68.5t-37 -76t-35.5 -74.5t-30 -65t-20 -46.5 q-6 -14 -10.5 -22.5t-5.5 -14t2 -7.5t13 -2h26t26.5 -0.5t23 -0.5h14.5q57 1 94 -1t62 -5z" glyph-name="Z" horiz-adv-x="563" unicode="Z"/>
<glyph d="M174 -60q-43 -2 -61 29t-25 87q-4 26 -6.5 95.5t-0.5 164.5q2 59 5.5 110t8 96t10.5 87t12 83q4 23 16.5 30.5t24.5 7.5h13t16 -2q43 0 73.5 -2t52.5 -4q7 -1 12.5 -7.5t5.5 -14t-8.5 -15t-30.5 -10.5q-11 -2 -23.5 0.5t-24 2t-19.5 -8.5t-9 -29q-1 -17 -3 -50t-4 -74 t-3.5 -85t-1.5 -82l3 -327q0 -18 7.5 -24.5t18 -7t21 1.5t18.5 1q22 -3 31 -10.5t9 -15t-6 -13.5t-13 -7q-26 -4 -59 -4.5t-60 -2.5z" glyph-name="bracketleft" horiz-adv-x="351" unicode="["/>
<glyph d="M258 -60q-8 4 -15.5 16t-14.5 27t-12.5 32t-10.5 32q-8 25 -23.5 71t-32.5 97t-33 99.5t-25 80.5q-20 69 -40 119t-33 89q-5 15 -7.5 29t1.5 20t11.5 8t16 -1t17 -11t14.5 -23q7 -17 17.5 -47t23.5 -66.5t27.5 -77.5t28 -81.5t26 -77.5t22.5 -65q13 -40 29.5 -85 t29.5 -84t19.5 -67t1.5 -34q-5 -5 -15 -6.5t-23 6.5z" glyph-name="backslash" horiz-adv-x="308" unicode="\"/>
<glyph d="M148 -60q-28 2 -61 2.5t-58 4.5q-7 1 -13 7t-6 13.5t8.5 15t31.5 10.5q7 1 18 -1t21 -1.5t17.5 7t7.5 24.5q1 33 1.5 74t1 84.5t0.5 87v81.5t1.5 82t3.5 85t3.5 74t0.5 50q-1 21 -9 29t-19.5 8.5t-24.5 -2t-23 -0.5q-23 3 -31.5 10.5t-8.5 15t6 14t13 7.5q22 2 52.5 4 t73.5 2q8 2 16 2h13q12 0 25.5 -7.5t14.5 -30.5q1 -51 3 -90t3 -78t1 -82.5t-1 -102.5q-1 -51 -1.5 -91.5t-1 -72.5t-1.5 -58.5t-2 -50.5q-2 -28 -6.5 -51.5t-13 -40t-22 -26t-34.5 -8.5z" glyph-name="bracketright" horiz-adv-x="271" unicode="]"/>
<glyph d="M407 150q-9 -5 -16 -8t-16 0t-20.5 13.5t-28.5 32.5t-34.5 54.5t-32.5 65t-25.5 58t-14.5 32.5q-8 14 -21 12.5t-26 -21.5q-4 -6 -12 -21.5t-18.5 -36t-21 -43t-21 -44t-18.5 -39t-12 -26.5t-14 -12t-18.5 0t-12.5 11.5t5 22.5q7 13 20 39t28 58t31 66t29.5 63t22.5 50 t11 26q3 8 14 17.5t25.5 14.5t29.5 2t25 -19q6 -11 19.5 -35t29.5 -55t33.5 -64.5t33 -63t27 -52.5l15.5 -31q13 -26 7 -41.5t-23 -25.5z" glyph-name="asciicircum" horiz-adv-x="455" unicode="^"/>
<glyph d="M310 -122q-71 0 -114.5 0.5t-71 2t-46 4t-38.5 5.5q-14 2 -21.5 9.5t-8 15.5t7.5 15t26 8q60 0 131.5 0.5t148.5 0.5h69.5t51 -1t37.5 -2t28 -3t19 -8.5t5.5 -14t-12.5 -14.5t-33 -10q-21 -3 -37.5 -4.5t-36 -2.5t-44.5 -1h-61z" glyph-name="underscore" horiz-adv-x="545" unicode="_"/>
<glyph d="M332 556q-11 -10 -22.5 -16t-26 -0.5t-34 26.5t-46.5 66q-12 20 -9.5 34t20.5 27q17 12 37 11t37 -32q30 -57 42 -81.5t2 -34.5z" glyph-name="grave" unicode="`"/>
<glyph d="M639 323q9 -6 4 -20q-20 -67 -41.5 -122t-45.5 -94.5t-51 -62.5t-58 -26q-38 -3 -64 5t-43.5 24.5t-27 40.5t-13.5 51q-12 -23 -28 -43t-34 -35t-37.5 -24t-38.5 -9q-28 0 -57.5 7.5t-55 25.5t-43.5 47.5t-22 74.5q-6 64 17.5 119t66 95t98 62.5t113.5 22.5 q29 0 57.5 -5.5t55.5 -23.5q37 -25 21 -52q-5 -9 -17 -11.5t-22 5.5q-6 5 -11.5 9t-17.5 9q-38 15 -78 2t-71.5 -44t-51 -74.5t-16.5 -91.5q2 -51 22.5 -77t46.5 -26q17 0 33.5 12.5t30.5 33.5t25 48.5t18 56.5q2 15 4.5 28t4.5 24q6 28 15.5 42.5t21.5 19t26.5 1.5 t31.5 -11q24 -12 31.5 -28t2.5 -52q-3 -24 -6.5 -58.5t-2.5 -66.5t7.5 -54.5t23.5 -22.5q16 0 34.5 22.5t37 59t36.5 83.5t33 96q5 13 16 13t19 -6z" glyph-name="a" horiz-adv-x="587" unicode="a"/>
<glyph d="M457 304q9 -53 1 -96.5t-24.5 -77.5t-39.5 -59t-45.5 -41.5t-41 -25t-26.5 -9.5q-18 -2 -29 1t-25 14q-7 6 -13.5 13.5t-9.5 16.5t-0.5 18t13.5 17q43 28 67.5 83t22.5 124q-1 51 -13.5 79.5t-30.5 28.5q-16 0 -32 -11t-29.5 -29.5t-24 -43t-15.5 -50.5q1 -50 1 -98.5 t-2 -97.5q-2 -26 -22.5 -43t-58.5 -17q-29 0 -47 11t-22 38q-2 13 -3.5 39t-3 61t-1.5 78.5t2 91.5q3 97 12.5 179.5t23.5 165.5q1 11 8.5 18t17 11t19 5.5t15.5 1.5t15.5 -0.5t18.5 -2.5t16 -7.5t8 -14.5q1 -11 1.5 -44t0.5 -76.5v-90.5v-86q26 37 58 62t67 25 q27 0 55 -8.5t51.5 -27.5t40.5 -49.5t24 -75.5z" glyph-name="b" horiz-adv-x="533" unicode="b"/>
<glyph d="M185 -2q-35 0 -70 8t-63.5 29t-46 58t-17.5 94q0 73 18.5 123.5t43 82t49.5 46.5t38 17q14 2 25 3t34 0q53 -2 79 -11t43 -27q17 -19 19.5 -40.5t-2.5 -41.5q-3 -12 -11 -17t-16 -3.5t-13 9t-3 18.5q4 19 0 34.5t-25 23.5q-28 11 -60 -24q-12 -12 -23.5 -29.5t-20.5 -41 t-15 -53t-6 -66.5q0 -59 15.5 -94t61.5 -37q30 -1 68 20.5t74.5 58t67 83t45.5 95.5q3 13 15 13q11 0 20 -6q8 -7 3 -20q-20 -67 -56 -123t-80.5 -96t-94 -62.5t-96.5 -23.5z" glyph-name="c" horiz-adv-x="456" unicode="c"/>
<glyph d="M655 323q8 -7 3 -20q-20 -67 -41.5 -122t-45.5 -94.5t-51 -62.5t-58 -26q-38 -3 -65.5 4t-46 23.5t-28.5 41t-14 55.5l-3 21q-17 -26 -37.5 -50.5t-44 -43.5t-49.5 -30t-53 -11q-21 0 -45 8.5t-44.5 28.5t-33.5 53.5t-13 83.5t13.5 89.5t34.5 69.5t47 51.5t51 35 t45.5 19.5t31.5 6q13 0 25 -7.5t20 -15.5q6 -6 11 -14t6.5 -17t-2 -18t-15.5 -17q-20 -13 -38 -27t-33 -33t-26 -46.5t-17 -67.5q-8 -51 0 -79.5t31 -28.5q15 0 32 12t35 31.5t34.5 45t29.5 53.5q-1 21 -0.5 44.5t1.5 50.5q3 97 16 184.5t30 160.5q2 11 9.5 18t17 11t19 5.5 t15.5 1.5t15.5 -0.5t18.5 -2.5t16 -7.5t8 -14.5q1 -12 1 -50t-0.5 -87.5t-2.5 -103.5t-4 -99q-1 -24 -2.5 -54t-2.5 -61t-1 -61t2.5 -53t7 -37t12.5 -14q16 0 35 22.5t37.5 59t37 83.5t33.5 96q3 13 15 13q11 0 20 -6z" glyph-name="d" horiz-adv-x="602" unicode="d"/>
<glyph d="M509 323q8 -7 3 -20q-20 -67 -56 -123t-80.5 -96t-94 -62.5t-96.5 -23.5q-35 0 -69.5 8t-62.5 29t-45 58t-17 94q0 73 22 124.5t53.5 85t66 50.5t59.5 20q35 5 56 -2.5t42 -24.5q12 -9 22.5 -25t16 -35.5t3 -41t-17.5 -41.5q-32 -48 -77 -80.5t-98 -56.5 q-1 -20 1.5 -38.5t11.5 -32t25 -22t42 -8.5q30 0 64.5 14.5t69 45.5t66 79.5t55.5 117.5q3 13 15 13q11 0 20 -6zM216 349q-19 -22 -38 -55t-30 -73q15 8 32.5 21t33.5 27t29 28.5t19 26.5q7 13 4.5 23t-10 14.5t-19 2t-21.5 -14.5z" glyph-name="e" horiz-adv-x="456" unicode="e"/>
<glyph d="M270 510q12 -2 19 -8t5.5 -13.5t-12.5 -14.5t-33 -10q-15 -3 -26 -4.5t-20.5 -2.5t-19 -1.5t-21.5 -0.5q0 -23 -0.5 -49.5t0.5 -54.5q0 -38 3 -73.5t6.5 -71.5t6.5 -72t3 -74t-5.5 -78t-16 -76.5t-26 -65.5t-34.5 -44q-12 -9 -25.5 -15t-26 -9t-22 -3t-11.5 3 q-5 6 2 18.5t12 32.5q5 22 6.5 50t1.5 58t-1.5 60.5t-3.5 57.5q-2 30 -4.5 58t-5.5 59t-5.5 68t-3.5 85q-1 81 3 139q-16 2 -31 4t-34 5q-14 2 -22 9.5t-8.5 15.5t7.5 15t26 8h36t34 1q7 36 17 64t24 52q7 12 20 25.5t31 25t41 19t50 7.5t38.5 -4.5t13 -11t-4.5 -13 t-14 -10.5q-46 -22 -64 -90q-4 -12 -5.5 -28t-3.5 -36q39 0 61 -1.5t43 -4.5z" glyph-name="f" horiz-adv-x="302" unicode="f"/>
<glyph d="M645 323q8 -7 3 -20q-20 -64 -44 -120t-51.5 -100.5t-56.5 -75.5t-59 -45q-2 -72 -11 -136.5t-38 -120.5q-24 -46 -56 -74.5t-67 -43.5t-70.5 -18t-67 2.5t-57 18t-39.5 27.5q-22 24 -31.5 57t-6 69t20.5 71t48 63q50 43 110 63.5t124 36.5q1 31 1 63t1 67v25 q-17 -25 -37 -47.5t-42.5 -39.5t-47 -27t-50.5 -10q-21 0 -45 8.5t-44.5 28.5t-33.5 53.5t-13 83.5t13.5 89.5t34.5 69.5t47 51.5t51 35t45.5 19.5t31.5 6q13 0 25 -7.5t20 -15.5q6 -6 11 -14t6.5 -17t-2 -18t-15.5 -17q-20 -13 -38 -27t-33 -33t-26 -46.5t-17 -67.5 q-8 -51 0 -79.5t31 -28.5q15 0 33 13t36.5 34t35.5 48.5t30 56.5q3 33 7 67t9 65q3 21 12 33.5t21 19t25 8t25 -0.5q10 -2 18.5 -4.5t13.5 -10t7.5 -22t1.5 -39.5q-1 -26 -2.5 -48.5t-3 -50t-2.5 -65t-1 -92.5q0 -18 0.5 -36t0.5 -35q25 18 50.5 49.5t48 71t41.5 84t33 88.5 q3 13 15 13q11 0 20 -6zM74 -338q20 -18 45 -22.5t50.5 4t49 29.5t40.5 55q19 36 26.5 85t9.5 109q-58 -13 -110 -28.5t-88 -50.5q-20 -20 -32 -45.5t-15.5 -51t2.5 -48t22 -36.5z" glyph-name="g" horiz-adv-x="592" unicode="g"/>
<glyph d="M655 319q8 -7 3 -20q-20 -67 -41.5 -122t-45.5 -94.5t-51 -62.5t-58 -26q-38 -3 -65 5t-44.5 25.5t-26.5 41.5t-12 52q-6 62 4.5 121.5t22.5 125.5q4 20 -7.5 22.5t-29.5 -20.5q-20 -26 -40 -62.5t-39 -79t-35.5 -88.5t-30.5 -90q-6 -20 -26 -33.5t-53 -13.5 q-29 0 -47 11t-22 38q-2 13 -3.5 39t-3 61t-1.5 78.5t2 91.5q3 97 12.5 179.5t23.5 165.5q1 11 8.5 18t17 11t19 5.5t15.5 1.5t15.5 -0.5t18.5 -2.5t16 -7.5t8 -14.5q1 -12 1.5 -50t0.5 -86.5t0.5 -99.5t0.5 -88v-160q15 41 34 84t42.5 79t50.5 59.5t57 25.5q38 3 66.5 -23 t32.5 -75q2 -23 2 -53.5v-62.5t0.5 -63.5t3.5 -56t9.5 -39.5t17.5 -15q16 0 34.5 22.5t37 59t37 83.5t33.5 96q3 13 15 13q11 0 20 -6z" glyph-name="h" unicode="h"/>
<glyph d="M116 529q-59 7 -49 68q12 62 74 53q31 -4 42.5 -20t6.5 -48q-12 -60 -74 -53zM148 -2q-38 -3 -65 5t-44.5 25.5t-26.5 41.5t-12 52q-3 31 -1.5 64.5t6.5 66t12.5 63t16.5 54.5q9 28 18 42.5t18.5 19.5t22 1.5t29.5 -11.5q24 -11 31.5 -27t2.5 -52q-2 -16 -5.5 -43.5 t-6 -59.5t-4 -65t0 -59.5t7 -43.5t16.5 -17q16 0 34.5 22.5t37 59t37 83.5t33.5 96q3 13 15 13q11 0 20 -6q8 -7 3 -20q-20 -67 -41.5 -122t-45.5 -94.5t-51 -62.5t-58 -26z" glyph-name="i" horiz-adv-x="288" unicode="i"/>
<glyph d="M87 529q-59 7 -49 68q12 62 74 53q31 -4 42.5 -20t6.5 -48q-12 -60 -74 -53zM352 323q8 -7 3 -20q-20 -65 -44 -121t-51.5 -100.5t-57 -75.5t-59.5 -44q-1 -72 -10 -136.5t-38 -120.5q-24 -46 -56 -74.5t-67 -43.5t-70.5 -18t-67 2.5t-57 18t-39.5 27.5q-22 24 -31.5 57 t-6 69t20.5 71t48 63q24 22 52 37.5t57.5 26.5t61 19.5t63.5 16.5q1 31 1 63t1 67q0 19 1.5 49t4.5 65.5t7 73.5t10 71q3 21 12 33.5t21 19t25 8t25 -0.5q10 -2 18.5 -4.5t13.5 -10t7.5 -22t1.5 -39.5q-1 -26 -2.5 -48.5t-3 -50t-2.5 -65t-1 -92.5v-72q26 18 51 49.5t48 71 t42 84.5t33 89q3 13 15 13q11 0 20 -6zM-219 -338q20 -18 45 -22.5t50.5 4t49 29.5t40.5 55q19 36 26.5 85t9.5 109q-58 -13 -110 -28.5t-88 -50.5q-20 -20 -32 -45.5t-15.5 -51t2.5 -48t22 -36.5z" glyph-name="j" horiz-adv-x="299" unicode="j"/>
<glyph d="M545 323q8 -7 3 -20q-20 -67 -41.5 -123t-45.5 -96.5t-51 -63t-58 -22.5q-38 0 -66.5 13.5t-50.5 37.5t-39.5 56.5t-33.5 70.5v-58t-1 -58q-2 -26 -22.5 -43t-58.5 -17q-29 0 -47 11t-22 38q-2 13 -3.5 39t-3 61t-1.5 78.5t2 91.5q3 97 12.5 179.5t23.5 165.5 q1 11 8.5 18t17 11t19 5.5t15.5 1.5t15.5 -0.5t18.5 -2.5t16 -7.5t8 -14.5q1 -12 1.5 -50t0.5 -86.5t0.5 -99.5t0.5 -88v-33q9 19 20.5 38.5t26 36t31.5 28t37 16.5q35 8 58 -1.5t34 -26.5q17 -25 9.5 -60t-36.5 -67q-30 -33 -80 -56q11 -39 24.5 -71t27.5 -54t28 -34 t26 -12q16 0 34.5 22.5t37 59t37 83.5t33.5 96q3 13 15 13q11 0 20 -6zM284 397q-17 -6 -33.5 -22t-32 -37.5t-30 -47t-26.5 -49.5q31 6 56 19t43 27.5t29 27.5t14 18q6 10 11 24t4.5 25t-8.5 16t-27 -1z" glyph-name="k" horiz-adv-x="492" unicode="k"/>
<glyph d="M205 -2q-77 -7 -119.5 23t-64.5 101q-14 47 -16 92t0 105q3 97 15.5 184.5t29.5 160.5q2 11 10 18t17.5 11t19 5.5t15.5 1.5t17.5 -0.5t23 -2.5t20.5 -7.5t10 -14.5q1 -12 -1 -50t-5 -87.5t-7 -103.5t-6 -99q-1 -24 -2 -54t-0.5 -61t3 -61t9 -53t17.5 -37t28 -14t36 22.5 t37.5 59t36.5 83.5t33 96q5 13 16 13t19 -6q7 -6 4 -20q-20 -67 -41.5 -122t-45.5 -94.5t-51 -62.5t-58 -26z" glyph-name="l" horiz-adv-x="344" unicode="l"/>
<glyph d="M930 323q7 -6 4 -20q-20 -67 -41.5 -122t-45.5 -94.5t-51 -62.5t-58 -26q-38 -3 -65 5t-44.5 25.5t-26.5 41.5t-12 52q-6 62 4.5 121.5t22.5 125.5q4 20 -7.5 22.5t-29.5 -20.5q-20 -25 -40 -61.5t-38.5 -78.5t-35.5 -87.5t-30 -89.5q-2 -25 -18.5 -39.5t-53.5 -14.5 q-29 0 -49 11t-20 38q0 36 2.5 77t6.5 84t8 86.5t7 82.5q2 20 -9 23t-28 -21q-20 -30 -37 -70.5t-32 -86t-29 -93.5t-28 -92v1q-8 -18 -27 -29t-49 -11q-29 0 -47 11t-22 38q-2 13 -3 40.5t-1.5 61t1 69t4.5 64.5t7 56t8.5 50t9 41t9.5 28t14 16t18.5 9.5t19 4.5t15.5 1 t15.5 -1t18.5 -4t15.5 -8.5t6.5 -14.5q0 -12 0.5 -31t1 -40.5t0.5 -43.5t-1 -41q-1 -17 -2 -43t-2 -57q13 42 28.5 85t35 78t42.5 58.5t52 25.5q19 1 38.5 -2.5t36 -14t27.5 -27.5t11 -41q0 -42 0.5 -86t0.5 -89q15 41 34 84.5t42 79.5t50 60t58 26q38 3 66.5 -23t32.5 -75 q2 -23 2 -53.5v-62.5t0.5 -63.5t3.5 -56t9.5 -39.5t17.5 -15q16 0 34.5 22.5t37 59t36.5 83.5t33 96q5 13 16 13t19 -6z" glyph-name="m" horiz-adv-x="878" unicode="m"/>
<glyph d="M653 313q8 -7 3 -20q-20 -67 -41.5 -122t-45.5 -94.5t-51 -62.5t-58 -26q-38 -3 -65 5t-44.5 25.5t-26.5 41.5t-12 52q-6 62 4.5 121.5t22.5 125.5q4 20 -7.5 22.5t-29.5 -20.5q-20 -25 -39.5 -60.5t-38 -77t-35 -87t-30.5 -88.5q-1 -2 -1 -3.5t-1 -3.5q-1 -1 -1 -2 q-8 -17 -27 -28t-49 -11q-29 0 -47 11t-22 38q-2 13 -3 40.5t-1.5 61t1 69t4.5 64.5t7 56t8.5 50t9 41t9.5 28t14 16t18.5 9.5t19 4.5t15.5 1t15.5 -1t18.5 -4t15.5 -8.5t6.5 -14.5q0 -12 0.5 -31t1 -40.5t0.5 -43.5t-1 -41l-5 -107q15 40 34 81t41.5 74t48.5 55t55 24 q38 3 66.5 -23t32.5 -75q2 -23 2 -53.5v-62.5t0.5 -63.5t3.5 -56t9.5 -39.5t17.5 -15q16 0 34.5 22.5t37 59t37 83.5t33.5 96q3 13 15 13q11 0 20 -6z" glyph-name="n" unicode="n"/>
<glyph d="M560 323q8 -7 3 -20q-20 -67 -46 -110t-52 -68t-51 -35.5t-43 -12.5q-14 -2 -27 -1t-25 4q-26 -42 -59.5 -69t-71.5 -26q-33 1 -67 13.5t-62.5 36.5t-47 61t-19.5 87q-2 55 11 100.5t32.5 79t41 54.5t37.5 28t28 6.5t28 -8.5t27 -23t-2 -38q-22 -35 -38 -81t-20 -111 q-2 -28 1.5 -56.5t11 -51t19.5 -37.5t28 -16q23 -2 44.5 17.5t39.5 49.5q-36 21 -61 59t-33 86q-4 26 -2.5 52.5t9.5 49.5t23 39.5t38 23.5q21 6 40.5 -0.5t35 -21.5t26 -38.5t14.5 -51.5q5 -39 -4 -86t-29 -91q18 -5 36 -2q34 5 77 54t74 147q3 13 15 13q11 0 20 -6z M231 254q6 -41 24.5 -72t44.5 -49q16 38 23.5 79t2.5 73q-6 39 -21 63t-41 16q-11 -4 -18.5 -14.5t-11.5 -25.5t-5 -33t2 -37z" glyph-name="o" horiz-adv-x="507" unicode="o"/>
<glyph d="M605 323q8 -7 3 -20q-20 -67 -54 -123.5t-77 -98t-92.5 -64t-100.5 -22.5q-18 -2 -29 1t-25 14q-7 6 -13.5 13.5t-9.5 16.5t-0.5 18t13.5 17q43 28 67.5 83t22.5 124q-1 51 -13.5 79.5t-30.5 28.5t-35.5 -13.5t-32 -36t-24.5 -50.5t-13 -58v-81t1 -67q0 -37 0.5 -94 t0.5 -117.5t-0.5 -117t-1.5 -92.5q-2 -26 -22.5 -43t-58.5 -17q-29 0 -47 11t-22 38q-2 13 -3.5 41t-3 75.5t-1.5 117t2 166.5t12 199.5t24 186.5q1 11 8.5 18t17 10.5t19 5t15.5 1.5t15.5 -0.5t18.5 -2.5t16 -7t8 -14q1 -8 1.5 -28t0.5 -48q26 38 59.5 65t68.5 27 q27 0 55 -8.5t51.5 -27.5t40.5 -49.5t24 -75.5q11 -73 -5.5 -126.5t-45.5 -91.5q30 19 55 45t45 56t35 63t26 66q3 13 15 13q11 0 20 -6z" glyph-name="p" horiz-adv-x="552" unicode="p"/>
<glyph d="M615 323q8 -7 3 -20q-14 -45 -26.5 -82t-27.5 -67.5t-33 -56.5t-41 -49q-13 -13 -22 -19.5t-14.5 -10.5t-8.5 -5.5t-3 -3.5q-1 -4 1.5 -8t5.5 -11q12 -24 25.5 -64.5t10.5 -98.5q-2 -40 -15.5 -80.5t-34.5 -72.5t-49 -52t-60 -19t-51 17.5t-30.5 39.5t-16.5 48.5t-8 45.5 q-6 41 -2.5 117.5t17.5 181.5q0 2 0.5 3t0.5 3q-26 -23 -55 -37t-60 -14q-21 0 -45 8.5t-44.5 28.5t-33.5 53.5t-13 83.5t13.5 89.5t34.5 69.5t47 51.5t51 35t45.5 19.5t31.5 6q13 0 25 -7.5t20 -15.5q6 -6 11 -14t6.5 -17t-2 -18t-15.5 -17q-20 -13 -38 -27t-33 -33 t-26 -46.5t-17 -67.5q-8 -51 0 -79.5t31 -28.5q17 0 38 16t42 42q12 62 27.5 115t31.5 115q3 11 10.5 18t17 11t18.5 5.5t15 1.5t15.5 -0.5t18.5 -3t15.5 -7.5t7.5 -14q1 -12 -2 -48.5t-8.5 -83t-12 -95.5t-10.5 -86q-1 -7 -1.5 -14.5t-2.5 -16.5q12 5 29.5 14t40.5 33 q23 25 56 79.5t64 152.5q3 13 15 13q11 0 20 -6zM433 -181q1 12 0.5 27.5t-3 31.5t-6 31.5t-7.5 27.5q-6 16 -14 32t-19 28q-4 -30 -8.5 -63.5t-6.5 -68t-1.5 -68.5t5.5 -64q5 -29 14 -30.5t18 14.5t17 44t11 58z" glyph-name="q" horiz-adv-x="562" unicode="q"/>
<glyph d="M515 323q9 -6 4 -20q-20 -67 -41.5 -122t-45.5 -94.5t-51 -62.5t-58 -26q-38 -3 -65 5t-44.5 25.5t-26.5 41.5t-12 52q-6 59 4 123t26 113q2 8 4 15t4 10q7 14 -5.5 16t-40.5 2h-37.5t-46.5 1q-5 -22 -12 -46.5l-15 -52.5q-3 -9 -10 -11t-14 1t-12 9t-3 13q15 51 28 90 q-10 1 -18 2t-15 3q-15 3 -30 10t-27 17t-19.5 23.5t-6.5 30.5q1 24 13 39.5t31.5 23.5t44.5 8.5t53 -6.5q16 -4 23.5 -11.5t10 -17.5t1.5 -21.5t-3 -23.5l-10 -45q20 -2 40.5 -1.5t35.5 1.5q31 3 55.5 7t41.5 5t33.5 -3.5t25.5 -18.5q11 -15 11 -29t-2 -31l-1 -1 q0 -5 -0.5 -10.5t-1.5 -12.5q-2 -16 -5.5 -43.5t-6 -59.5t-4 -65t0 -59.5t7 -43.5t16.5 -17q16 0 34.5 22.5t37 59t36.5 83.5t33 96q5 13 16 13t19 -6zM53 442q2 0 2 -1q8 28 12 52q4 20 4.5 28t-7.5 11q-8 2 -17.5 -5t-15.5 -31q-5 -25 -0.5 -37t22.5 -17z" glyph-name="r" horiz-adv-x="463" unicode="r"/>
<glyph d="M504 323q8 -7 3 -20q-19 -63 -59.5 -111t-98.5 -79q11 -39 5 -81.5t-41 -89.5q-28 -38 -70.5 -61t-87.5 -29t-85 6.5t-63 45.5q-19 28 -19 56t11.5 52.5t31 43.5t39.5 29q20 11 45 16t51 9q-15 32 -37 61q-19 23 -41 45t-39.5 46t-26 52t-0.5 63q9 39 32 61.5t52.5 33.5 t61.5 12.5t59 -1.5t39.5 -6t15 -7t-3 -8t-13.5 -8q-8 -5 -22.5 -10.5t-28.5 -15.5t-24.5 -24.5t-10.5 -35.5q0 -23 13.5 -43.5t33 -40t41 -40t37.5 -42.5q8 -12 15.5 -24t13.5 -25q56 30 89 73t47 90q3 13 15 13q11 0 20 -6zM159 -52q21 24 25 56.5t-5 66.5 q-26 -4 -51.5 -11t-49.5 -21q-13 -8 -23 -21t-14.5 -28t-3.5 -30t11 -26q11 -13 26 -16.5t30.5 -0.5t30 11.5t24.5 19.5z" glyph-name="s" horiz-adv-x="451" unicode="s"/>
<glyph d="M434 323q8 -7 3 -20q-20 -67 -41.5 -122t-45.5 -94.5t-51 -62.5t-58 -26q-69 -6 -113.5 16t-70 65.5t-33.5 106t-2 137.5q6 69 18 133q-20 2 -38.5 4.5t-41.5 5.5q-14 2 -21.5 10t-8 16t7.5 15t26 8h88q10 44 20 84t20 75q3 11 10.5 18t17.5 10.5t19.5 4.5t15.5 1 t15.5 -1t18.5 -4t15.5 -8.5t7.5 -14.5q1 -14 -4.5 -59.5t-11.5 -105.5q52 0 84 -6q12 -2 19 -8t5.5 -13.5t-12.5 -14.5t-33 -10q-38 -6 -69 -7q-2 -32 -4.5 -63t-3.5 -60q-2 -36 -2.5 -84t4.5 -91t19 -73t43 -30q21 0 42 22.5t40.5 59t37.5 83.5t33 96q3 13 15 13 q11 0 20 -6z" glyph-name="t" horiz-adv-x="381" unicode="t"/>
<glyph d="M613 328q7 -6 4 -19q-20 -68 -41.5 -123t-45.5 -94.5t-51 -62t-58 -25.5q-38 -3 -64.5 4.5t-44 24t-27 39.5t-12.5 50q-27 -52 -57.5 -82t-67.5 -33q-38 -4 -65 4.5t-44.5 25.5t-26.5 41t-12 52q-3 31 -1 64.5t7 66.5t12.5 63t15.5 54q10 28 18.5 42.5t18.5 19.5t22 2 t29 -11q25 -12 32.5 -28t2.5 -52q-2 -16 -5.5 -43.5t-6.5 -59.5t-4.5 -65t0 -59.5t7 -43.5t16.5 -17q12 0 26 13t28 36t28 53.5t28 65.5q5 41 13.5 78.5t18.5 66.5q10 28 18.5 42.5t18.5 19.5t22 1.5t29 -11.5q25 -12 32.5 -28t2.5 -52q-2 -16 -5.5 -43.5t-6.5 -59.5 t-4.5 -65t0 -59.5t7 -43.5t16.5 -17q16 0 34.5 22.5t37.5 59t37 83.5t33 96q5 13 16 13q10 1 19 -6z" glyph-name="u" horiz-adv-x="560" unicode="u"/>
<glyph d="M584 323q7 -6 4 -20q-17 -56 -41 -90.5t-49.5 -53.5t-50 -25.5t-42.5 -6.5q-33 0 -60 10q-21 -54 -50 -89t-64 -43q-23 -5 -45 -3.5t-43.5 11.5t-41 31t-36.5 56q-14 28 -25.5 63.5t-20 72.5t-14 71.5t-5.5 60.5q-1 42 15 59t50 20q10 1 19.5 0.5t17.5 -6.5t14 -19.5 t9 -37.5q6 -51 19.5 -108t30.5 -104.5t36 -78.5t36 -31t34 25.5t32 64.5q-35 21 -59.5 56.5t-31.5 82.5q-4 26 -2.5 52.5t9.5 49.5t23 39.5t38 23.5q21 6 40 0.5t32.5 -21.5t20.5 -42.5t4 -62.5q-8 -85 -29 -155q23 -10 50 -10q16 0 36 9t39.5 28t36.5 47.5t29 66.5 q5 13 16 13t19 -6zM266 304q5 -38 21 -66t39 -45q9 32 15.5 66t8.5 66q5 58 -10 77.5t-41 11.5q-11 -4 -18.5 -14.5t-12 -25.5t-5 -33t2.5 -37z" glyph-name="v" horiz-adv-x="531" unicode="v"/>
<glyph d="M814 323q7 -6 4 -20q-17 -56 -40.5 -90.5t-49 -53.5t-50 -25.5t-42.5 -6.5q-34 0 -61 10q-21 -54 -49.5 -89t-63.5 -43q-23 -5 -46.5 -4t-45.5 11t-41 31t-33 57q-9 24 -15 48q-29 -60 -61.5 -94t-71.5 -37q-38 -4 -65 4.5t-44.5 25.5t-26.5 41t-12 52q-3 31 -1 64.5 t7 66.5t12.5 63t15.5 54q10 28 18.5 42.5t18.5 19.5t22 2t29 -11q25 -12 32.5 -28t2.5 -52q-2 -16 -5.5 -43.5t-6.5 -59.5t-4.5 -65t0 -59.5t7 -43.5t16.5 -17q12 0 24.5 12t26 32.5t27 48t26.5 59.5q-3 34 -3 65q1 42 23 55.5t56 10.5q10 -1 18.5 -3t15 -9.5t10 -22 t3.5 -38.5q0 -35 7 -74t19 -71.5t27.5 -54t32.5 -21.5t34.5 25.5t31.5 64.5q-35 21 -59 56.5t-32 82.5q-4 26 -2.5 52.5t9.5 49.5t23 39.5t38 23.5q21 6 40 0.5t33 -21.5t21 -42.5t4 -62.5q-8 -85 -30 -155q12 -5 24.5 -7.5t26.5 -2.5q45 -2 81 36.5t59 114.5q5 13 16 13 t19 -6zM496 304q5 -38 21.5 -66t39.5 -45q9 32 15.5 66t8.5 66q4 58 -11 77.5t-41 11.5q-11 -4 -18.5 -14.5t-11.5 -25.5t-5 -33t2 -37z" glyph-name="w" horiz-adv-x="762" unicode="w"/>
<glyph d="M551 326q8 -6 4 -19q-21 -68 -42.5 -123t-45.5 -94.5t-51 -62t-58 -25.5q-61 -6 -103 12.5t-78 64.5q-31 -33 -58 -57t-45 -34q-12 -7 -19 2q-5 8 -5 16q1 6 4 9.5t8 6.5q16 10 40.5 33t52.5 53l-14 23q-32 54 -49.5 97.5t-28.5 97.5l-7 -23q-3 -9 -10 -11t-14 1t-12 9 t-3 13q11 35 18.5 57t17.5 34.5t24 18.5t39 9q18 2 28 -0.5t16.5 -9.5t11 -19t9.5 -28q13 -44 27 -86t31 -80q16 24 29 51t23.5 53.5t17 51.5t9.5 44q1 6 3 10t8 6q9 3 16 -1q11 -4 9 -17q-3 -23 -11.5 -53t-21 -62t-29.5 -63.5t-36 -57.5q26 -51 55 -83t63 -32 q16 0 34.5 22.5t37.5 59t37 83.5t33 96q3 13 15 13t20 -6z" glyph-name="x" horiz-adv-x="498" unicode="x"/>
<glyph d="M660 323q8 -7 3 -20q-20 -64 -44 -120t-51.5 -100.5t-56.5 -75.5t-59 -45q-1 -72 -10.5 -136.5t-38.5 -120.5q-24 -46 -56 -74.5t-67 -43.5t-70.5 -18t-67 2.5t-57 18t-39.5 27.5q-22 24 -31.5 57t-6 69t20.5 71t48 63q25 22 52.5 37.5t57.5 26.5t61 19.5t63 16.5 q1 31 1 63t1 67q0 10 0.5 23t1.5 28q-31 -72 -66 -114t-80 -46q-50 -3 -83 6.5t-53 27t-28.5 42t-9.5 52.5q-1 31 1 68.5t6.5 74.5t10.5 70.5t13 58.5q6 20 15.5 32.5t21 18.5t24 7.5t24.5 -0.5q10 -2 18.5 -5t14 -11.5t7.5 -23t-1 -38.5q-2 -16 -5 -46.5t-5 -66.5 t-2.5 -73.5t4 -68t14.5 -50t29 -18.5q16 0 34.5 22.5t37.5 59t37 83.5t33 96q1 2 1 3t1 2q2 12 3.5 23t3.5 22q3 21 12 33.5t21 19t25 8t25 -0.5q10 -2 18.5 -4.5t14 -10t8 -22t1.5 -39.5q-1 -26 -3 -48.5t-3.5 -50t-2.5 -65t-1 -92.5q0 -18 0.5 -36t0.5 -36q25 18 50.5 50 t48 71.5t41.5 84t33 88.5q3 13 15 13q11 0 20 -6zM89 -338q20 -18 45 -22.5t50.5 4t49 29.5t40.5 55q19 36 26.5 85t9.5 109q-58 -13 -110 -28.5t-88 -50.5q-20 -20 -32 -45.5t-15.5 -51t2.5 -48t22 -36.5z" glyph-name="y" horiz-adv-x="607" unicode="y"/>
<glyph d="M614 323q8 -7 3 -20q-29 -94 -73.5 -163.5t-93.5 -111.5q12 -72 -10 -157.5t-82 -165.5q-49 -66 -106 -96.5t-110 -36t-96.5 8t-64.5 36.5q-22 24 -31.5 57t-6 69t20.5 71t48 63q32 28 68 47t74.5 32.5t78.5 25t80 24.5q-6 44 -26.5 72t-54.5 33q-17 2 -28 0.5t-19 -3 t-14.5 -1.5t-14.5 3q-23 10 -39 31q-9 12 -8 24t8 25.5t19 29.5t25 35q14 21 29.5 53.5t23.5 64t4.5 56.5t-26.5 32q-24 7 -44.5 -4.5t-37.5 -35t-30.5 -55t-23.5 -64.5q-4 -12 -13 -15q-17 -3 -24 9q-6 8 -1 19q10 29 25 67t40.5 69.5t64 49t95.5 5.5q42 -9 65 -30.5 t31.5 -50t5 -61.5t-13.5 -65.5t-24.5 -61.5t-27.5 -50q60 0 99 -30t59 -79q45 44 83 107t59 131q3 13 15 13q11 0 20 -6zM24 -338q20 -18 46 -21t53.5 6.5t55 30t50.5 50.5q43 55 64 115.5t23 114.5q-38 -12 -76 -22.5t-73 -23.5t-65.5 -29t-54.5 -40q-20 -20 -32 -45.5 t-15.5 -51t2.5 -48t22 -36.5z" glyph-name="z" horiz-adv-x="562" unicode="z"/>
<glyph d="M252 -65q-29 0 -60.5 11t-63.5 53q-15 21 -21 49.5t-6.5 57.5t1.5 56.5t3 46.5t-1 29.5t-6 16t-9.5 7t-12.5 1.5q-15 1 -21 8.5t-8 24.5q-1 8 2 13t7.5 7.5t9 4l7.5 2.5q4 1 9.5 2.5t10 7t7 18.5t0.5 37q-2 15 -4.5 48.5t-3 72.5t1.5 77t11 62t25.5 39.5t36 24.5 t38.5 12.5t32 2.5q26 -2 25.5 -10.5t-11.5 -15.5q-5 -4 -12.5 -12.5t-14.5 -21t-13 -27t-9 -30.5q-3 -17 -6.5 -45t-6.5 -59.5t-5 -60.5t-3 -47q-2 -52 -31 -86q-6 -7 -8.5 -10.5t5.5 -5.5q11 -3 32 -18.5t32 -52.5q7 -24 9.5 -55t4 -62.5t5 -61t13.5 -49.5q8 -15 19 -20.5 t21.5 -7t18 -1t8.5 -3.5q2 -7 -12.5 -18.5t-45.5 -11.5z" glyph-name="braceleft" horiz-adv-x="318" unicode="{"/>
<glyph d="M145 -80q-17 -8 -34 -6.5t-28 6.5q-11 6 -15.5 34t-5.5 67t-0.5 84t-0.5 85q-1 43 -1 101t1 116t2.5 108t3.5 76q2 29 13.5 37.5t25.5 7.5q21 -2 36.5 -67t16.5 -194q0 -32 1.5 -80.5t3.5 -99.5t4 -97t3 -71q1 -15 1 -32t-2.5 -32t-8 -27t-16.5 -16z" glyph-name="bar" horiz-adv-x="232" unicode="|"/>
<glyph d="M105 -65q-31 0 -45.5 11.5t-12.5 18.5q1 4 8.5 3.5t18 1t21.5 7t19 20.5q10 20 13.5 52.5t5 68t4 69.5t9.5 58q11 37 32 52.5t32 18.5q8 2 5.5 5.5t-8.5 10.5q-15 17 -29 39t-15 47q-1 18 -1.5 44t-1 53.5t-1.5 52.5t-4 42q-6 32 -22 57.5t-27 33.5t-11.5 16t25.5 10 q13 1 32 -2.5t38.5 -12.5t36 -24.5t25.5 -39.5t11 -58.5t1.5 -70t-3.5 -66t-4 -45.5q-2 -24 0.5 -37t7 -18.5t10 -7t9.5 -2.5q5 -2 16 -6.5t10 -20.5q-2 -17 -8 -24.5t-22 -8.5q-6 0 -11.5 -1.5t-9.5 -7t-6 -16t-1 -29.5t3 -49.5t1.5 -63.5t-6.5 -64.5t-22 -52.5 q-31 -42 -62.5 -53t-60.5 -11z" glyph-name="braceright" horiz-adv-x="318" unicode="}"/>
<glyph d="M357 230q-21 0 -38 9t-31.5 19.5t-27.5 19.5t-26 9q-20 0 -30.5 -9t-27.5 -20t-32 -12.5t-33 10.5q-20 13 -16 29.5t20 31.5q17 16 37 27t58 12q31 1 53.5 -10t39.5 -24.5t31.5 -25t28.5 -11.5q12 0 21 6t16 14t12 17t9 14q3 5 12 5t16.5 -4t11.5 -11.5t-2 -17.5 t-14.5 -23.5t-20.5 -25.5t-28.5 -20.5t-38.5 -8.5z" glyph-name="asciitilde" horiz-adv-x="560" unicode="~"/>
<glyph d="M90 713q62 7 74 -53q5 -32 -6.5 -48t-42.5 -20q-62 -9 -74 53q-10 61 49 68zM103 517q5 0 12.5 -0.5t15 -2.5t13.5 -6.5t8 -11.5q1 -10 3.5 -41.5t5.5 -71.5t6 -82t5 -73q5 -62 9.5 -121t6.5 -119q1 -21 -15 -35.5t-48 -14.5q-24 0 -39 8.5t-20 31.5t-11.5 83.5 t-9.5 139.5q-3 80 0 148.5t10 137.5q2 18 19.5 24t28.5 6z" glyph-name="exclamdown" horiz-adv-x="298" unicode="¡"/>
<glyph d="M378 100q0 -8 -2.5 -13t-6.5 -9q-35 -29 -71.5 -48.5t-73.5 -26.5q0 -17 -1 -35.5t-3 -46.5q-1 -14 -7.5 -22.5t-15 -10t-16 6t-9.5 25.5q-3 30 -5 48.5t-3 30.5q-33 2 -64.5 12t-56 31.5t-40 56.5t-15.5 88q0 73 18.5 123.5t43 82t49.5 46.5t38 17l20 3q-1 33 -1.5 59 t2.5 43q3 12 13 16t22 -1t22.5 -18.5t12.5 -35.5q1 -16 2.5 -24.5t2 -14t0.5 -11v-15.5q34 -4 52.5 -13t32.5 -23q17 -19 24 -35.5t11 -36.5q2 -12 -9 -21.5t-26 -13.5t-30 -1.5t-21 13.5q-9 17 -10.5 29t-6.5 25q-5 12 -15.5 15t-27.5 -15q-12 -12 -23.5 -29.5t-20.5 -41 t-15 -53t-6 -66.5q0 -59 15.5 -94t61.5 -37q26 -1 58.5 15.5t65.5 45.5q9 9 19 5q16 -4 16 -25z" glyph-name="cent" horiz-adv-x="456" unicode="¢"/>
<glyph d="M519 39q7 -2 12 -10.5t3.5 -17.5t-11 -16.5t-32.5 -7.5q-21 0 -37 0.5t-31 0.5t-31 -0.5t-38 -3.5q-53 -7 -93 -12.5t-70 -6.5t-50.5 4t-35.5 19q-16 17 -19.5 32.5t2.5 35.5q17 67 20 130t0 123q-14 2 -26 4t-29 4q-14 2 -22 10t-8.5 16t7.5 15t26 7h24.5t24.5 1 q-4 63 -3.5 119.5t17.5 109.5q14 45 36.5 74t50 46t58 23.5t62.5 6.5q56 0 97 -17.5t85 -57.5q22 -20 26.5 -36.5t-1.5 -26.5t-17.5 -12t-20.5 7q-19 18 -43.5 38t-50.5 29q-56 19 -89.5 -19.5t-28.5 -134.5q2 -20 1.5 -59t-2.5 -89q30 -1 55.5 -2.5t45.5 -4.5q12 -2 19 -8 t5.5 -13.5t-12.5 -14.5t-33 -10q-27 -4 -46.5 -5.5t-38.5 -2.5q-4 -38 -10 -77.5t-15 -75.5q-9 -37 -16 -57.5t-7.5 -30.5t7 -12t27.5 -1q7 0 25 1t37 2t35 1.5t20 0.5q42 0 78.5 -5.5t60.5 -12.5z" glyph-name="sterling" horiz-adv-x="619" unicode="£"/>
<glyph d="M542 523q1 -7 -6 -19.5t-17 -24.5q-17 -23 -40.5 -49.5t-50.5 -59.5q10 -25 12 -58q1 -43 -7.5 -88.5t-25.5 -86.5q42 -51 65 -78t19 -37q-2 -7 -11.5 -11.5t-23.5 -2.5q-9 1 -16.5 3.5t-14.5 7t-14.5 12.5t-17.5 21l-19 24q-23 -34 -53 -54t-65 -19q-23 1 -47.5 7 t-47.5 19l-7 -9q-10 -13 -21 -26.5t-22.5 -25.5t-23 -20.5t-20.5 -9.5q-15 -2 -24 2.5t-12 10.5q-2 4 4 15t17 27t26 35.5t32 40.5q-21 24 -34.5 56.5t-15.5 74.5q-2 60 13 111t50 86q-20 23 -37.5 43.5t-31.5 38.5q-10 12 -17.5 24.5t-5.5 19.5q1 7 7.5 11.5t16 4.5 t20.5 -4.5t21 -16.5q12 -14 31 -36.5t42 -51.5q55 27 139 20q26 -2 47 -10.5t38 -22.5q27 33 48.5 59.5t35.5 41.5q10 12 21 16.5t20 4.5t15.5 -4.5t8.5 -11.5zM266 47q27 -2 51 22t41.5 61.5t27.5 83.5t9 89q-1 40 -17.5 70t-60.5 35q-32 3 -53 -16t-33 -49t-17.5 -66.5 t-7.5 -68.5q-2 -28 1.5 -56.5t11 -51.5t19.5 -37.5t28 -15.5z" glyph-name="currency" horiz-adv-x="507" unicode="¤"/>
<glyph d="M517 673q-7 -18 -20.5 -52t-29 -71t-29.5 -70.5t-22 -49.5q-4 -8 -7.5 -16.5t-6.5 -16.5q14 1 25.5 0.5t22.5 -1.5q13 -1 20 -6.5t6.5 -13t-11 -15.5t-32.5 -13q-30 -6 -51 -9l-4 -18t-4 -17q22 1 41 1t35 -2q13 -1 20 -6.5t6.5 -13t-11 -15.5t-32.5 -13q-20 -5 -35.5 -7 t-29.5 -4q-3 -29 -5 -62t-5 -66q-2 -27 -2 -52.5t-4.5 -45t-18 -31t-41.5 -8.5q-20 2 -29.5 10.5t-13 23.5t-4 37.5t-2.5 52.5q-3 35 -3 68.5t2 63.5q-19 1 -37 2t-41 3q-14 1 -22.5 8t-9.5 15.5t6.5 16t25.5 9.5q25 2 45.5 3t37.5 3l2 17q-2 4 -4.5 8t-4.5 8q-18 1 -35.5 2 t-40.5 3q-14 1 -22.5 8t-9.5 15.5t6.5 16t25.5 9.5l49 3q-21 44 -42.5 90.5t-41 88t-35 76t-25.5 54.5q-8 16 -8.5 26t3.5 17t12 10.5t18 5.5q27 7 47 -4t29 -29q23 -45 43 -96.5t50 -114.5l28 -58q2 6 4.5 12.5t4.5 12.5q7 20 21 50t30.5 64t33.5 67.5t30 60.5q3 4 9 11 t15 12t23 7t34 -3q19 -5 27.5 -10t9 -13t-4 -19.5t-11.5 -29.5z" glyph-name="yen" unicode="¥"/>
<glyph d="M61 484q-1 22 -0.5 38.5t2 31t4.5 28.5t7 31q3 12 12.5 19t21 7.5t20.5 -6t10 -22.5q2 -52 3 -85t2 -54q1 -29 -0.5 -58t-6.5 -51q-2 -11 -10.5 -16.5t-18 -4.5t-19 10t-14.5 29q-9 36 -10.5 57.5t-2.5 45.5zM61 70q-1 22 -0.5 38.5t2 31t4.5 28.5t7 31q3 12 12.5 19 t21 8t20.5 -6t10 -23q2 -52 3 -85t2 -53q1 -30 -0.5 -59t-6.5 -50q-2 -11 -10.5 -17t-18 -4.5t-19 10.5t-14.5 28q-9 36 -10.5 57.5t-2.5 45.5z" glyph-name="brokenbar" horiz-adv-x="203" unicode="¦"/>
<glyph d="M321 462q17 -21 32.5 -44t25.5 -47.5t11 -51t-12 -53.5q-18 -37 -51.5 -51.5t-69.5 -12.5q16 -20 31.5 -43t24.5 -47.5t9.5 -50t-11.5 -51.5q-16 -34 -45.5 -49t-62.5 -15t-64 12.5t-50 35.5q-8 9 -14 19.5t-11 23.5t-1.5 20t10.5 8.5t15 -2.5t12 -13q3 -6 9 -15t11 -17 q17 -24 43.5 -28.5t43.5 14.5q13 15 12.5 35.5t-10 43.5t-26.5 47t-36 46q-12 15 -29.5 37t-31.5 49.5t-22 61t-1 71.5q5 27 17 44t27.5 27t33.5 13.5t34 4.5q-22 32 -37.5 74t-6.5 94q5 30 19 47.5t32 26.5t37.5 11.5t35.5 2.5q34 -1 50.5 -10t27.5 -22t14.5 -21.5 t5.5 -22.5q1 -9 -5 -14t-14 -5.5t-15 3t-8 11.5q-3 26 -16 35t-24 8q-37 -3 -43 -57q-3 -27 7.5 -54.5t26.5 -52t32.5 -44.5t26.5 -32zM274 260q13 15 12.5 35.5t-10 43.5t-26.5 47t-36 46l-11 14q-37 -5 -42 -57q-2 -19 2.5 -37.5t13 -36.5t19.5 -34.5t22 -30.5 q15 -6 30 -3.5t26 13.5z" glyph-name="section" horiz-adv-x="450" unicode="§"/>
<glyph d="M212 510q-52 7 -42 59q9 52 63 46q26 -4 36.5 -17.5t5.5 -41.5q-9 -52 -63 -46zM374 510q-51 7 -42 59t63 46q27 -4 37 -17.5t5 -41.5q-9 -52 -63 -46z" glyph-name="dieresis" unicode="¨"/>
<glyph d="M299 -34q-54 3 -97.5 22.5t-74.5 51t-48 73.5t-19 91q-2 65 19 120t61 95t97.5 62.5t128.5 22.5q103 0 164.5 -60t65.5 -168q2 -74 -16.5 -133t-57 -99.5t-94.5 -61t-129 -16.5zM340 3q49 -3 90 15t69.5 53.5t43.5 87t13 116.5q-3 91 -53 140t-137 49q-40 0 -80 -19.5 t-72.5 -54t-51.5 -82t-17 -103.5q1 -41 16.5 -77t41.5 -63t61 -43.5t76 -18.5zM366 96q-52 0 -79 26t-27 76q0 33 9 60.5t24.5 48t36.5 31.5t46 10q29 -2 40.5 -8.5t20.5 -16.5q16 -17 20 -41q1 -9 -5.5 -15t-16 -8.5t-19 -1t-13.5 9.5q-5 10 -6 16t-3 12q-2 7 -13.5 6.5 t-18.5 -7.5q-15 -17 -23.5 -41t-8.5 -53q0 -26 15 -44t38 -19q12 0 27.5 7.5t32.5 22.5q8 7 15 4q12 -5 12 -18q0 -8 -7 -15q-23 -20 -48.5 -30.5t-48.5 -11.5z" glyph-name="copyright" horiz-adv-x="656" unicode="©"/>
<glyph d="M456 398q16 0 22 -7.5t3 -16t-13 -16t-25 -7.5q-58 -5 -85.5 20.5t-34.5 66.5q-27 -33 -58.5 -56t-61.5 -23q-23 0 -44.5 7t-38.5 22.5t-27.5 41t-10.5 62.5q0 66 24 114t54.5 79t59.5 46t39 16q14 2 24 -0.5t21 -11.5t18 -24.5t-10 -29.5q-15 -11 -31.5 -28.5t-31 -39.5 t-25.5 -48.5t-15 -54.5q-6 -42 0.5 -66t22.5 -24q21 0 44 21.5t43 52.5q1 45 10 88.5t20 76.5q11 32 32 40t40 3q9 -2 15.5 -5.5t10.5 -10t5 -18.5t-2 -32t-7.5 -59.5t-6 -79.5t2 -69.5t17.5 -29.5z" glyph-name="ordfeminine" horiz-adv-x="562" unicode="ª"/>
<glyph d="M245 70q-18 10 -47 28t-57.5 37.5t-51.5 38t-29 30.5q-14 25 -7 43.5t22 36.5q7 9 24 23t38 30.5t43 34t40 31.5q23 19 37.5 16.5t32.5 -28.5q17 -26 17 -43t-8 -28t-20.5 -27.5t-42.5 -48.5q-31 -32 -44 -49t-4 -26q4 -5 14 -11.5t23.5 -14.5t28 -16.5t28.5 -17.5 t17 -20t-3 -18.5t-19.5 -9t-31.5 8.5zM500 59q-18 10 -43.5 26t-50 33.5t-44 34.5t-25.5 29q-14 25 -7 43.5t22 36.5q7 9 21 24.5t31 34t35.5 37.5t35.5 33q23 19 38 16.5t32 -28.5q18 -26 18 -43t-8 -28t-20.5 -27t-43.5 -48q-30 -32 -43 -49.5t-5 -26.5q4 -5 14.5 -11.5 t24 -14.5t28 -16.5t28.5 -17.5q13 -9 16 -20t-3 -18.5t-19.5 -9t-31.5 9.5z" glyph-name="guillemotleft" horiz-adv-x="631" unicode="«"/>
<glyph d="M403 202q-3 15 -3 29.5t-2.5 25t-9 16t-23.5 2.5t-49 -6t-67.5 -4.5t-67.5 -3t-48 -1.5q-17 -1 -34 9t-28 22.5t-11 24t18 13.5q31 3 77 5t93.5 4t89 3t63.5 2q44 2 60 -11t18 -35q2 -23 1.5 -46t-0.5 -47q0 -9 -11 -16.5t-24.5 -9t-26 3.5t-15.5 20z" glyph-name="logicalnot" horiz-adv-x="541" unicode="¬"/>
<glyph d="M596 276q2 -74 -16.5 -133t-57 -99.5t-94.5 -61t-129 -16.5q-54 3 -97.5 22.5t-74.5 51t-48 73.5t-19 91q-2 65 19 120t61 95t97.5 62.5t128.5 22.5q103 0 164.5 -60t65.5 -168zM340 3q49 -3 90 15t69.5 53.5t43.5 87t13 116.5q-3 91 -53 140t-137 49q-40 0 -80 -19.5 t-72.5 -54t-51.5 -82t-17 -103.5q1 -41 16.5 -77t41.5 -63t61 -43.5t76 -18.5zM410 217q11 -21 21.5 -36t26.5 -35q7 -8 0 -16.5t-22 -12.5q-5 0 -19 3.5t-27 28.5q-11 22 -17.5 39.5t-16.5 28.5q-8 9 -4 18q2 7 7 11q29 17 29 55q-1 13 -3.5 21.5t-5.5 8.5q-4 0 -9.5 -6.5 t-11 -16.5t-9.5 -22t-6 -22v-28.5t0.5 -30.5t0.5 -27.5v-19.5q-1 -28 -16 -40q-14 -11 -37 -11q-11 -1 -16 10.5t-6 28t0 35t1 33.5t2 35l4 40t4 37t3 26q1 8 9 13t19 3q24 -3 30 -23q1 -2 1 -4.5t1 -4.5q9 13 20.5 20.5t22.5 7.5q26 0 42 -14.5t18 -40.5q2 -35 -11 -55.5 t-28 -30.5z" glyph-name="registered" horiz-adv-x="655" unicode="®"/>
<glyph d="M186 557q-26 -3 -45 -3.5t-35.5 0t-33 1.5t-37.5 3q-14 1 -22.5 8t-9.5 15.5t6.5 16t25.5 9.5q60 4 98 7t62 5q35 2 68 3t58 -1q13 -1 20 -6.5t6.5 -13t-11 -15.5t-32.5 -13q-21 -5 -36.5 -7.5t-29 -4t-26 -2.5t-26.5 -2z" glyph-name="macron" unicode="¯"/>
<glyph d="M163 406q-51 1 -83.5 36.5t-38.5 95.5q-4 38 5 69.5t27.5 54t44.5 33.5t58 8q57 -5 85.5 -30.5t31.5 -64.5q4 -40 -3.5 -76.5t-24.5 -65t-43 -45t-59 -15.5zM185 452q13 0 25 13t21 34.5t13 48.5t2 54q-4 51 -48 54q-37 3 -51.5 -26t-13.5 -88q0 -18 3.5 -34t10 -28.5 t16 -20t22.5 -7.5z" glyph-name="degree" horiz-adv-x="335" unicode="°"/>
<glyph d="M91 228q-14 2 -22 9.5t-9 16t7 15.5t26 8q25 0 50 1t48 2q3 23 7 47t7 48q1 4 2.5 11t4 13.5t7 11t11.5 4.5q21 0 42.5 -15.5t24.5 -47.5q3 -23 3 -66q26 1 56.5 -0.5t53.5 -4.5q12 -2 19 -8t5.5 -13.5t-12 -14.5t-32.5 -11q-35 -5 -53 -6.5t-38 -2.5q-1 -22 -2 -40.5 t-2 -29.5q-3 -30 -17.5 -38.5t-28.5 -6.5q-7 1 -15.5 1.5t-16.5 3.5t-14.5 10t-9.5 19q-5 18 -6.5 37.5t-0.5 41.5q-26 0 -50 1t-45 4zM410 47q12 -2 19 -8t5.5 -13.5t-12 -14.5t-32.5 -11q-21 -3 -35.5 -5t-26 -3t-22.5 -1.5t-25 -0.5q-52 -2 -100.5 -1.5t-89.5 5.5 q-14 2 -22 9.5t-9 15.5t7 15t26 8q30 1 60.5 2.5t58 3t49 3t33.5 1.5q26 1 58.5 -0.5t57.5 -4.5z" glyph-name="plusminus" horiz-adv-x="495" unicode="±"/>
<glyph d="M226 584q-6 6 -2 13.5t13 21t20 33.5t19 50q8 29 27.5 35t44.5 -12q19 -13 21.5 -28t-9.5 -36q-6 -11 -23 -28t-38 -31.5t-41 -21.5t-32 4z" glyph-name="acute" unicode="´"/>
<glyph d="M486 695q12 -2 19 -8t5.5 -13.5t-12.5 -14.5t-33 -10q-26 -5 -45 -6q0 -2 1 -2q5 -19 4 -60t-3 -85q-1 -15 -2 -47.5t-1.5 -73.5t-1 -86.5t-0.5 -85.5v-70.5v-42.5v-23.5t-1 -24t-4 -20.5t-8 -13q-8 -8 -19.5 -8.5t-25.5 0.5q-10 0 -14.5 19.5t-5 48t0.5 62t1 62.5 q0 20 1.5 57.5t3 82t4 92t5 90t4 74t2.5 44.5q0 5 1 7h-46h-54q5 -21 4.5 -53.5t-1.5 -71.5q0 -4 0.5 -19.5t0.5 -37t1 -46t1 -46.5t0.5 -40t0.5 -25q0 -73 -6.5 -124.5t-19.5 -85.5t-32.5 -53t-45.5 -26q-43 -11 -77.5 0t-53.5 43q-2 4 1 7t7.5 5t9.5 2t7 -2q7 -5 15.5 -15 t27.5 -11t32 8.5t21.5 33.5t12.5 63.5t4 98.5v197q-6 -1 -12 -1.5t-12 -0.5q-25 0 -48 8.5t-40.5 24t-28 36.5t-11.5 47t5 51t19 45t34.5 32.5t52.5 12.5l199 5q57 0 94 -1.5t62 -5.5zM172 489v92.5t1 62.5q-5 1 -10 1h-11q-23 0 -37.5 -7.5t-22 -19.5t-10 -28t-2.5 -32 q0 -34 18.5 -51t50.5 -19q7 -1 12.5 -0.5t10.5 1.5z" glyph-name="paragraph" horiz-adv-x="550" unicode="¶"/>
<glyph d="M106 186q-61 7 -49 68q10 60 73 53q32 -4 43 -20t6 -48q-10 -61 -73 -53z" glyph-name="periodcentered" horiz-adv-x="236" unicode="·"/>
<glyph d="M232 -258q-33 -5 -49 4t-16 18q0 17 33 34q21 10 36 25t20 38q7 35 -36 42q-21 5 -30.5 11.5t-8.5 18.5q0 4 6 8.5t17 7t28 1.5t40 -8q6 -2 17.5 -7.5t22 -16.5t18.5 -28.5t7 -42.5q0 -26 -10.5 -44.5t-25.5 -31.5t-33.5 -20t-35.5 -9z" glyph-name="cedilla" unicode="¸"/>
<glyph d="M264 364q-27 1 -55.5 11t-51.5 30t-38.5 50.5t-16.5 71.5q-2 46 9 83.5t27 65.5t33.5 45t30.5 23q14 6 23.5 5.5t23.5 -6.5q13 -6 22.5 -18.5t-2.5 -31.5q-17 -29 -30.5 -67.5t-16.5 -91.5q-1 -23 1.5 -46.5t8.5 -42.5t16 -31.5t23 -13.5q22 -1 42 18.5t34.5 51t23 69.5 t7.5 73q-1 33 -14 57.5t-50 29.5q-9 0 -14 5.5t-6.5 12t1.5 12t11 5.5q51 -2 79.5 -34.5t29.5 -79.5q1 -44 -9.5 -89.5t-30.5 -83t-48.5 -61t-62.5 -22.5z" glyph-name="ordmasculine" horiz-adv-x="507" unicode="º"/>
<glyph d="M147 67q-23 -19 -37.5 -16.5t-32.5 28.5q-17 26 -17 43t8 28t21 24t42 31q24 15 36 27t16 21.5t2 16t-6 11.5l-14 14t-23.5 22t-28.5 23.5t-28 20.5q-14 9 -17 20t3 18.5t19.5 8.5t31.5 -9t47 -27.5t57.5 -37t51.5 -38t29 -30.5q14 -25 7 -43.5t-22 -36.5 q-8 -9 -24.5 -23.5t-37.5 -31t-43 -33.5t-40 -31zM385 67q-23 -19 -37.5 -16.5t-32.5 28.5q-9 13 -11 22.5t-0.5 17.5t5.5 14t8 11q8 11 27.5 27t45.5 39q23 21 32 33t9.5 19t-5 10.5t-9.5 8.5l-14 14t-23.5 22t-28.5 23.5t-29 20.5t-16.5 20t3.5 18.5t19.5 8.5t31.5 -9 t47 -27.5t57.5 -37t51.5 -38t29 -30.5q14 -25 7 -43.5t-22 -36.5q-8 -9 -24.5 -23.5t-37.5 -31t-43 -33.5t-40 -31z" glyph-name="guillemotright" horiz-adv-x="613" unicode="»"/>
<glyph d="M197 738q29 -5 47 -11.5t24 -26.5t7.5 -45t-1.5 -65q-2 -20 -2 -55.5v-76t0.5 -80.5t0.5 -68q0 -5 -3 -10.5t-11.5 -10.5t-23 -9.5t-37.5 -7.5q-33 -4 -49.5 4t-18.5 31q0 19 -1.5 54t0.5 92q1 43 7.5 97t12.5 102q2 20 -9 8q-9 -13 -30.5 -29t-37.5 -24 q-8 -4 -15.5 -0.5t-12 11t-4.5 16.5t9 15q14 10 24.5 18t18.5 14q8 7 19.5 18t29.5 32q7 8 14.5 10.5t14.5 2t13.5 -2.5t13.5 -3zM606 722q4 -6 1.5 -20t-7.5 -29q-13 -39 -33 -89t-40 -119q-9 -32 -25 -80.5t-33 -99.5t-32.5 -97t-23.5 -71q-5 -15 -11 -32t-12.5 -32 t-14.5 -27t-16 -16q-13 -8 -23 -6.5t-15 6.5q-5 6 2 34t20 67t29 84t30 85q9 28 22 65t26.5 77.5t28 81.5t27.5 77.5t23.5 66t17.5 47.5q6 15 14.5 23t17 11t16 1t11.5 -8zM918 424q6 -20 7 -44t-1 -59q-2 -18 -2 -50.5v-67t0.5 -65t0.5 -45.5q-1 -25 -7.5 -42.5 t-21.5 -28.5q-24 -19 -65 -21q-18 -1 -27 14.5t-12.5 40.5t-2.5 54.5t2 55.5l-60 -3h-40h-25.5t-19 0.5t-20.5 2.5q-17 2 -26 16.5t-7 34.5q3 20 9.5 49t8.5 49q2 17 3 30t1.5 25t1 24.5t2.5 28.5q2 20 13.5 28.5t28.5 3.5q23 -8 28 -27q4 -14 5 -37.5t-1 -49.5 q-2 -17 -5.5 -47.5t-11.5 -59.5q-1 -5 -1 -8t5.5 -4.5t19 -2.5t38.5 -1h55q1 27 4.5 59.5t6.5 63.5t6 56.5t5 39.5q2 15 16 23t34 6t35 -13.5t20 -28.5z" glyph-name="onequarter" horiz-adv-x="985" unicode="¼"/>
<glyph d="M198 272q-33 -4 -49.5 4t-18.5 31q0 19 -1.5 54t0.5 92q1 43 7.5 97t12.5 102q2 20 -9 8q-9 -13 -30.5 -29t-37.5 -24q-8 -4 -15.5 -0.5t-12 11t-4.5 16.5t9 15q14 10 24.5 18t18.5 14q8 7 19.5 18t29.5 32q7 8 14.5 10.5t14.5 2t13.5 -2.5t13.5 -3q29 -5 47 -11.5 t24 -26.5t7.5 -45t-1.5 -65q-2 -20 -2 -55.5v-76t0.5 -80.5t0.5 -68q0 -5 -3 -10.5t-11.5 -10.5t-23 -9.5t-37.5 -7.5zM330 10q-13 -8 -23 -6.5t-15 6.5q-5 6 2 34t19.5 67t28.5 84t30 85q10 28 22.5 65t26 77.5t28 81.5t27.5 77.5t23.5 66t17.5 47.5q6 15 14.5 23t17.5 11 t16.5 1t10.5 -8q4 -6 1.5 -20t-7.5 -29q-13 -39 -32.5 -89t-39.5 -119q-10 -32 -26 -80.5t-33 -99.5t-32 -97t-23 -71q-5 -15 -11 -32t-12.5 -32t-14.5 -27t-16 -16zM755 13q-33 -3 -63.5 -6t-55.5 -3t-44 3.5t-29 14.5q-37 37 64 177q36 49 65 90t37 71q7 24 5.5 39.5 t-9.5 18.5q-18 7 -49 -3q-11 -5 -24.5 -14t-30.5 -26q-9 -9 -20 -7t-17.5 10.5t-4 22.5t20.5 31q29 27 56 38t63 11q57 0 94.5 -32.5t48.5 -92.5q6 -38 -10.5 -77t-43.5 -75t-59 -66t-56 -49q-10 -8 -10 -9t3 -1l84 -1q60 2 101 -11q6 -2 11 -10t5 -17.5t-8 -17t-27 -7.5 q-13 0 -23 0.5t-20.5 0.5t-23 -0.5t-30.5 -2.5z" glyph-name="onehalf" horiz-adv-x="947" unicode="½"/>
<glyph d="M289 558q16 -5 32.5 -12.5t30.5 -21.5t23 -35t9 -52q0 -37 -14 -67t-40.5 -51t-63.5 -32.5t-82 -11.5q-13 0 -28.5 1.5t-31 6.5t-30 15t-26.5 27q-11 15 -7 23.5t14.5 12t22 3t16.5 -4.5q8 -7 19.5 -20t32.5 -13q33 0 54.5 30t21.5 78q0 22 -2 35.5t-9 20t-19 7.5t-32 -2 q-12 -2 -25 4.5t-23 19.5q-7 9 -7.5 16t3 12.5t9 10t10.5 7.5q6 5 18 13.5t23.5 19t20.5 22.5t11 23q9 50 -43 50q-17 0 -22.5 -7t-13.5 -14q-9 -9 -20 -7.5t-18.5 8.5t-9 17.5t7.5 20.5q7 9 21 17.5t32 15t38.5 10t40.5 1.5q52 -5 80 -38t28 -81q0 -26 -13.5 -43.5 t-38.5 -34.5zM622 695q6 15 14.5 23t17 11t16 1t11.5 -8q3 -6 1 -20t-7 -29q-13 -39 -33 -89t-40 -119q-9 -32 -25 -80.5t-33 -99.5t-32.5 -97t-23.5 -71q-5 -15 -11 -32t-12.5 -32t-14.5 -27t-16 -16q-13 -8 -23 -6.5t-15 6.5q-5 6 2 34t20 67t29 84t29 85q10 28 22.5 65 t26.5 77.5t28.5 81.5t27.5 77.5t23.5 66t17.5 47.5zM1011 398q6 -20 7.5 -44t-1.5 -59q-1 -18 -1 -50.5v-67v-65v-45.5q0 -48 -29 -71q-22 -19 -65 -21q-18 -1 -27 15t-12.5 41t-2.5 54.5t2 55.5l-60 -3q-25 0 -40 -0.5t-25.5 0t-19 1t-20.5 1.5q-17 2 -26 17t-6 35 q2 20 8.5 48.5t8.5 48.5q2 17 3 30t2 25t1.5 24.5t2.5 28.5q2 20 13.5 29t28.5 3q13 -5 18.5 -10.5t8.5 -16.5q4 -14 5 -37.5t-1 -49.5q-1 -17 -5 -47t-11 -60q-1 -5 -1 -8t5.5 -4.5t18.5 -2.5t39 -1h54q2 27 5 59.5t6.5 63.5t6.5 56.5t5 39.5q2 15 16 23t34 6t34.5 -13 t19.5 -29z" glyph-name="threequarters" horiz-adv-x="1079" unicode="¾"/>
<glyph d="M275 728q61 -7 49 -68q-10 -62 -73 -53q-32 4 -43 19.5t-6 47.5q11 62 73 54zM266 534q28 -14 42 -30.5t19 -35.5t3 -39t-6 -40q-5 -24 -24 -55.5t-41 -64.5t-41.5 -64t-23.5 -54q-6 -28 -4.5 -48t7.5 -33t14.5 -20.5t17.5 -10.5q17 -7 41.5 -5t47.5 10q27 9 51.5 29 t43.5 38q9 9 20.5 7t17.5 -12t1.5 -26.5t-26.5 -36.5q-44 -41 -85.5 -58t-96.5 -17q-32 0 -67.5 7t-66 27t-50.5 57t-20 97q0 40 20 81.5t46.5 80.5t51.5 74.5t35 64.5q5 15 9 33t11 31t19.5 18t33.5 -5z" glyph-name="questiondown" horiz-adv-x="514" unicode="¿"/>
<glyph d="M569 48q9 -30 8 -47.5t-12 -25t-33.5 -7.5t-56.5 5q-20 3 -34 7t-24.5 13.5t-19.5 25.5t-18 43q-10 28 -21 68.5t-22 84.5q-14 0 -29.5 -0.5t-35.5 -0.5h-51.5t-40.5 1q-29 -92 -51.5 -142t-34.5 -73q-6 -12 -19 -20t-24 -9t-17.5 7.5t1.5 28.5q11 34 32 92t42 122l-36 6 q-14 2 -22 9.5t-8.5 15.5t7.5 15t26 8h50q11 35 23 75.5t24 82t23.5 81.5t21 74t16.5 60t11 39q1 23 13 40.5t48 17.5q31 0 52 -14.5t36 -41t25.5 -63t19.5 -79.5q7 -29 17.5 -72t23 -91.5t26 -100t26 -97t22.5 -82t16 -56.5zM321 276q-6 26 -11 50t-9 43q-8 40 -15.5 82 t-15.5 80q-15 -57 -33.5 -124t-38.5 -131h87h36zM381 797q-12 -11 -32 -4t-41 21.5t-38 31.5t-23 28q-12 21 -9.5 36t21.5 28q25 18 44.5 12t27.5 -35q8 -30 19 -50t20 -33.5t13 -21t-2 -13.5z" glyph-name="Agrave" horiz-adv-x="607" unicode="À"/>
<glyph d="M569 48q9 -30 8 -47.5t-12 -25t-33.5 -7.5t-56.5 5q-20 3 -34 7t-24.5 13.5t-19.5 25.5t-18 43q-10 28 -21 68.5t-22 84.5q-14 0 -29.5 -0.5t-35.5 -0.5h-51.5t-40.5 1q-29 -92 -51.5 -142t-34.5 -73q-6 -12 -19 -20t-24 -9t-17.5 7.5t1.5 28.5q11 34 32 92t42 122l-36 6 q-14 2 -22 9.5t-8.5 15.5t7.5 15t26 8h50q11 35 23 75.5t24 82t23.5 81.5t21 74t16.5 60t11 39q1 23 13 40.5t48 17.5q31 0 52 -14.5t36 -41t25.5 -63t19.5 -79.5q7 -29 17.5 -72t23 -91.5t26 -100t26 -97t22.5 -82t16 -56.5zM321 276q-6 26 -11 50t-9 43q-8 40 -15.5 82 t-15.5 80q-15 -57 -33.5 -124t-38.5 -131h87h36zM276 797q-6 6 -2 13.5t13 21t20 33.5t19 50q8 29 27.5 35t44.5 -12q19 -13 21.5 -28t-9.5 -36q-6 -11 -23 -28t-38 -31.5t-41 -21.5t-32 4z" glyph-name="Aacute" horiz-adv-x="607" unicode="Á"/>
<glyph d="M569 48q9 -30 8 -47.5t-12 -25t-33.5 -7.5t-56.5 5q-20 3 -34 7t-24.5 13.5t-19.5 25.5t-18 43q-10 28 -21 68.5t-22 84.5q-14 0 -29.5 -0.5t-35.5 -0.5h-51.5t-40.5 1q-29 -92 -51.5 -142t-34.5 -73q-6 -12 -19 -20t-24 -9t-17.5 7.5t1.5 28.5q11 34 32 92t42 122l-36 6 q-14 2 -22 9.5t-8.5 15.5t7.5 15t26 8h50q11 35 23 75.5t24 82t23.5 81.5t21 74t16.5 60t11 39q1 23 13 40.5t48 17.5q31 0 52 -14.5t36 -41t25.5 -63t19.5 -79.5q7 -29 17.5 -72t23 -91.5t26 -100t26 -97t22.5 -82t16 -56.5zM321 276q-6 26 -11 50t-9 43q-8 40 -15.5 82 t-15.5 80q-15 -57 -33.5 -124t-38.5 -131h87h36zM227 802q-4 -6 -12.5 -5t-15.5 6t-9.5 13t4.5 16q6 9 14.5 19.5l17 21t16 19.5l12.5 15q9 11 20 24t31 16q22 4 34.5 5t20 -2.5t14 -10.5t17.5 -19q24 -24 33.5 -41t20.5 -32t5.5 -26.5t-16.5 -17.5q-24 -14 -39 -10.5 t-28 18.5q-6 7 -14.5 17t-16.5 20t-14 18t-9 11q-6 7 -16.5 2t-19.5 -14q-13 -17 -27 -34.5t-23 -28.5z" glyph-name="Acircumflex" horiz-adv-x="607" unicode="Â"/>
<glyph d="M569 48q9 -30 8 -47.5t-12 -25t-33.5 -7.5t-56.5 5q-20 3 -34 7t-24.5 13.5t-19.5 25.5t-18 43q-10 28 -21 68.5t-22 84.5q-14 0 -29.5 -0.5t-35.5 -0.5h-51.5t-40.5 1q-29 -92 -51.5 -142t-34.5 -73q-6 -12 -19 -20t-24 -9t-17.5 7.5t1.5 28.5q11 34 32 92t42 122l-36 6 q-14 2 -22 9.5t-8.5 15.5t7.5 15t26 8h50q11 35 23 75.5t24 82t23.5 81.5t21 74t16.5 60t11 39q1 23 13 40.5t48 17.5q31 0 52 -14.5t36 -41t25.5 -63t19.5 -79.5q7 -29 17.5 -72t23 -91.5t26 -100t26 -97t22.5 -82t16 -56.5zM321 276q-6 26 -11 50t-9 43q-8 40 -15.5 82 t-15.5 80q-15 -57 -33.5 -124t-38.5 -131h87h36zM206 815q-16 11 -13 25.5t16 28.5q14 14 30 23.5t45 10.5q24 1 42 -8.5t31.5 -21.5t24.5 -22t22 -10q9 0 16 5t13 12.5t10 14.5t7 12q3 4 9.5 4t12.5 -3.5t9 -10t-1 -14.5q-5 -9 -11.5 -20.5t-16 -22t-22.5 -18t-30 -7.5 t-30.5 7.5t-24.5 17t-21.5 17t-21.5 7.5q-16 0 -23.5 -7.5t-21.5 -16.5q-13 -10 -25 -12t-26 9z" glyph-name="Atilde" horiz-adv-x="607" unicode="Ã"/>
<glyph d="M216 779q-52 6 -43 58q10 53 63 46q52 -6 43 -58t-63 -46zM379 779q-52 6 -43 58q10 53 63 46q52 -6 43 -58t-63 -46zM569 48q9 -30 8 -47.5t-12 -25t-33.5 -7.5t-56.5 5q-20 3 -34 7t-24.5 13.5t-19.5 25.5t-18 43q-10 28 -21 68.5t-22 84.5q-14 0 -29.5 -0.5 t-35.5 -0.5h-51.5t-40.5 1q-29 -92 -51.5 -142t-34.5 -73q-6 -12 -19 -20t-24 -9t-17.5 7.5t1.5 28.5q11 34 32 92t42 122l-36 6q-14 2 -22 9.5t-8.5 15.5t7.5 15t26 8h50q11 35 23 75.5t24 82t23.5 81.5t21 74t16.5 60t11 39q1 23 13 40.5t48 17.5q31 0 52 -14.5t36 -41 t25.5 -63t19.5 -79.5q7 -29 17.5 -72t23 -91.5t26 -100t26 -97t22.5 -82t16 -56.5zM321 276q-6 26 -11 50t-9 43q-8 40 -15.5 82t-15.5 80q-15 -57 -33.5 -124t-38.5 -131h87h36z" glyph-name="Adieresis" horiz-adv-x="607" unicode="Ä"/>
<glyph d="M319 795q-16 2 -31.5 8t-27.5 16t-19.5 25.5t-7.5 37.5q0 26 7 44.5t18 31.5t24 21t25 13q19 8 30.5 3.5t19.5 -19.5q7 -16 1 -27q7 2 13 -0.5t11 -5.5q6 -5 14 -17.5t10 -39.5q1 -18 -5 -35.5t-18 -30.5t-28.5 -20.5t-35.5 -4.5zM295 886q-5 -19 1 -37.5t26 -21.5 q21 -3 33.5 12t14.5 35q2 14 -0.5 26t-10.5 18q-5 5 -9 9.5t-3 9.5l-11 -5q-19 -8 -28.5 -21t-12.5 -25zM569 48q9 -30 8 -47.5t-12 -25t-33.5 -7.5t-56.5 5q-20 3 -34 7t-24.5 13.5t-19.5 25.5t-18 43q-10 28 -21 68.5t-22 84.5q-14 0 -29.5 -0.5t-35.5 -0.5h-51.5t-40.5 1 q-29 -92 -51.5 -142t-34.5 -73q-6 -12 -19 -20t-24 -9t-17.5 7.5t1.5 28.5q11 34 32 92t42 122l-36 6q-14 2 -22 9.5t-8.5 15.5t7.5 15t26 8h50q11 35 23 75.5t24 82t23.5 81.5t21 74t16.5 60t11 39q1 23 13 40.5t48 17.5q31 0 52 -14.5t36 -41t25.5 -63t19.5 -79.5 q7 -29 17.5 -72t23 -91.5t26 -100t26 -97t22.5 -82t16 -56.5zM321 276q-6 26 -11 50t-9 43q-8 40 -15.5 82t-15.5 80q-15 -57 -33.5 -124t-38.5 -131h87h36z" glyph-name="Aring" horiz-adv-x="607" unicode="Å"/>
<glyph d="M844 91q11 7 24.5 5t22.5 -9.5t10 -19.5t-12 -25q-22 -21 -59 -36t-82.5 -23t-94.5 -7.5t-95 10.5q-29 4 -56.5 18t-50.5 43t-39.5 74.5t-22.5 111.5q-15 -1 -32 -1h-39h-50t-39 1v-1q-23 -50 -42 -88t-34.5 -66t-27.5 -47t-20 -31t-22 -17.5t-25.5 -3t-16.5 13.5t6 31 q16 34 45 92.5t59 122.5q-8 2 -16 2.5t-17 2.5q-14 2 -22 10t-8.5 16t7.5 15t27 7h26.5t27.5 1q19 40 41 86t44.5 92.5t43.5 89.5t37.5 77t27 55l11.5 23q2 5 5.5 9t6.5 7q10 8 26 10h62h11t11 -1h177q57 0 94.5 -2t62.5 -5q7 -1 12.5 -7t5.5 -13.5t-8.5 -15t-30.5 -10.5 q-21 -3 -38 -5.5t-35 -5t-39 -4.5t-50 -5q-17 -2 -32 -3.5t-29 -3.5q4 -17 6.5 -40t3 -57.5t-2.5 -83t-10 -116.5v-63h12q57 0 94 -1.5t62 -4.5q7 -1 13 -7.5t6 -14t-9 -15t-31 -10.5q-20 -3 -36.5 -5t-33.5 -3.5t-35.5 -4t-42.5 -5.5q0 -37 2.5 -70t8.5 -58.5t16.5 -41.5 t27.5 -20q18 -4 44.5 -1t55 10.5t55 18.5t45.5 23zM386 294v10q2 36 7.5 80.5t12.5 91t14 91.5t13 81h-4q-19 -32 -40 -74t-43.5 -88.5t-45 -95.5t-43.5 -97q25 1 44.5 1h30.5h54z" glyph-name="AE" horiz-adv-x="941" unicode="Æ"/>
<glyph d="M284 -24q-22 3 -47.5 8.5t-51 19.5t-48.5 39t-39.5 67t-23.5 104t-1 149q6 92 28.5 156.5t54.5 107t69.5 66.5t74 36t69 14.5t53.5 2.5q55 -1 83 -14.5t43 -32.5q16 -19 19.5 -32t5.5 -33q1 -12 -8 -19t-21 -8.5t-23.5 3.5t-15.5 17q-5 11 -9.5 23t-13.5 20.5t-23.5 12 t-38.5 -2.5q-25 -6 -49.5 -34t-45 -72t-33.5 -100t-16 -119q-3 -55 0 -112.5t14.5 -105t33.5 -77.5t57 -30q19 0 32.5 7.5t24 17t17.5 19.5t13 15t19.5 6.5t24.5 -2.5t16 -13.5t-6 -25.5q-35 -53 -90.5 -71t-147.5 -7zM288 -282q-33 -5 -49 4t-16 18q0 17 33 34q21 10 36 25 t20 38q7 35 -36 42q-21 5 -30.5 11.5t-8.5 18.5q0 4 6 8.5t17 7t28 1.5t40 -8q6 -2 17.5 -7.5t22 -16.5t18.5 -28.5t7 -42.5q0 -26 -10.5 -44.5t-25.5 -31.5t-33.5 -20t-35.5 -9z" glyph-name="Ccedilla" horiz-adv-x="613" unicode="Ç"/>
<glyph d="M528 91q11 7 24.5 5t22.5 -9.5t10 -19.5t-12 -25q-22 -21 -59.5 -36t-82.5 -23t-94 -7.5t-95 10.5q-33 4 -64 21.5t-55 54.5t-38.5 96t-14.5 146q2 30 6 67t9.5 76t12 78.5t12 74.5t10 63.5l7.5 47.5q2 19 20 25.5t38 5.5q57 0 106.5 -1t72.5 0q57 0 94.5 -2t61.5 -5 q7 -1 13 -7t6 -13.5t-8.5 -15t-30.5 -10.5q-21 -3 -38 -5.5t-35 -5t-39 -4.5t-50 -5l-60 -8q3 -15 5.5 -35t3 -49t-1 -68.5t-6.5 -93.5h7q56 0 93 -1.5t63 -4.5q7 -1 13 -7.5t6 -14t-9 -15t-31 -10.5q-19 -3 -35.5 -4.5t-33.5 -3.5t-35.5 -4t-42.5 -6q0 -53 -0.5 -105 t3.5 -94.5t15.5 -70.5t35.5 -33q18 -4 44.5 -1t55 10.5t55 18.5t45.5 23zM394 797q-12 -11 -32 -4t-41 21.5t-38 31.5t-23 28q-12 21 -9.5 36t21.5 28q25 18 44.5 12t27.5 -35q8 -30 19 -50t20 -33.5t13 -21t-2 -13.5z" glyph-name="Egrave" horiz-adv-x="625" unicode="È"/>
<glyph d="M528 91q11 7 24.5 5t22.5 -9.5t10 -19.5t-12 -25q-22 -21 -59.5 -36t-82.5 -23t-94 -7.5t-95 10.5q-33 4 -64 21.5t-55 54.5t-38.5 96t-14.5 146q2 30 6 67t9.5 76t12 78.5t12 74.5t10 63.5l7.5 47.5q2 19 20 25.5t38 5.5q57 0 106.5 -1t72.5 0q57 0 94.5 -2t61.5 -5 q7 -1 13 -7t6 -13.5t-8.5 -15t-30.5 -10.5q-21 -3 -38 -5.5t-35 -5t-39 -4.5t-50 -5l-60 -8q3 -15 5.5 -35t3 -49t-1 -68.5t-6.5 -93.5h7q56 0 93 -1.5t63 -4.5q7 -1 13 -7.5t6 -14t-9 -15t-31 -10.5q-19 -3 -35.5 -4.5t-33.5 -3.5t-35.5 -4t-42.5 -6q0 -53 -0.5 -105 t3.5 -94.5t15.5 -70.5t35.5 -33q18 -4 44.5 -1t55 10.5t55 18.5t45.5 23zM279 797q-6 6 -2 13.5t13 21t20 33.5t19 50q8 29 27.5 35t44.5 -12q19 -13 21.5 -28t-9.5 -36q-6 -11 -23 -28t-38 -31.5t-41 -21.5t-32 4z" glyph-name="Eacute" horiz-adv-x="625" unicode="É"/>
<glyph d="M528 91q11 7 24.5 5t22.5 -9.5t10 -19.5t-12 -25q-22 -21 -59.5 -36t-82.5 -23t-94 -7.5t-95 10.5q-33 4 -64 21.5t-55 54.5t-38.5 96t-14.5 146q2 30 6 67t9.5 76t12 78.5t12 74.5t10 63.5l7.5 47.5q2 19 20 25.5t38 5.5q57 0 106.5 -1t72.5 0q57 0 94.5 -2t61.5 -5 q7 -1 13 -7t6 -13.5t-8.5 -15t-30.5 -10.5q-21 -3 -38 -5.5t-35 -5t-39 -4.5t-50 -5l-60 -8q3 -15 5.5 -35t3 -49t-1 -68.5t-6.5 -93.5h7q56 0 93 -1.5t63 -4.5q7 -1 13 -7.5t6 -14t-9 -15t-31 -10.5q-19 -3 -35.5 -4.5t-33.5 -3.5t-35.5 -4t-42.5 -6q0 -53 -0.5 -105 t3.5 -94.5t15.5 -70.5t35.5 -33q18 -4 44.5 -1t55 10.5t55 18.5t45.5 23zM252 802q-4 -6 -12.5 -5t-15.5 6t-9.5 13t4.5 16q6 9 14.5 19.5l17 21t16 19.5l12.5 15q9 11 20 24t31 16q22 4 34.5 5t20 -2.5t14 -10.5t17.5 -19q24 -24 33.5 -41t20.5 -32t5.5 -26.5t-16.5 -17.5 q-24 -14 -39 -10.5t-28 18.5q-6 7 -14.5 17t-16.5 20t-14 18t-9 11q-6 7 -16.5 2t-19.5 -14q-13 -17 -27 -34.5t-23 -28.5z" glyph-name="Ecircumflex" horiz-adv-x="625" unicode="Ê"/>
<glyph d="M247 808q-52 6 -43 58q10 53 63 46q52 -6 43 -58t-63 -46zM410 808q-52 6 -43 58q10 53 63 46q52 -6 43 -58t-63 -46zM528 91q11 7 24.5 5t22.5 -9.5t10 -19.5t-12 -25q-22 -21 -59.5 -36t-82.5 -23t-94 -7.5t-95 10.5q-33 4 -64 21.5t-55 54.5t-38.5 96t-14.5 146 q2 30 6 67t9.5 76t12 78.5t12 74.5t10 63.5l7.5 47.5q2 19 20 25.5t38 5.5q57 0 106.5 -1t72.5 0q57 0 94.5 -2t61.5 -5q7 -1 13 -7t6 -13.5t-8.5 -15t-30.5 -10.5q-21 -3 -38 -5.5t-35 -5t-39 -4.5t-50 -5l-60 -8q3 -15 5.5 -35t3 -49t-1 -68.5t-6.5 -93.5h7q56 0 93 -1.5 t63 -4.5q7 -1 13 -7.5t6 -14t-9 -15t-31 -10.5q-19 -3 -35.5 -4.5t-33.5 -3.5t-35.5 -4t-42.5 -6q0 -53 -0.5 -105t3.5 -94.5t15.5 -70.5t35.5 -33q18 -4 44.5 -1t55 10.5t55 18.5t45.5 23z" glyph-name="Edieresis" horiz-adv-x="625" unicode="Ë"/>
<glyph d="M126 -45q-19 -1 -30.5 14t-17.5 40.5t-7 58.5t-0.5 68.5t2.5 71t3 66.5q1 46 6.5 109t12.5 125.5t13 116.5t9 82q3 23 25 31t44 6t47 -15.5t35 -46.5q9 -32 12 -72t-2 -105q-2 -21 -2.5 -54.5t-0.5 -72.5v-81t0.5 -79.5t0.5 -68.5v-48q0 -27 -4.5 -45.5t-10.5 -31.5 t-14 -21.5t-15 -14.5q-16 -13 -42 -22t-64 -11zM258 797q-12 -11 -32 -4t-41 21.5t-38 31.5t-23 28q-12 21 -9.5 36t21.5 28q25 18 44.5 12t27.5 -35q8 -30 19 -50t20 -33.5t13 -21t-2 -13.5z" glyph-name="Igrave" horiz-adv-x="366" unicode="Ì"/>
<glyph d="M126 -45q-19 -1 -30.5 14t-17.5 40.5t-7 58.5t-0.5 68.5t2.5 71t3 66.5q1 46 6.5 109t12.5 125.5t13 116.5t9 82q3 23 25 31t44 6t47 -15.5t35 -46.5q9 -32 12 -72t-2 -105q-2 -21 -2.5 -54.5t-0.5 -72.5v-81t0.5 -79.5t0.5 -68.5v-48q0 -27 -4.5 -45.5t-10.5 -31.5 t-14 -21.5t-15 -14.5q-16 -13 -42 -22t-64 -11zM155 797q-6 6 -2 13.5t13 21t20 33.5t19 50q8 29 27.5 35t44.5 -12q19 -13 21.5 -28t-9.5 -36q-6 -11 -23 -28t-38 -31.5t-41 -21.5t-32 4z" glyph-name="Iacute" horiz-adv-x="366" unicode="Í"/>
<glyph d="M101 817q-5 -6 -14.5 -5t-17.5 6.5t-11.5 15t4.5 19.5t17.5 22t19.5 23.5t18.5 22t14.5 17.5q11 13 23.5 28t34.5 19q26 5 40 5.5t23 -3t16.5 -12.5t20.5 -22q27 -27 39 -47t23 -37q12 -17 6.5 -30.5t-18.5 -20.5q-29 -16 -46 -12t-32 21q-7 9 -16.5 20.5t-18.5 23 t-16.5 21t-10.5 13.5q-8 8 -19.5 2t-21.5 -17q-16 -19 -31.5 -39t-26.5 -34zM126 -45q-19 -1 -30.5 14t-17.5 40.5t-7 58.5t-0.5 68.5t2.5 71t3 66.5q1 46 6.5 109t12.5 125.5t13 116.5t9 82q3 23 25 31t44 6t47 -15.5t35 -46.5q9 -32 12 -72t-2 -105q-2 -21 -2.5 -54.5 t-0.5 -72.5v-81t0.5 -79.5t0.5 -68.5v-48q0 -27 -4.5 -45.5t-10.5 -31.5t-14 -21.5t-15 -14.5q-16 -13 -42 -22t-64 -11z" glyph-name="Icircumflex" horiz-adv-x="366" unicode="Î"/>
<glyph d="M97 778q-52 6 -43 58q10 53 63 46q52 -6 43 -58t-63 -46zM260 778q-52 6 -43 58q10 53 63 46q52 -6 43 -58t-63 -46zM126 -45q-19 -1 -30.5 14t-17.5 40.5t-7 58.5t-0.5 68.5t2.5 71t3 66.5q1 46 6.5 109t12.5 125.5t13 116.5t9 82q3 23 25 31t44 6t47 -15.5t35 -46.5 q9 -32 12 -72t-2 -105q-2 -21 -2.5 -54.5t-0.5 -72.5v-81t0.5 -79.5t0.5 -68.5v-48q0 -27 -4.5 -45.5t-10.5 -31.5t-14 -21.5t-15 -14.5q-16 -13 -42 -22t-64 -11z" glyph-name="Idieresis" horiz-adv-x="366" unicode="Ï"/>
<glyph d="M425 732q58 0 105.5 -32.5t80.5 -85t50 -118t15 -131.5q-3 -74 -23 -135.5t-52.5 -110.5t-74.5 -84t-89 -55q-16 -8 -41.5 -9t-39.5 10t-14.5 26t22.5 29q37 24 67 57.5t51 74t32 85t11 89.5q0 20 -1.5 51.5t-6.5 66.5t-13.5 70.5t-22.5 63.5t-33.5 46t-45.5 18 q-17 0 -36.5 -21.5t-37.5 -54t-32 -71.5t-20 -75v-3q19 0 37 -1t32 -3q12 -2 19 -7.5t6 -13t-12 -15t-33 -11.5l-50 -7q0 -39 0.5 -80t0.5 -78.5v-68v-47.5q0 -27 -4.5 -45.5t-10.5 -31.5t-14 -21.5t-15 -14.5q-16 -13 -42 -22t-64 -11q-19 -1 -30.5 14t-17.5 40.5t-7 58.5 t-0.5 68.5t2.5 71t3 66.5q2 46 6 102q-8 1 -17 1.5t-18 2.5q-14 2 -22 9t-9 15.5t7 15.5t26 8q10 0 19.5 0.5t18.5 0.5q4 41 8.5 83t8.5 79t7.5 67.5t5.5 48.5q3 23 25 31t44 6t47 -15.5t35 -46.5q5 -16 7.5 -33t4.5 -38q13 24 29 46t35 38.5t39.5 26.5t41.5 10z" glyph-name="Eth" horiz-adv-x="746" unicode="Ð"/>
<glyph d="M232 823q-16 11 -13 25.5t16 28.5q14 14 30 23.5t45 10.5q24 1 42 -8.5t31.5 -21.5t24.5 -22t22 -10q9 0 16 5t13 12.5t10 14.5t7 12q3 4 9.5 4t12.5 -3.5t9 -10t-1 -14.5q-5 -9 -11.5 -20.5t-16 -22t-22.5 -18t-30 -7.5t-30.5 7.5t-24.5 17t-21.5 17t-21.5 7.5 q-16 0 -23.5 -7.5t-21.5 -16.5q-13 -10 -25 -12t-26 9zM597 699q4 -14 5.5 -36.5t1 -51t-2 -60.5t-3.5 -63q-2 -33 -3.5 -88t-2 -113.5t-1 -110.5t-0.5 -78t-0.5 -56.5t-8.5 -48.5q-1 -4 -4 -8q-1 -2 -5 -6q-9 -8 -20 -10t-24 -2h-11.5t-10.5 1q-12 1 -20 6t-16.5 14 t-18 22.5t-22.5 30.5q-29 38 -56 91.5t-65 125.5q-11 22 -25 52.5t-29.5 65t-31.5 70.5t-31 69q-1 -3 -1 -10q-2 -33 -3.5 -88t-2.5 -113.5t-1 -110v-78.5v-34.5t-1.5 -35t-5.5 -30t-11 -19.5q-13 -11 -30 -11.5t-36 0.5q-15 1 -21.5 29t-8 70t0 91t1.5 91q0 30 2 69t5 81.5 t6.5 86t7 82.5t6 70.5t3.5 50.5q2 24 11 34.5t21 11.5q14 4 34.5 2.5t38.5 -9.5q26 -12 46.5 -39t40 -64t40.5 -81t47 -90q23 -39 48 -93t50 -112q1 47 5.5 108.5t9.5 122.5t9 112.5t6 78.5q2 32 16.5 40.5t31.5 3.5q20 -5 27.5 -11.5t12.5 -21.5z" glyph-name="Ntilde" horiz-adv-x="673" unicode="Ñ"/>
<glyph d="M382 -24q-24 0 -57 3.5t-68 16.5t-69.5 37.5t-61 66.5t-42.5 103.5t-14 149.5q2 101 24.5 171.5t53 117t65 72.5t60.5 40q17 7 39 4.5t36 -13.5q8 -6 15 -14t10.5 -18t3 -21t-8.5 -24q-13 -21 -29.5 -51.5t-31 -70.5t-24.5 -90t-10 -111q0 -62 8.5 -118.5t26 -100.5 t45.5 -70t67 -26q26 0 47.5 16t38.5 42t29 60t19.5 70.5t11 72t2.5 65.5q-2 59 -11 109t-21 87.5t-24 62t-20 32.5q-20 20 -41 22t-41 -1q-8 -1 -14.5 6.5t-8.5 18t2 20t17 12.5q34 8 61 1t50 -24q20 -15 41 -47t38 -77t27.5 -102t8.5 -123q-1 -32 -5 -72.5t-13.5 -82 t-27 -81.5t-45 -71t-66.5 -50.5t-93 -19.5zM445 797q-12 -11 -32 -4t-41 21.5t-38 31.5t-23 28q-12 21 -9.5 36t21.5 28q25 18 44.5 12t27.5 -35q8 -30 19 -50t20 -33.5t13 -21t-2 -13.5z" glyph-name="Ograve" horiz-adv-x="702" unicode="Ò"/>
<glyph d="M382 -24q-24 0 -57 3.5t-68 16.5t-69.5 37.5t-61 66.5t-42.5 103.5t-14 149.5q2 101 24.5 171.5t53 117t65 72.5t60.5 40q17 7 39 4.5t36 -13.5q8 -6 15 -14t10.5 -18t3 -21t-8.5 -24q-13 -21 -29.5 -51.5t-31 -70.5t-24.5 -90t-10 -111q0 -62 8.5 -118.5t26 -100.5 t45.5 -70t67 -26q26 0 47.5 16t38.5 42t29 60t19.5 70.5t11 72t2.5 65.5q-2 59 -11 109t-21 87.5t-24 62t-20 32.5q-20 20 -41 22t-41 -1q-8 -1 -14.5 6.5t-8.5 18t2 20t17 12.5q34 8 61 1t50 -24q20 -15 41 -47t38 -77t27.5 -102t8.5 -123q-1 -32 -5 -72.5t-13.5 -82 t-27 -81.5t-45 -71t-66.5 -50.5t-93 -19.5zM336 797q-6 6 -2 13.5t13 21t20 33.5t19 50q8 29 27.5 35t44.5 -12q19 -13 21.5 -28t-9.5 -36q-6 -11 -23 -28t-38 -31.5t-41 -21.5t-32 4z" glyph-name="Oacute" horiz-adv-x="702" unicode="Ó"/>
<glyph d="M382 -24q-24 0 -57 3.5t-68 16.5t-69.5 37.5t-61 66.5t-42.5 103.5t-14 149.5q2 101 24.5 171.5t53 117t65 72.5t60.5 40q17 7 39 4.5t36 -13.5q8 -6 15 -14t10.5 -18t3 -21t-8.5 -24q-13 -21 -29.5 -51.5t-31 -70.5t-24.5 -90t-10 -111q0 -62 8.5 -118.5t26 -100.5 t45.5 -70t67 -26q26 0 47.5 16t38.5 42t29 60t19.5 70.5t11 72t2.5 65.5q-2 59 -11 109t-21 87.5t-24 62t-20 32.5q-20 20 -41 22t-41 -1q-8 -1 -14.5 6.5t-8.5 18t2 20t17 12.5q34 8 61 1t50 -24q20 -15 41 -47t38 -77t27.5 -102t8.5 -123q-1 -32 -5 -72.5t-13.5 -82 t-27 -81.5t-45 -71t-66.5 -50.5t-93 -19.5zM282 802q-4 -6 -12.5 -5t-15.5 6t-9.5 13t4.5 16q6 9 14.5 19.5l17 21t16 19.5l12.5 15q9 11 20 24t31 16q22 4 34.5 5t20 -2.5t14 -10.5t17.5 -19q24 -24 33.5 -41t20.5 -32t5.5 -26.5t-16.5 -17.5q-24 -14 -39 -10.5t-28 18.5 q-6 7 -14.5 17t-16.5 20t-14 18t-9 11q-6 7 -16.5 2t-19.5 -14q-13 -17 -27 -34.5t-23 -28.5z" glyph-name="Ocircumflex" horiz-adv-x="702" unicode="Ô"/>
<glyph d="M382 -24q-24 0 -57 3.5t-68 16.5t-69.5 37.5t-61 66.5t-42.5 103.5t-14 149.5q2 101 24.5 171.5t53 117t65 72.5t60.5 40q17 7 39 4.5t36 -13.5q8 -6 15 -14t10.5 -18t3 -21t-8.5 -24q-13 -21 -29.5 -51.5t-31 -70.5t-24.5 -90t-10 -111q0 -62 8.5 -118.5t26 -100.5 t45.5 -70t67 -26q26 0 47.5 16t38.5 42t29 60t19.5 70.5t11 72t2.5 65.5q-2 59 -11 109t-21 87.5t-24 62t-20 32.5q-20 20 -41 22t-41 -1q-8 -1 -14.5 6.5t-8.5 18t2 20t17 12.5q34 8 61 1t50 -24q20 -15 41 -47t38 -77t27.5 -102t8.5 -123q-1 -32 -5 -72.5t-13.5 -82 t-27 -81.5t-45 -71t-66.5 -50.5t-93 -19.5zM257 815q-16 11 -13 25.5t16 28.5q14 14 30 23.5t45 10.5q24 1 42 -8.5t31.5 -21.5t24.5 -22t22 -10q9 0 16 5t13 12.5t10 14.5t7 12q3 4 9.5 4t12.5 -3.5t9 -10t-1 -14.5q-5 -9 -11.5 -20.5t-16 -22t-22.5 -18t-30 -7.5 t-30.5 7.5t-24.5 17t-21.5 17t-21.5 7.5q-16 0 -23.5 -7.5t-21.5 -16.5q-13 -10 -25 -12t-26 9z" glyph-name="Otilde" horiz-adv-x="702" unicode="Õ"/>
<glyph d="M289 797q-52 6 -43 58q10 53 63 46q52 -6 43 -58t-63 -46zM452 797q-52 6 -43 58q10 53 63 46q52 -6 43 -58t-63 -46zM382 -24q-24 0 -57 3.5t-68 16.5t-69.5 37.5t-61 66.5t-42.5 103.5t-14 149.5q2 101 24.5 171.5t53 117t65 72.5t60.5 40q17 7 39 4.5t36 -13.5 q8 -6 15 -14t10.5 -18t3 -21t-8.5 -24q-13 -21 -29.5 -51.5t-31 -70.5t-24.5 -90t-10 -111q0 -62 8.5 -118.5t26 -100.5t45.5 -70t67 -26q26 0 47.5 16t38.5 42t29 60t19.5 70.5t11 72t2.5 65.5q-2 59 -11 109t-21 87.5t-24 62t-20 32.5q-20 20 -41 22t-41 -1 q-8 -1 -14.5 6.5t-8.5 18t2 20t17 12.5q34 8 61 1t50 -24q20 -15 41 -47t38 -77t27.5 -102t8.5 -123q-1 -32 -5 -72.5t-13.5 -82t-27 -81.5t-45 -71t-66.5 -50.5t-93 -19.5z" glyph-name="Odieresis" horiz-adv-x="702" unicode="Ö"/>
<glyph d="M341 153q17 -25 11 -40.5t-18 -23.5q-6 -4 -12.5 -8.5t-14.5 -7.5t-17.5 -2.5t-20.5 8.5t-34.5 34t-47.5 55q-23 -28 -45.5 -52.5t-41.5 -41.5q-10 -9 -21 -10.5t-18 3t-7 15t11 25.5q20 24 42.5 53t42.5 56q-8 10 -14 18.5t-10 14.5q-19 29 -35.5 57t-21.5 36 q-3 4 -6 10t-5 13t-1.5 13t5.5 11q16 13 42.5 15t49.5 -20q9 -8 27 -29t40 -48q18 22 36 42t34 34q9 8 18.5 9.5t14 -4.5t3.5 -19t-13 -32q-17 -28 -29.5 -45.5t-24.5 -33.5q27 -35 50 -64.5t31 -40.5z" glyph-name="multiply" horiz-adv-x="388" unicode="×"/>
<glyph d="M562 648q30 -48 51.5 -123.5t18.5 -171.5q-1 -32 -5 -72.5t-13.5 -82t-27 -81.5t-45 -71t-66.5 -50.5t-93 -19.5q-13 0 -29 1t-34 4q-12 -7 -21.5 -5.5t-14.5 6.5q-2 2 -2 7q-38 10 -76.5 32.5t-69 64.5t-49 107t-16.5 160q2 101 24.5 171.5t53 117t65 72.5t60.5 40 q17 7 39 4.5t36 -13.5q8 -6 15 -14t10.5 -18t3 -21t-8.5 -24q-13 -21 -29.5 -51.5t-31 -70.5t-24.5 -90t-10 -111q0 -67 10 -127.5t31 -105.5q12 34 25 70.5t24 69.5q13 38 31 91t37 107.5t37 105t30 84.5q-2 3 -6 7q-20 20 -41 22t-41 -1q-8 -1 -14.5 6.5t-8.5 18t2 20 t17 12.5q34 8 61 1t50 -24q3 -2 9 -8q12 10 24 9.5t17 -9.5q4 -6 2 -19t-7 -27zM420 30q26 0 47.5 16t38.5 42t29 60t19.5 70.5t11 72t2.5 65.5q-2 65 -12.5 118t-23.5 91q-10 -27 -21 -58.5t-22 -69.5q-10 -32 -26 -80.5t-33 -99.5t-32 -97t-23 -71q-3 -9 -6 -19t-7 -20 q26 -20 58 -20z" glyph-name="Oslash" horiz-adv-x="702" unicode="Ø"/>
<glyph d="M373 -24q-42 0 -90.5 11.5t-92 44t-75.5 90.5t-39 152q-4 46 -5 106.5t-1 121.5t2 115.5t4 89.5q2 23 23 31t44 6q22 -2 47.5 -15.5t37.5 -46.5q12 -32 17.5 -72t5.5 -105q-1 -131 9.5 -222t31 -148t50.5 -82t69 -23q39 0 66.5 32t44.5 80.5t25 105.5t9 108q2 84 -2 166 t-6 166q-2 31 13 40t33 4q19 -5 27 -11.5t14 -21.5q5 -14 7.5 -36.5t3.5 -51t1 -60.5v-63q-1 -34 -1.5 -67.5t-2.5 -67.5q-2 -37 -8 -79.5t-18 -84.5t-31.5 -80t-48.5 -67.5t-69.5 -47.5t-94.5 -18zM442 797q-12 -11 -32 -4t-41 21.5t-38 31.5t-23 28q-12 21 -9.5 36 t21.5 28q25 18 44.5 12t27.5 -35q8 -30 19 -50t20 -33.5t13 -21t-2 -13.5z" glyph-name="Ugrave" horiz-adv-x="717" unicode="Ù"/>
<glyph d="M373 -24q-42 0 -90.5 11.5t-92 44t-75.5 90.5t-39 152q-4 46 -5 106.5t-1 121.5t2 115.5t4 89.5q2 23 23 31t44 6q22 -2 47.5 -15.5t37.5 -46.5q12 -32 17.5 -72t5.5 -105q-1 -131 9.5 -222t31 -148t50.5 -82t69 -23q39 0 66.5 32t44.5 80.5t25 105.5t9 108q2 84 -2 166 t-6 166q-2 31 13 40t33 4q19 -5 27 -11.5t14 -21.5q5 -14 7.5 -36.5t3.5 -51t1 -60.5v-63q-1 -34 -1.5 -67.5t-2.5 -67.5q-2 -37 -8 -79.5t-18 -84.5t-31.5 -80t-48.5 -67.5t-69.5 -47.5t-94.5 -18zM326 797q-6 6 -2 13.5t13 21t20 33.5t19 50q8 29 27.5 35t44.5 -12 q19 -13 21.5 -28t-9.5 -36q-6 -11 -23 -28t-38 -31.5t-41 -21.5t-32 4z" glyph-name="Uacute" horiz-adv-x="717" unicode="Ú"/>
<glyph d="M288 818q-5 -6 -14.5 -5t-17.5 6.5t-11.5 15t4.5 19.5t17.5 22t19.5 23.5t18.5 22t14.5 17.5q11 13 23.5 28t34.5 19q26 5 40 5.5t23 -3t16.5 -12.5t20.5 -22q27 -27 39 -47t23 -37q12 -17 6.5 -30.5t-18.5 -20.5q-29 -16 -46 -12t-32 21q-7 9 -16.5 20.5t-18.5 23 t-16.5 21t-10.5 13.5q-8 8 -19.5 2t-21.5 -17q-16 -19 -31.5 -39t-26.5 -34zM373 -24q-42 0 -90.5 11.5t-92 44t-75.5 90.5t-39 152q-4 46 -5 106.5t-1 121.5t2 115.5t4 89.5q2 23 23 31t44 6q22 -2 47.5 -15.5t37.5 -46.5q12 -32 17.5 -72t5.5 -105q-1 -131 9.5 -222 t31 -148t50.5 -82t69 -23q39 0 66.5 32t44.5 80.5t25 105.5t9 108q2 84 -2 166t-6 166q-2 31 13 40t33 4q19 -5 27 -11.5t14 -21.5q5 -14 7.5 -36.5t3.5 -51t1 -60.5v-63q-1 -34 -1.5 -67.5t-2.5 -67.5q-2 -37 -8 -79.5t-18 -84.5t-31.5 -80t-48.5 -67.5t-69.5 -47.5 t-94.5 -18z" glyph-name="Ucircumflex" horiz-adv-x="717" unicode="Û"/>
<glyph d="M284 779q-52 6 -43 58q10 53 63 46q52 -6 43 -58t-63 -46zM447 779q-52 6 -43 58q10 53 63 46q52 -6 43 -58t-63 -46zM373 -24q-42 0 -90.5 11.5t-92 44t-75.5 90.5t-39 152q-4 46 -5 106.5t-1 121.5t2 115.5t4 89.5q2 23 23 31t44 6q22 -2 47.5 -15.5t37.5 -46.5 q12 -32 17.5 -72t5.5 -105q-1 -131 9.5 -222t31 -148t50.5 -82t69 -23q39 0 66.5 32t44.5 80.5t25 105.5t9 108q2 84 -2 166t-6 166q-2 31 13 40t33 4q19 -5 27 -11.5t14 -21.5q5 -14 7.5 -36.5t3.5 -51t1 -60.5v-63q-1 -34 -1.5 -67.5t-2.5 -67.5q-2 -37 -8 -79.5 t-18 -84.5t-31.5 -80t-48.5 -67.5t-69.5 -47.5t-94.5 -18z" glyph-name="Udieresis" horiz-adv-x="717" unicode="Ü"/>
<glyph d="M568 703q7 -19 12 -55t8.5 -78.5t5 -88t1.5 -82.5q0 -91 -10 -158.5t-27.5 -116t-39.5 -80t-46.5 -50t-49 -27t-46.5 -11.5q-93 -11 -147.5 7t-85.5 71q-10 16 -4.5 25.5t17.5 13t25 2.5t18 -6t12 -14t17 -18t24 -17t32 -10q24 -3 46.5 11t40 50t29 96.5t14.5 149.5 q1 23 1 46.5t1 48.5q-11 -45 -25 -82.5t-34.5 -64t-47.5 -41.5t-63 -15q-51 0 -87 12.5t-59 32.5t-34 46t-14 54q-3 31 -1.5 82t6 104.5t11.5 101.5t16 72q7 20 20.5 31.5t30 17.5t32.5 6.5t28 -2.5q10 -3 18 -6.5t12.5 -12t6 -23t-2.5 -38.5q-3 -16 -7.5 -53.5t-8.5 -84 t-5.5 -97t3 -92t16 -68t34.5 -26.5q25 0 48 30t43.5 79t36.5 112t27 129q-2 72 0 112q1 23 22.5 30.5t44.5 5.5q22 -2 47.5 -15.5t37.5 -45.5zM277 797q-6 6 -2 13.5t13 21t20 33.5t19 50q8 29 27.5 35t44.5 -12q19 -13 21.5 -28t-9.5 -36q-6 -11 -23 -28t-38 -31.5 t-41 -21.5t-32 4z" glyph-name="Yacute" horiz-adv-x="687" unicode="Ý"/>
<glyph d="M571 455q8 -53 0.5 -96.5t-24.5 -77.5t-40 -59t-45.5 -41.5t-41 -25t-26.5 -9.5q-17 -2 -28.5 1t-25.5 14q-7 6 -13 13.5t-9 16.5t-1 18t13 17q44 28 68 83t23 124q-1 51 -13.5 79.5t-31.5 28.5q-17 0 -33 -11.5t-29.5 -30.5t-23.5 -44t-15 -52v-86t0.5 -86.5t0.5 -76 v-53.5q0 -27 -4.5 -45.5t-10.5 -31.5t-14 -21.5t-15 -14.5q-16 -13 -42 -22t-64 -11q-19 -1 -30.5 14t-17.5 40.5t-7 58.5t-0.5 68.5t2.5 71t3 66.5q1 46 6.5 109t12.5 125.5t13 116.5t9 82q3 23 25 31t44 6t47 -15.5t35 -46.5q8 -28 11 -62t1 -85q25 35 56 58t64 23 q27 0 54.5 -8.5t51 -27.5t41 -49.5t24.5 -75.5z" glyph-name="Thorn" horiz-adv-x="615" unicode="Þ"/>
<glyph d="M75 -34q-29 7 -43.5 22t-10.5 42q1 13 1.5 46.5t0.5 75.5t-1 86.5t-1 80.5q0 35 2.5 77t12 81t27 70.5t47.5 46.5q42 20 85 19t77.5 -19t55.5 -49.5t18 -72.5q-1 -19 -6 -34t-11.5 -26t-12.5 -19t-10 -13q-17 -20 -14.5 -27.5t19.5 -18.5q8 -5 26 -17t36 -32.5t32 -49.5 t14 -68q0 -51 -25.5 -85t-60.5 -47q-26 -8 -48.5 -9t-43.5 4q-8 1 -11 8.5t-1.5 15t8 14t17.5 6.5q45 -1 77 18.5t33 71.5q0 29 -7 50t-18 36t-24.5 25t-25.5 19q-15 11 -27 17.5t-19.5 13t-11 14t-2.5 21.5q0 12 11 23l23.5 23.5t23.5 28t11 37.5q1 34 -18.5 48t-41.5 14 q-11 0 -23.5 -5.5t-22.5 -17.5t-16 -30.5t-3 -43.5q17 -146 16 -255.5t-21 -178.5q-8 -24 -32 -35.5t-61 -1.5z" glyph-name="germandbls" horiz-adv-x="490" unicode="ß"/>
<glyph d="M639 323q9 -6 4 -20q-20 -67 -41.5 -122t-45.5 -94.5t-51 -62.5t-58 -26q-38 -3 -64 5t-43.5 24.5t-27 40.5t-13.5 51q-12 -23 -28 -43t-34 -35t-37.5 -24t-38.5 -9q-28 0 -57.5 7.5t-55 25.5t-43.5 47.5t-22 74.5q-6 64 17.5 119t66 95t98 62.5t113.5 22.5 q29 0 57.5 -5.5t55.5 -23.5q37 -25 21 -52q-5 -9 -17 -11.5t-22 5.5q-6 5 -11.5 9t-17.5 9q-38 15 -78 2t-71.5 -44t-51 -74.5t-16.5 -91.5q2 -51 22.5 -77t46.5 -26q17 0 33.5 12.5t30.5 33.5t25 48.5t18 56.5q2 15 4.5 28t4.5 24q6 28 15.5 42.5t21.5 19t26.5 1.5 t31.5 -11q24 -12 31.5 -28t2.5 -52q-3 -24 -6.5 -58.5t-2.5 -66.5t7.5 -54.5t23.5 -22.5q16 0 34.5 22.5t37 59t36.5 83.5t33 96q5 13 16 13t19 -6zM369 524q-12 -11 -32 -4t-41 21.5t-38 31.5t-23 28q-12 21 -9.5 36t21.5 28q25 18 44.5 12t27.5 -35q8 -30 19 -50t20 -33.5 t13 -21t-2 -13.5z" glyph-name="agrave" horiz-adv-x="587" unicode="à"/>
<glyph d="M639 323q9 -6 4 -20q-20 -67 -41.5 -122t-45.5 -94.5t-51 -62.5t-58 -26q-38 -3 -64 5t-43.5 24.5t-27 40.5t-13.5 51q-12 -23 -28 -43t-34 -35t-37.5 -24t-38.5 -9q-28 0 -57.5 7.5t-55 25.5t-43.5 47.5t-22 74.5q-6 64 17.5 119t66 95t98 62.5t113.5 22.5 q29 0 57.5 -5.5t55.5 -23.5q37 -25 21 -52q-5 -9 -17 -11.5t-22 5.5q-6 5 -11.5 9t-17.5 9q-38 15 -78 2t-71.5 -44t-51 -74.5t-16.5 -91.5q2 -51 22.5 -77t46.5 -26q17 0 33.5 12.5t30.5 33.5t25 48.5t18 56.5q2 15 4.5 28t4.5 24q6 28 15.5 42.5t21.5 19t26.5 1.5 t31.5 -11q24 -12 31.5 -28t2.5 -52q-3 -24 -6.5 -58.5t-2.5 -66.5t7.5 -54.5t23.5 -22.5q16 0 34.5 22.5t37 59t36.5 83.5t33 96q5 13 16 13t19 -6zM263 524q-6 6 -2 13.5t13 21t20 33.5t19 50q8 29 27.5 35t44.5 -12q19 -13 21.5 -28t-9.5 -36q-6 -11 -23 -28t-38 -31.5 t-41 -21.5t-32 4z" glyph-name="aacute" horiz-adv-x="587" unicode="á"/>
<glyph d="M204 528q-4 -6 -12.5 -5t-15.5 6t-9.5 13t4.5 16q6 9 14.5 19.5l17 21t16 19.5l12.5 15q9 11 20 24t31 16q22 4 34.5 5t20 -2.5t14 -10.5t17.5 -19q24 -24 33.5 -41t20.5 -32t5.5 -26.5t-16.5 -17.5q-24 -14 -39 -10.5t-28 18.5q-6 7 -14.5 17t-16.5 20t-14 18t-9 11 q-6 7 -16.5 2t-19.5 -14q-13 -17 -27 -34.5t-23 -28.5zM639 323q9 -6 4 -20q-20 -67 -41.5 -122t-45.5 -94.5t-51 -62.5t-58 -26q-38 -3 -64 5t-43.5 24.5t-27 40.5t-13.5 51q-12 -23 -28 -43t-34 -35t-37.5 -24t-38.5 -9q-28 0 -57.5 7.5t-55 25.5t-43.5 47.5t-22 74.5 q-6 64 17.5 119t66 95t98 62.5t113.5 22.5q29 0 57.5 -5.5t55.5 -23.5q37 -25 21 -52q-5 -9 -17 -11.5t-22 5.5q-6 5 -11.5 9t-17.5 9q-38 15 -78 2t-71.5 -44t-51 -74.5t-16.5 -91.5q2 -51 22.5 -77t46.5 -26q17 0 33.5 12.5t30.5 33.5t25 48.5t18 56.5q2 15 4.5 28t4.5 24 q6 28 15.5 42.5t21.5 19t26.5 1.5t31.5 -11q24 -12 31.5 -28t2.5 -52q-3 -24 -6.5 -58.5t-2.5 -66.5t7.5 -54.5t23.5 -22.5q16 0 34.5 22.5t37 59t36.5 83.5t33 96q5 13 16 13t19 -6z" glyph-name="acircumflex" horiz-adv-x="587" unicode="â"/>
<glyph d="M639 323q9 -6 4 -20q-20 -67 -41.5 -122t-45.5 -94.5t-51 -62.5t-58 -26q-38 -3 -64 5t-43.5 24.5t-27 40.5t-13.5 51q-12 -23 -28 -43t-34 -35t-37.5 -24t-38.5 -9q-28 0 -57.5 7.5t-55 25.5t-43.5 47.5t-22 74.5q-6 64 17.5 119t66 95t98 62.5t113.5 22.5 q29 0 57.5 -5.5t55.5 -23.5q37 -25 21 -52q-5 -9 -17 -11.5t-22 5.5q-6 5 -11.5 9t-17.5 9q-38 15 -78 2t-71.5 -44t-51 -74.5t-16.5 -91.5q2 -51 22.5 -77t46.5 -26q17 0 33.5 12.5t30.5 33.5t25 48.5t18 56.5q2 15 4.5 28t4.5 24q6 28 15.5 42.5t21.5 19t26.5 1.5 t31.5 -11q24 -12 31.5 -28t2.5 -52q-3 -24 -6.5 -58.5t-2.5 -66.5t7.5 -54.5t23.5 -22.5q16 0 34.5 22.5t37 59t36.5 83.5t33 96q5 13 16 13t19 -6zM178 540q-16 11 -13 25.5t16 28.5q14 14 30 23.5t45 10.5q24 1 42 -8.5t31.5 -21.5t24.5 -22t22 -10q9 0 16 5t13 12.5 t10 14.5t7 12q3 4 9.5 4t12.5 -3.5t9 -10t-1 -14.5q-5 -9 -11.5 -20.5t-16 -22t-22.5 -18t-30 -7.5t-30.5 7.5t-24.5 17t-21.5 17t-21.5 7.5q-16 0 -23.5 -7.5t-21.5 -16.5q-13 -10 -25 -12t-26 9z" glyph-name="atilde" horiz-adv-x="587" unicode="ã"/>
<glyph d="M242 510q-52 6 -43 58q10 53 63 46q52 -6 43 -58t-63 -46zM405 510q-52 6 -43 58q10 53 63 46q52 -6 43 -58t-63 -46zM639 323q9 -6 4 -20q-20 -67 -41.5 -122t-45.5 -94.5t-51 -62.5t-58 -26q-38 -3 -64 5t-43.5 24.5t-27 40.5t-13.5 51q-12 -23 -28 -43t-34 -35 t-37.5 -24t-38.5 -9q-28 0 -57.5 7.5t-55 25.5t-43.5 47.5t-22 74.5q-6 64 17.5 119t66 95t98 62.5t113.5 22.5q29 0 57.5 -5.5t55.5 -23.5q37 -25 21 -52q-5 -9 -17 -11.5t-22 5.5q-6 5 -11.5 9t-17.5 9q-38 15 -78 2t-71.5 -44t-51 -74.5t-16.5 -91.5q2 -51 22.5 -77 t46.5 -26q17 0 33.5 12.5t30.5 33.5t25 48.5t18 56.5q2 15 4.5 28t4.5 24q6 28 15.5 42.5t21.5 19t26.5 1.5t31.5 -11q24 -12 31.5 -28t2.5 -52q-3 -24 -6.5 -58.5t-2.5 -66.5t7.5 -54.5t23.5 -22.5q16 0 34.5 22.5t37 59t36.5 83.5t33 96q5 13 16 13t19 -6z" glyph-name="adieresis" horiz-adv-x="587" unicode="ä"/>
<glyph d="M344 526q-16 2 -31.5 8t-27.5 16t-19.5 25.5t-7.5 37.5q0 26 7 44.5t18 31.5t24 21t25 13q19 8 30.5 3.5t19.5 -19.5q7 -16 1 -27q7 2 13 -0.5t11 -5.5q6 -5 14 -17.5t10 -39.5q1 -18 -5 -35.5t-18 -30.5t-28.5 -20.5t-35.5 -4.5zM320 617q-5 -19 1 -37.5t26 -21.5 q21 -3 33.5 12t14.5 35q2 14 -0.5 26t-10.5 18q-5 5 -9 9.5t-3 9.5l-11 -5q-19 -8 -28.5 -21t-12.5 -25zM639 323q9 -6 4 -20q-20 -67 -41.5 -122t-45.5 -94.5t-51 -62.5t-58 -26q-38 -3 -64 5t-43.5 24.5t-27 40.5t-13.5 51q-12 -23 -28 -43t-34 -35t-37.5 -24t-38.5 -9 q-28 0 -57.5 7.5t-55 25.5t-43.5 47.5t-22 74.5q-6 64 17.5 119t66 95t98 62.5t113.5 22.5q29 0 57.5 -5.5t55.5 -23.5q37 -25 21 -52q-5 -9 -17 -11.5t-22 5.5q-6 5 -11.5 9t-17.5 9q-38 15 -78 2t-71.5 -44t-51 -74.5t-16.5 -91.5q2 -51 22.5 -77t46.5 -26q17 0 33.5 12.5 t30.5 33.5t25 48.5t18 56.5q2 15 4.5 28t4.5 24q6 28 15.5 42.5t21.5 19t26.5 1.5t31.5 -11q24 -12 31.5 -28t2.5 -52q-3 -24 -6.5 -58.5t-2.5 -66.5t7.5 -54.5t23.5 -22.5q16 0 34.5 22.5t37 59t36.5 83.5t33 96q5 13 16 13t19 -6z" glyph-name="aring" horiz-adv-x="587" unicode="å"/>
<glyph d="M823 333q7 -6 4 -20q-20 -67 -56 -123t-80.5 -96t-94 -62.5t-96.5 -23.5q-31 0 -62 6.5t-57.5 22.5t-45.5 43.5t-26 69.5q-17 -27 -38 -52.5t-44.5 -45.5t-48 -32t-47.5 -12q-27 0 -53.5 8.5t-47 27t-33 49.5t-12.5 76q0 53 13.5 96.5t34.5 77.5t47 59t49.5 41.5t42.5 25 t27 9.5q17 2 28.5 -1t25.5 -14q7 -6 13 -13.5t9 -16.5t0.5 -18t-12.5 -17q-18 -14 -38 -35t-37.5 -48t-30.5 -58.5t-18 -66.5q-8 -50 0.5 -79t26.5 -29t38 13.5t39 36t36 51t29 58.5q7 61 30 104t53 71.5t61.5 43t54.5 17.5q35 5 55.5 -2.5t42.5 -24.5q12 -9 22.5 -25 t16 -35.5t2.5 -41t-18 -41.5q-32 -48 -76.5 -80.5t-98.5 -56.5q-1 -20 2 -38.5t12 -32t24.5 -22t41.5 -8.5q30 0 68 22t74.5 58t67 82t45.5 95q5 13 16 13t19 -6zM531 359q-19 -22 -38 -55t-30 -73q15 8 32 21t33 27t29 28.5t19 26.5q7 13 5 23t-9.5 14.5t-19 2t-21.5 -14.5 z" glyph-name="ae" horiz-adv-x="770" unicode="æ"/>
<glyph d="M185 -2q-35 0 -70 8t-63.5 29t-46 58t-17.5 94q0 73 18.5 123.5t43 82t49.5 46.5t38 17q14 2 25 3t34 0q53 -2 79 -11t43 -27q17 -19 19.5 -40.5t-2.5 -41.5q-3 -12 -11 -17t-16 -3.5t-13 9t-3 18.5q4 19 0 34.5t-25 23.5q-28 11 -60 -24q-12 -12 -23.5 -29.5t-20.5 -41 t-15 -53t-6 -66.5q0 -59 15.5 -94t61.5 -37q30 -1 68 20.5t74.5 58t67 83t45.5 95.5q3 13 15 13q11 0 20 -6q8 -7 3 -20q-20 -67 -56 -123t-80.5 -96t-94 -62.5t-96.5 -23.5zM189 -260q-33 -5 -49 4t-16 18q0 17 33 34q21 10 36 25t20 38q7 35 -36 42q-21 5 -30.5 11.5 t-8.5 18.5q0 4 6 8.5t17 7t28 1.5t40 -8q6 -2 17.5 -7.5t22 -16.5t18.5 -28.5t7 -42.5q0 -26 -10.5 -44.5t-25.5 -31.5t-33.5 -20t-35.5 -9z" glyph-name="ccedilla" horiz-adv-x="456" unicode="ç"/>
<glyph d="M509 323q8 -7 3 -20q-20 -67 -56 -123t-80.5 -96t-94 -62.5t-96.5 -23.5q-35 0 -69.5 8t-62.5 29t-45 58t-17 94q0 73 22 124.5t53.5 85t66 50.5t59.5 20q35 5 56 -2.5t42 -24.5q12 -9 22.5 -25t16 -35.5t3 -41t-17.5 -41.5q-32 -48 -77 -80.5t-98 -56.5 q-1 -20 1.5 -38.5t11.5 -32t25 -22t42 -8.5q30 0 64.5 14.5t69 45.5t66 79.5t55.5 117.5q3 13 15 13q11 0 20 -6zM216 349q-19 -22 -38 -55t-30 -73q15 8 32.5 21t33.5 27t29 28.5t19 26.5q7 13 4.5 23t-10 14.5t-19 2t-21.5 -14.5zM273 524q-12 -11 -32 -4t-41 21.5 t-38 31.5t-23 28q-12 21 -9.5 36t21.5 28q25 18 44.5 12t27.5 -35q8 -30 19 -50t20 -33.5t13 -21t-2 -13.5z" glyph-name="egrave" horiz-adv-x="456" unicode="è"/>
<glyph d="M509 323q8 -7 3 -20q-20 -67 -56 -123t-80.5 -96t-94 -62.5t-96.5 -23.5q-35 0 -69.5 8t-62.5 29t-45 58t-17 94q0 73 22 124.5t53.5 85t66 50.5t59.5 20q35 5 56 -2.5t42 -24.5q12 -9 22.5 -25t16 -35.5t3 -41t-17.5 -41.5q-32 -48 -77 -80.5t-98 -56.5 q-1 -20 1.5 -38.5t11.5 -32t25 -22t42 -8.5q30 0 64.5 14.5t69 45.5t66 79.5t55.5 117.5q3 13 15 13q11 0 20 -6zM216 349q-19 -22 -38 -55t-30 -73q15 8 32.5 21t33.5 27t29 28.5t19 26.5q7 13 4.5 23t-10 14.5t-19 2t-21.5 -14.5zM160 524q-6 6 -2 13.5t13 21t20 33.5 t19 50q8 29 27.5 35t44.5 -12q19 -13 21.5 -28t-9.5 -36q-6 -11 -23 -28t-38 -31.5t-41 -21.5t-32 4z" glyph-name="eacute" horiz-adv-x="456" unicode="é"/>
<glyph d="M509 323q8 -7 3 -20q-20 -67 -56 -123t-80.5 -96t-94 -62.5t-96.5 -23.5q-35 0 -69.5 8t-62.5 29t-45 58t-17 94q0 73 22 124.5t53.5 85t66 50.5t59.5 20q35 5 56 -2.5t42 -24.5q12 -9 22.5 -25t16 -35.5t3 -41t-17.5 -41.5q-32 -48 -77 -80.5t-98 -56.5 q-1 -20 1.5 -38.5t11.5 -32t25 -22t42 -8.5q30 0 64.5 14.5t69 45.5t66 79.5t55.5 117.5q3 13 15 13q11 0 20 -6zM216 349q-19 -22 -38 -55t-30 -73q15 8 32.5 21t33.5 27t29 28.5t19 26.5q7 13 4.5 23t-10 14.5t-19 2t-21.5 -14.5zM118 528q-4 -6 -12.5 -5t-15.5 6t-9.5 13 t4.5 16q6 9 14.5 19.5l17 21t16 19.5l12.5 15q9 11 20 24t31 16q22 4 34.5 5t20 -2.5t14 -10.5t17.5 -19q24 -24 33.5 -41t20.5 -32t5.5 -26.5t-16.5 -17.5q-24 -14 -39 -10.5t-28 18.5q-6 7 -14.5 17t-16.5 20t-14 18t-9 11q-6 7 -16.5 2t-19.5 -14q-13 -17 -27 -34.5 t-23 -28.5z" glyph-name="ecircumflex" horiz-adv-x="456" unicode="ê"/>
<glyph d="M128 511q-52 6 -43 58q10 53 63 46q52 -6 43 -58t-63 -46zM291 511q-52 6 -43 58q10 53 63 46q52 -6 43 -58t-63 -46zM509 323q8 -7 3 -20q-20 -67 -56 -123t-80.5 -96t-94 -62.5t-96.5 -23.5q-35 0 -69.5 8t-62.5 29t-45 58t-17 94q0 73 22 124.5t53.5 85t66 50.5 t59.5 20q35 5 56 -2.5t42 -24.5q12 -9 22.5 -25t16 -35.5t3 -41t-17.5 -41.5q-32 -48 -77 -80.5t-98 -56.5q-1 -20 1.5 -38.5t11.5 -32t25 -22t42 -8.5q30 0 64.5 14.5t69 45.5t66 79.5t55.5 117.5q3 13 15 13q11 0 20 -6zM216 349q-19 -22 -38 -55t-30 -73q15 8 32.5 21 t33.5 27t29 28.5t19 26.5q7 13 4.5 23t-10 14.5t-19 2t-21.5 -14.5z" glyph-name="edieresis" horiz-adv-x="456" unicode="ë"/>
<glyph d="M148 -2q-38 -3 -65 5t-44.5 25.5t-26.5 41.5t-12 52q-3 31 -1 64.5t7 66t12.5 63t15.5 54.5q10 28 18.5 42.5t18.5 19.5t22 1.5t29 -11.5q25 -11 32.5 -27t2.5 -52q-2 -16 -5.5 -43.5t-6.5 -59.5t-4.5 -65t0 -59.5t7 -43.5t16.5 -17q16 0 34.5 22.5t37.5 59t37 83.5 t33 96q3 13 15 13t20 -6q7 -6 4 -20q-21 -67 -42.5 -122t-45.5 -94.5t-51 -62.5t-58 -26zM170 524q-12 -11 -32 -4t-41 21.5t-38 31.5t-23 28q-12 21 -9.5 36t21.5 28q25 18 44.5 12t27.5 -35q8 -30 19 -50t20 -33.5t13 -21t-2 -13.5z" glyph-name="igrave" horiz-adv-x="288" unicode="ì"/>
<glyph d="M148 -2q-38 -3 -65 5t-44.5 25.5t-26.5 41.5t-12 52q-3 31 -1 64.5t7 66t12.5 63t15.5 54.5q10 28 18.5 42.5t18.5 19.5t22 1.5t29 -11.5q25 -11 32.5 -27t2.5 -52q-2 -16 -5.5 -43.5t-6.5 -59.5t-4.5 -65t0 -59.5t7 -43.5t16.5 -17q16 0 34.5 22.5t37.5 59t37 83.5 t33 96q3 13 15 13t20 -6q7 -6 4 -20q-21 -67 -42.5 -122t-45.5 -94.5t-51 -62.5t-58 -26zM74 524q-6 6 -2 13.5t13 21t20 33.5t19 50q8 29 27.5 35t44.5 -12q19 -13 21.5 -28t-9.5 -36q-6 -11 -23 -28t-38 -31.5t-41 -21.5t-32 4z" glyph-name="iacute" horiz-adv-x="288" unicode="í"/>
<glyph d="M38 549q-5 -6 -14.5 -5t-17.5 6.5t-11.5 15t4.5 19.5t17.5 22t19.5 23.5t18.5 22t14.5 17.5q11 13 23.5 28t34.5 19q26 5 40 5.5t23 -3t16.5 -12.5t20.5 -22q27 -27 39 -47t23 -37q12 -17 6.5 -30.5t-18.5 -20.5q-29 -16 -46 -12t-32 21q-7 9 -16.5 20.5t-18.5 23 t-16.5 21t-10.5 13.5q-8 8 -19.5 2t-21.5 -17q-16 -19 -31.5 -39t-26.5 -34zM148 -2q-38 -3 -65 5t-44.5 25.5t-26.5 41.5t-12 52q-3 31 -1 64.5t7 66t12.5 63t15.5 54.5q10 28 18.5 42.5t18.5 19.5t22 1.5t29 -11.5q25 -11 32.5 -27t2.5 -52q-2 -16 -5.5 -43.5t-6.5 -59.5 t-4.5 -65t0 -59.5t7 -43.5t16.5 -17q16 0 34.5 22.5t37.5 59t37 83.5t33 96q3 13 15 13t20 -6q7 -6 4 -20q-21 -67 -42.5 -122t-45.5 -94.5t-51 -62.5t-58 -26z" glyph-name="icircumflex" horiz-adv-x="288" unicode="î"/>
<glyph d="M34 510q-52 6 -43 58q10 53 63 46q52 -6 43 -58t-63 -46zM197 510q-52 6 -43 58q10 53 63 46q52 -6 43 -58t-63 -46zM148 -2q-38 -3 -65 5t-44.5 25.5t-26.5 41.5t-12 52q-3 31 -1 64.5t7 66t12.5 63t15.5 54.5q10 28 18.5 42.5t18.5 19.5t22 1.5t29 -11.5 q25 -11 32.5 -27t2.5 -52q-2 -16 -5.5 -43.5t-6.5 -59.5t-4.5 -65t0 -59.5t7 -43.5t16.5 -17q16 0 34.5 22.5t37.5 59t37 83.5t33 96q3 13 15 13t20 -6q7 -6 4 -20q-21 -67 -42.5 -122t-45.5 -94.5t-51 -62.5t-58 -26z" glyph-name="idieresis" horiz-adv-x="288" unicode="ï"/>
<glyph d="M277 661q26 -32 48 -80t36.5 -105t19 -120t-4.5 -127q-9 -66 -32.5 -110t-52.5 -71.5t-60.5 -41.5t-56.5 -18q-26 -4 -52.5 2.5t-50.5 25t-43 48.5t-29 73q-11 46 -7 84.5t16.5 69.5t29.5 54t33 39q18 18 40.5 26.5t45.5 10t44 -5t36 -18.5q-11 53 -26 102t-32 87l-6 12 q-20 -11 -39.5 -19t-42.5 -18q-12 -5 -23 -3t-16 9t-1.5 17t18.5 20l37.5 22.5t32.5 20.5q-21 26 -45 46.5t-43 33.5q-15 10 -18 19.5t3.5 16t22 9t37.5 -1.5q30 -6 65 -19t73 -46q25 15 48.5 27.5t42.5 20.5q12 5 21 3t11.5 -9t-3 -18.5t-22.5 -25.5t-30 -24t-25 -18z M249 224q2 26 1.5 53t-3.5 56q-11 18 -27.5 29t-35.5 13.5t-38 -3.5t-35 -22q-13 -14 -26 -34t-21.5 -45t-11.5 -54t5 -60q6 -27 17.5 -50t26 -38.5t30.5 -21.5t33 0q33 11 55 50.5t30 126.5z" glyph-name="eth" horiz-adv-x="407" unicode="ð"/>
<glyph d="M110 554q-16 11 -13 25.5t16 28.5q14 14 30 23.5t45 10.5q24 1 42 -8.5t31.5 -21.5t24.5 -22t22 -10q9 0 16 5t13 12.5t10 14.5t7 12q3 4 9.5 4t12.5 -3.5t9 -10t-1 -14.5q-5 -9 -11.5 -20.5t-16 -22t-22.5 -18t-30 -7.5t-30.5 7.5t-24.5 17t-21.5 17t-21.5 7.5 q-16 0 -23.5 -7.5t-21.5 -16.5q-13 -10 -25 -12t-26 9zM653 313q8 -7 3 -20q-20 -67 -41.5 -122t-45.5 -94.5t-51 -62.5t-58 -26q-38 -3 -65 5t-44.5 25.5t-26.5 41.5t-12 52q-6 62 4.5 121.5t22.5 125.5q4 20 -7.5 22.5t-29.5 -20.5q-20 -25 -39.5 -60.5t-38 -77t-35 -87 t-30.5 -88.5q-1 -2 -1 -3.5t-1 -3.5q-1 -1 -1 -2q-8 -17 -27 -28t-49 -11q-29 0 -47 11t-22 38q-2 13 -3 40.5t-1.5 61t1 69t4.5 64.5t7 56t8.5 50t9 41t9.5 28t14 16t18.5 9.5t19 4.5t15.5 1t15.5 -1t18.5 -4t15.5 -8.5t6.5 -14.5q0 -12 0.5 -31t1 -40.5t0.5 -43.5t-1 -41 l-5 -107q15 40 34 81t41.5 74t48.5 55t55 24q38 3 66.5 -23t32.5 -75q2 -23 2 -53.5v-62.5t0.5 -63.5t3.5 -56t9.5 -39.5t17.5 -15q16 0 34.5 22.5t37 59t37 83.5t33.5 96q3 13 15 13q11 0 20 -6z" glyph-name="ntilde" unicode="ñ"/>
<glyph d="M560 323q8 -7 3 -20q-20 -67 -46 -110t-52 -68t-51 -35.5t-43 -12.5q-14 -2 -27 -1t-25 4q-26 -42 -59.5 -69t-71.5 -26q-33 1 -67 13.5t-62.5 36.5t-47 61t-19.5 87q-2 55 11 100.5t32.5 79t41 54.5t37.5 28t28 6.5t28 -8.5t27 -23t-2 -38q-22 -35 -38 -81t-20 -111 q-2 -28 1.5 -56.5t11 -51t19.5 -37.5t28 -16q23 -2 44.5 17.5t39.5 49.5q-36 21 -61 59t-33 86q-4 26 -2.5 52.5t9.5 49.5t23 39.5t38 23.5q21 6 40.5 -0.5t35 -21.5t26 -38.5t14.5 -51.5q5 -39 -4 -86t-29 -91q18 -5 36 -2q34 5 77 54t74 147q3 13 15 13q11 0 20 -6z M231 254q6 -41 24.5 -72t44.5 -49q16 38 23.5 79t2.5 73q-6 39 -21 63t-41 16q-11 -4 -18.5 -14.5t-11.5 -25.5t-5 -33t2 -37zM293 509q-12 -11 -32 -4t-41 21.5t-38 31.5t-23 28q-12 21 -9.5 36t21.5 28q25 18 44.5 12t27.5 -35q8 -30 19 -50t20 -33.5t13 -21t-2 -13.5z " glyph-name="ograve" horiz-adv-x="507" unicode="ò"/>
<glyph d="M560 323q8 -7 3 -20q-20 -67 -46 -110t-52 -68t-51 -35.5t-43 -12.5q-14 -2 -27 -1t-25 4q-26 -42 -59.5 -69t-71.5 -26q-33 1 -67 13.5t-62.5 36.5t-47 61t-19.5 87q-2 55 11 100.5t32.5 79t41 54.5t37.5 28t28 6.5t28 -8.5t27 -23t-2 -38q-22 -35 -38 -81t-20 -111 q-2 -28 1.5 -56.5t11 -51t19.5 -37.5t28 -16q23 -2 44.5 17.5t39.5 49.5q-36 21 -61 59t-33 86q-4 26 -2.5 52.5t9.5 49.5t23 39.5t38 23.5q21 6 40.5 -0.5t35 -21.5t26 -38.5t14.5 -51.5q5 -39 -4 -86t-29 -91q18 -5 36 -2q34 5 77 54t74 147q3 13 15 13q11 0 20 -6z M231 254q6 -41 24.5 -72t44.5 -49q16 38 23.5 79t2.5 73q-6 39 -21 63t-41 16q-11 -4 -18.5 -14.5t-11.5 -25.5t-5 -33t2 -37zM182 509q-6 6 -2 13.5t13 21t20 33.5t19 50q8 29 27.5 35t44.5 -12q19 -13 21.5 -28t-9.5 -36q-6 -11 -23 -28t-38 -31.5t-41 -21.5t-32 4z" glyph-name="oacute" horiz-adv-x="507" unicode="ó"/>
<glyph d="M560 323q8 -7 3 -20q-20 -67 -46 -110t-52 -68t-51 -35.5t-43 -12.5q-14 -2 -27 -1t-25 4q-26 -42 -59.5 -69t-71.5 -26q-33 1 -67 13.5t-62.5 36.5t-47 61t-19.5 87q-2 55 11 100.5t32.5 79t41 54.5t37.5 28t28 6.5t28 -8.5t27 -23t-2 -38q-22 -35 -38 -81t-20 -111 q-2 -28 1.5 -56.5t11 -51t19.5 -37.5t28 -16q23 -2 44.5 17.5t39.5 49.5q-36 21 -61 59t-33 86q-4 26 -2.5 52.5t9.5 49.5t23 39.5t38 23.5q21 6 40.5 -0.5t35 -21.5t26 -38.5t14.5 -51.5q5 -39 -4 -86t-29 -91q18 -5 36 -2q34 5 77 54t74 147q3 13 15 13q11 0 20 -6z M231 254q6 -41 24.5 -72t44.5 -49q16 38 23.5 79t2.5 73q-6 39 -21 63t-41 16q-11 -4 -18.5 -14.5t-11.5 -25.5t-5 -33t2 -37zM112 514q-4 -6 -12.5 -5t-15.5 6t-9.5 13t4.5 16q6 9 14.5 19.5l17 21t16 19.5l12.5 15q9 11 20 24t31 16q22 4 34.5 5t20 -2.5t14 -10.5 t17.5 -19q24 -24 33.5 -41t20.5 -32t5.5 -26.5t-16.5 -17.5q-24 -14 -39 -10.5t-28 18.5q-6 7 -14.5 17t-16.5 20t-14 18t-9 11q-6 7 -16.5 2t-19.5 -14q-13 -17 -27 -34.5t-23 -28.5z" glyph-name="ocircumflex" horiz-adv-x="507" unicode="ô"/>
<glyph d="M560 323q8 -7 3 -20q-20 -67 -46 -110t-52 -68t-51 -35.5t-43 -12.5q-14 -2 -27 -1t-25 4q-26 -42 -59.5 -69t-71.5 -26q-33 1 -67 13.5t-62.5 36.5t-47 61t-19.5 87q-2 55 11 100.5t32.5 79t41 54.5t37.5 28t28 6.5t28 -8.5t27 -23t-2 -38q-22 -35 -38 -81t-20 -111 q-2 -28 1.5 -56.5t11 -51t19.5 -37.5t28 -16q23 -2 44.5 17.5t39.5 49.5q-36 21 -61 59t-33 86q-4 26 -2.5 52.5t9.5 49.5t23 39.5t38 23.5q21 6 40.5 -0.5t35 -21.5t26 -38.5t14.5 -51.5q5 -39 -4 -86t-29 -91q18 -5 36 -2q34 5 77 54t74 147q3 13 15 13q11 0 20 -6z M231 254q6 -41 24.5 -72t44.5 -49q16 38 23.5 79t2.5 73q-6 39 -21 63t-41 16q-11 -4 -18.5 -14.5t-11.5 -25.5t-5 -33t2 -37zM104 540q-16 11 -13 25.5t16 28.5q14 14 30 23.5t45 10.5q24 1 42 -8.5t31.5 -21.5t24.5 -22t22 -10q9 0 16 5t13 12.5t10 14.5t7 12q3 4 9.5 4 t12.5 -3.5t9 -10t-1 -14.5q-5 -9 -11.5 -20.5t-16 -22t-22.5 -18t-30 -7.5t-30.5 7.5t-24.5 17t-21.5 17t-21.5 7.5q-16 0 -23.5 -7.5t-21.5 -16.5q-13 -10 -25 -12t-26 9z" glyph-name="otilde" horiz-adv-x="507" unicode="õ"/>
<glyph d="M147 510q-52 6 -43 58q10 53 63 46q52 -6 43 -58t-63 -46zM310 510q-52 6 -43 58q10 53 63 46q52 -6 43 -58t-63 -46zM560 323q8 -7 3 -20q-20 -67 -46 -110t-52 -68t-51 -35.5t-43 -12.5q-14 -2 -27 -1t-25 4q-26 -42 -59.5 -69t-71.5 -26q-33 1 -67 13.5t-62.5 36.5 t-47 61t-19.5 87q-2 55 11 100.5t32.5 79t41 54.5t37.5 28t28 6.5t28 -8.5t27 -23t-2 -38q-22 -35 -38 -81t-20 -111q-2 -28 1.5 -56.5t11 -51t19.5 -37.5t28 -16q23 -2 44.5 17.5t39.5 49.5q-36 21 -61 59t-33 86q-4 26 -2.5 52.5t9.5 49.5t23 39.5t38 23.5q21 6 40.5 -0.5 t35 -21.5t26 -38.5t14.5 -51.5q5 -39 -4 -86t-29 -91q18 -5 36 -2q34 5 77 54t74 147q3 13 15 13q11 0 20 -6zM231 254q6 -41 24.5 -72t44.5 -49q16 38 23.5 79t2.5 73q-6 39 -21 63t-41 16q-11 -4 -18.5 -14.5t-11.5 -25.5t-5 -33t2 -37z" glyph-name="odieresis" horiz-adv-x="507" unicode="ö"/>
<glyph d="M236 375q-61 7 -49 68q10 62 73 53q32 -4 43 -19.5t6 -47.5q-11 -62 -73 -54zM241 250q-26 -1 -45.5 -0.5t-36 2t-32.5 4t-36 5.5q-14 1 -22 8.5t-9 16t7 15.5t26 8q60 1 98.5 1.5t62.5 1.5q34 1 67.5 0t58.5 -5q12 -2 19 -8t5.5 -13.5t-12.5 -14.5t-33 -11 q-21 -3 -36.5 -5t-29 -3t-26 -1.5t-26.5 -0.5zM230 67q-61 7 -49 68q10 62 73 53q32 -4 43 -19.5t6 -47.5q-11 -62 -73 -54z" glyph-name="divide" horiz-adv-x="465" unicode="÷"/>
<glyph d="M560 323q8 -7 3 -20q-20 -67 -46 -110t-52 -68t-51 -35.5t-43 -12.5q-14 -2 -27 -1t-25 4q-26 -42 -59.5 -69t-71.5 -26q-33 2 -64 12l-8.5 -8.5t-6.5 -7.5q-10 -10 -18.5 -11.5t-13.5 2t-5.5 11.5t6.5 17q2 3 5 6.5t5 7.5q-39 23 -66.5 64.5t-29.5 104.5q-2 55 11 100.5 t32.5 79t41 54.5t37.5 28t28 6.5t28 -8.5t27 -23t-2 -38q-22 -35 -38 -81t-20 -111q-1 -26 1.5 -51.5t8.5 -47.5q17 21 33 41.5t30 39.5q-17 33 -23 69q-4 26 -2.5 52.5t9.5 49.5t23 39.5t38 23.5q27 7 51 -4.5t41 -37.5q7 10 14 17q9 9 16 10t11 -3.5t4 -12.5t-5 -17 q-6 -9 -11.5 -18t-10.5 -17q4 -13 6 -29q5 -39 -4 -86t-29 -91q18 -5 36 -2q34 5 77 54t74 147q3 13 15 13q11 0 20 -6zM231 254q2 -11 4 -21t6 -20l9 12q14 19 32 45.5t35 51.5q-8 24 -20.5 36t-32.5 6q-11 -4 -18.5 -14.5t-11.5 -25.5t-5 -33t2 -37zM300 133 q14 32 21.5 67t6.5 66l-37 -52q-14 -20 -30 -42q16 -24 39 -39zM197 29q23 -2 44.5 17.5t39.5 49.5q-25 15 -47 40q-17 -23 -34 -45.5t-34 -42.5q14 -18 31 -19z" glyph-name="oslash" horiz-adv-x="507" unicode="ø"/>
<glyph d="M613 328q7 -6 4 -19q-20 -68 -41.5 -123t-45.5 -94.5t-51 -62t-58 -25.5q-38 -3 -64.5 4.5t-44 24t-27 39.5t-12.5 50q-27 -52 -57.5 -82t-67.5 -33q-38 -4 -65 4.5t-44.5 25.5t-26.5 41t-12 52q-3 31 -1 64.5t7 66.5t12.5 63t15.5 54q10 28 18.5 42.5t18.5 19.5t22 2 t29 -11q25 -12 32.5 -28t2.5 -52q-2 -16 -5.5 -43.5t-6.5 -59.5t-4.5 -65t0 -59.5t7 -43.5t16.5 -17q12 0 26 13t28 36t28 53.5t28 65.5q5 41 13.5 78.5t18.5 66.5q10 28 18.5 42.5t18.5 19.5t22 1.5t29 -11.5q25 -12 32.5 -28t2.5 -52q-2 -16 -5.5 -43.5t-6.5 -59.5 t-4.5 -65t0 -59.5t7 -43.5t16.5 -17q16 0 34.5 22.5t37.5 59t37 83.5t33 96q5 13 16 13q10 1 19 -6zM306 524q-12 -11 -32 -4t-41 21.5t-38 31.5t-23 28q-12 21 -9.5 36t21.5 28q25 18 44.5 12t27.5 -35q8 -30 19 -50t20 -33.5t13 -21t-2 -13.5z" glyph-name="ugrave" horiz-adv-x="560" unicode="ù"/>
<glyph d="M613 328q7 -6 4 -19q-20 -68 -41.5 -123t-45.5 -94.5t-51 -62t-58 -25.5q-38 -3 -64.5 4.5t-44 24t-27 39.5t-12.5 50q-27 -52 -57.5 -82t-67.5 -33q-38 -4 -65 4.5t-44.5 25.5t-26.5 41t-12 52q-3 31 -1 64.5t7 66.5t12.5 63t15.5 54q10 28 18.5 42.5t18.5 19.5t22 2 t29 -11q25 -12 32.5 -28t2.5 -52q-2 -16 -5.5 -43.5t-6.5 -59.5t-4.5 -65t0 -59.5t7 -43.5t16.5 -17q12 0 26 13t28 36t28 53.5t28 65.5q5 41 13.5 78.5t18.5 66.5q10 28 18.5 42.5t18.5 19.5t22 1.5t29 -11.5q25 -12 32.5 -28t2.5 -52q-2 -16 -5.5 -43.5t-6.5 -59.5 t-4.5 -65t0 -59.5t7 -43.5t16.5 -17q16 0 34.5 22.5t37.5 59t37 83.5t33 96q5 13 16 13q10 1 19 -6zM188 524q-6 6 -2 13.5t13 21t20 33.5t19 50q8 29 27.5 35t44.5 -12q19 -13 21.5 -28t-9.5 -36q-6 -11 -23 -28t-38 -31.5t-41 -21.5t-32 4z" glyph-name="uacute" horiz-adv-x="560" unicode="ú"/>
<glyph d="M144 549q-5 -6 -14.5 -5t-17.5 6.5t-11.5 15t4.5 19.5t17.5 22t19.5 23.5t18.5 22t14.5 17.5q11 13 23.5 28t34.5 19q26 5 40 5.5t23 -3t16.5 -12.5t20.5 -22q27 -27 39 -47t23 -37q12 -17 6.5 -30.5t-18.5 -20.5q-29 -16 -46 -12t-32 21q-7 9 -16.5 20.5t-18.5 23 t-16.5 21t-10.5 13.5q-8 8 -19.5 2t-21.5 -17q-16 -19 -31.5 -39t-26.5 -34zM613 328q7 -6 4 -19q-20 -68 -41.5 -123t-45.5 -94.5t-51 -62t-58 -25.5q-38 -3 -64.5 4.5t-44 24t-27 39.5t-12.5 50q-27 -52 -57.5 -82t-67.5 -33q-38 -4 -65 4.5t-44.5 25.5t-26.5 41t-12 52 q-3 31 -1 64.5t7 66.5t12.5 63t15.5 54q10 28 18.5 42.5t18.5 19.5t22 2t29 -11q25 -12 32.5 -28t2.5 -52q-2 -16 -5.5 -43.5t-6.5 -59.5t-4.5 -65t0 -59.5t7 -43.5t16.5 -17q12 0 26 13t28 36t28 53.5t28 65.5q5 41 13.5 78.5t18.5 66.5q10 28 18.5 42.5t18.5 19.5t22 1.5 t29 -11.5q25 -12 32.5 -28t2.5 -52q-2 -16 -5.5 -43.5t-6.5 -59.5t-4.5 -65t0 -59.5t7 -43.5t16.5 -17q16 0 34.5 22.5t37.5 59t37 83.5t33 96q5 13 16 13q10 1 19 -6z" glyph-name="ucircumflex" horiz-adv-x="560" unicode="û"/>
<glyph d="M140 510q-52 6 -43 58q10 53 63 46q52 -6 43 -58t-63 -46zM303 510q-52 6 -43 58q10 53 63 46q52 -6 43 -58t-63 -46zM613 328q7 -6 4 -19q-20 -68 -41.5 -123t-45.5 -94.5t-51 -62t-58 -25.5q-38 -3 -64.5 4.5t-44 24t-27 39.5t-12.5 50q-27 -52 -57.5 -82t-67.5 -33 q-38 -4 -65 4.5t-44.5 25.5t-26.5 41t-12 52q-3 31 -1 64.5t7 66.5t12.5 63t15.5 54q10 28 18.5 42.5t18.5 19.5t22 2t29 -11q25 -12 32.5 -28t2.5 -52q-2 -16 -5.5 -43.5t-6.5 -59.5t-4.5 -65t0 -59.5t7 -43.5t16.5 -17q12 0 26 13t28 36t28 53.5t28 65.5q5 41 13.5 78.5 t18.5 66.5q10 28 18.5 42.5t18.5 19.5t22 1.5t29 -11.5q25 -12 32.5 -28t2.5 -52q-2 -16 -5.5 -43.5t-6.5 -59.5t-4.5 -65t0 -59.5t7 -43.5t16.5 -17q16 0 34.5 22.5t37.5 59t37 83.5t33 96q5 13 16 13q10 1 19 -6z" glyph-name="udieresis" horiz-adv-x="560" unicode="ü"/>
<glyph d="M660 323q8 -7 3 -20q-20 -64 -44 -120t-51.5 -100.5t-56.5 -75.5t-59 -45q-1 -72 -10.5 -136.5t-38.5 -120.5q-24 -46 -56 -74.5t-67 -43.5t-70.5 -18t-67 2.5t-57 18t-39.5 27.5q-22 24 -31.5 57t-6 69t20.5 71t48 63q25 22 52.5 37.5t57.5 26.5t61 19.5t63 16.5 q1 31 1 63t1 67q0 10 0.5 23t1.5 28q-31 -72 -66 -114t-80 -46q-50 -3 -83 6.5t-53 27t-28.5 42t-9.5 52.5q-1 31 1 68.5t6.5 74.5t10.5 70.5t13 58.5q6 20 15.5 32.5t21 18.5t24 7.5t24.5 -0.5q10 -2 18.5 -5t14 -11.5t7.5 -23t-1 -38.5q-2 -16 -5 -46.5t-5 -66.5 t-2.5 -73.5t4 -68t14.5 -50t29 -18.5q16 0 34.5 22.5t37.5 59t37 83.5t33 96q1 2 1 3t1 2q2 12 3.5 23t3.5 22q3 21 12 33.5t21 19t25 8t25 -0.5q10 -2 18.5 -4.5t14 -10t8 -22t1.5 -39.5q-1 -26 -3 -48.5t-3.5 -50t-2.5 -65t-1 -92.5q0 -18 0.5 -36t0.5 -36q25 18 50.5 50 t48 71.5t41.5 84t33 88.5q3 13 15 13q11 0 20 -6zM89 -338q20 -18 45 -22.5t50.5 4t49 29.5t40.5 55q19 36 26.5 85t9.5 109q-58 -13 -110 -28.5t-88 -50.5q-20 -20 -32 -45.5t-15.5 -51t2.5 -48t22 -36.5zM205 524q-6 6 -2 13.5t13 21t20 33.5t19 50q8 29 27.5 35t44.5 -12 q19 -13 21.5 -28t-9.5 -36q-6 -11 -23 -28t-38 -31.5t-41 -21.5t-32 4z" glyph-name="yacute" horiz-adv-x="607" unicode="ý"/>
<glyph d="M460 304q8 -53 0.5 -96.5t-24 -77.5t-39.5 -59t-45.5 -41.5t-41 -25t-26.5 -9.5q-18 -2 -29 1t-25 14q-7 6 -13.5 13.5t-9.5 16.5t-0.5 18t13.5 17q43 28 67.5 83t22.5 124q-1 51 -13.5 79.5t-30.5 28.5t-35.5 -13.5t-32 -36t-24.5 -50.5t-13 -58v-72t1 -76 q0 -37 0.5 -94t0.5 -117.5t-0.5 -117t-1.5 -92.5q-2 -26 -22.5 -43t-58.5 -17q-29 0 -47 11t-22 38q-2 13 -3 41t-2 75.5t-1.5 117t0.5 166.5q1 127 4 220t8 163t11 120.5t13 92.5q1 11 8.5 18t17 10.5t19 5t15.5 1.5t15.5 -0.5t18.5 -2.5t16 -7t8 -14q2 -17 2 -92v-194 q26 38 59.5 65t68.5 27q27 0 55 -8.5t51.5 -27.5t40.5 -49.5t24 -75.5z" glyph-name="thorn" horiz-adv-x="552" unicode="þ"/>
</font>
</defs>
</svg>
