<svg xmlns="http://www.w3.org/2000/svg" viewBox="0 0 1278.48 582.88"><defs><style>.cls-1{fill:#d98b77;}.cls-2{fill:#392a29;}.cls-3{fill:#ffe6b4;}.cls-4{fill:#fff;}.cls-5{fill:#837969;}.cls-6{fill:#35302d;}.cls-7{fill:#3c3632;}.cls-8{fill:#423c37;}.cls-9{fill:#48423d;}.cls-10{fill:#4e4842;}.cls-11{fill:#554e47;}.cls-12{fill:#5b554d;}.cls-13{fill:#696258;}.cls-14{fill:#706a5e;}.cls-15{fill:#777164;}.cls-16{fill:#7e786a;}.cls-17{fill:#868070;}.cls-18{fill:#8e8877;}.cls-19{fill:#95907d;}.cls-20{fill:#9d9884;}.cls-21{fill:#a5a08a;}.cls-22{fill:#86867e;}.cls-23{fill:#fed997;}.cls-24{fill:#142831;}.cls-25{fill:#7e443a;}.cls-26,.cls-47{fill:none;}.cls-27{fill:#2661ac;}.cls-28{fill:#809839;}.cls-29{fill:#ecb41e;}.cls-30{fill:#cf5820;}.cls-31{fill:#9d6425;}.cls-32{fill:#caab56;}.cls-33{fill:#edcd7e;}.cls-34{fill:#f7bd91;}.cls-35{fill:#332923;}.cls-36{fill:#f6bc91;}.cls-37{fill:#f7be92;}.cls-38{fill:#f8be92;}.cls-39{fill:#352b24;}.cls-40{fill:#c4763f;}.cls-41{fill:#ccaf5f;}.cls-42{fill:#c67942;}.cls-43{fill:#cdae5a;}.cls-44{fill:#d2b46e;}.cls-45{fill:#cbac57;}.cls-46{fill:#44352b;}.cls-47{stroke:#332923;stroke-linecap:round;stroke-miterlimit:10;}.cls-48{fill:#add3e3;}.cls-49{fill:#2c2c45;}.cls-50{fill:#e25352;}.cls-51{fill:#b85555;}.cls-52{fill:#40b7e9;}.cls-53{fill:#44566c;}.cls-54{fill:#fcd348;}</style></defs><title>background</title><g id="truong"><polygon class="cls-1" points="535.93 78.31 606.68 78.31 606.68 103.83 382.85 103.83 535.93 78.31"/><polygon class="cls-1" points="382.85 103.83 332.98 103.83 89.51 212.84 89.51 219.8 406.04 219.8 406.04 145.58 382.85 103.83"/><polygon class="cls-2" points="382.85 103.83 406.04 145.58 406.04 103.83 382.85 103.83"/><rect class="cls-3" x="406.04" y="103.83" width="200.64" height="241.45"/><polygon class="cls-4" points="549.91 214.22 549.91 230.72 545.69 230.72 545.69 345.29 536.93 345.29 536.93 230.72 532.69 230.72 532.69 214.22 534.66 214.22 534.66 177.39 536.84 177.39 536.93 103.57 545.69 103.57 545.76 177.39 547.94 177.39 547.94 214.22 549.91 214.22"/><polygon class="cls-4" points="423.26 214.22 423.26 230.72 419.04 230.72 419.04 345.29 410.28 345.29 410.28 230.72 406.04 230.72 406.04 214.22 408.01 214.22 408.01 177.39 410.19 177.39 410.28 103.57 419.04 103.57 419.11 177.39 421.29 177.39 421.29 214.22 423.26 214.22"/><rect class="cls-4" x="406.04" y="150.66" width="200.64" height="5.44"/><rect class="cls-4" x="406.04" y="189.42" width="200.64" height="5.44"/><rect class="cls-4" x="406.04" y="226.77" width="200.64" height="5.44"/><rect class="cls-4" x="406.04" y="163.93" width="200.01" height="5.44"/><rect class="cls-5" x="428.52" y="112.04" width="16.27" height="36.38"/><rect class="cls-6" x="431.02" y="113.81" width="11.42" height="1.18"/><rect class="cls-7" x="431.02" y="115.77" width="11.42" height="1.18"/><rect class="cls-8" x="431.02" y="117.72" width="11.42" height="1.18"/><rect class="cls-9" x="431.02" y="119.67" width="11.42" height="1.18"/><rect class="cls-10" x="431.02" y="121.62" width="11.42" height="1.18"/><rect class="cls-11" x="431.02" y="123.57" width="11.42" height="1.18"/><rect class="cls-12" x="431.02" y="125.53" width="11.42" height="1.18"/><rect class="cls-13" x="431.02" y="129.43" width="11.42" height="1.18"/><rect class="cls-14" x="431.02" y="131.38" width="11.42" height="1.18"/><rect class="cls-15" x="431.02" y="133.33" width="11.42" height="1.18"/><rect class="cls-16" x="431.02" y="135.29" width="11.42" height="1.18"/><rect class="cls-17" x="431.02" y="137.24" width="11.42" height="1.18"/><rect class="cls-18" x="431.02" y="139.19" width="11.42" height="1.18"/><rect class="cls-19" x="431.02" y="141.14" width="11.42" height="1.18"/><rect class="cls-20" x="431.02" y="143.09" width="11.42" height="1.18"/><rect class="cls-21" x="431.02" y="145.05" width="11.42" height="1.18"/><rect class="cls-5" x="444.78" y="112.01" width="16.27" height="36.38"/><rect class="cls-6" x="447.28" y="113.78" width="11.42" height="1.18"/><rect class="cls-7" x="447.28" y="115.74" width="11.42" height="1.18"/><rect class="cls-8" x="447.28" y="117.69" width="11.42" height="1.18"/><rect class="cls-9" x="447.28" y="119.64" width="11.42" height="1.18"/><rect class="cls-10" x="447.28" y="121.59" width="11.42" height="1.18"/><rect class="cls-11" x="447.28" y="123.54" width="11.42" height="1.18"/><rect class="cls-12" x="447.28" y="125.5" width="11.42" height="1.18"/><rect class="cls-13" x="447.28" y="129.4" width="11.42" height="1.18"/><rect class="cls-14" x="447.28" y="131.35" width="11.42" height="1.18"/><rect class="cls-15" x="447.28" y="133.3" width="11.42" height="1.18"/><rect class="cls-16" x="447.28" y="135.26" width="11.42" height="1.18"/><rect class="cls-17" x="447.28" y="137.21" width="11.42" height="1.18"/><rect class="cls-18" x="447.28" y="139.16" width="11.42" height="1.18"/><rect class="cls-19" x="447.28" y="141.11" width="11.42" height="1.18"/><rect class="cls-20" x="447.28" y="143.06" width="11.42" height="1.18"/><rect class="cls-21" x="447.28" y="145.02" width="11.42" height="1.18"/><rect class="cls-5" x="461.05" y="112.01" width="16.27" height="36.38"/><rect class="cls-6" x="463.55" y="113.78" width="11.42" height="1.18"/><rect class="cls-7" x="463.55" y="115.74" width="11.42" height="1.18"/><rect class="cls-8" x="463.55" y="117.69" width="11.42" height="1.18"/><rect class="cls-9" x="463.55" y="119.64" width="11.42" height="1.18"/><rect class="cls-10" x="463.55" y="121.59" width="11.42" height="1.18"/><rect class="cls-11" x="463.55" y="123.54" width="11.42" height="1.18"/><rect class="cls-12" x="463.55" y="125.5" width="11.42" height="1.18"/><rect class="cls-13" x="463.55" y="129.4" width="11.42" height="1.18"/><rect class="cls-14" x="463.55" y="131.35" width="11.42" height="1.18"/><rect class="cls-15" x="463.55" y="133.3" width="11.42" height="1.18"/><rect class="cls-16" x="463.55" y="135.26" width="11.42" height="1.18"/><rect class="cls-17" x="463.55" y="137.21" width="11.42" height="1.18"/><rect class="cls-18" x="463.55" y="139.16" width="11.42" height="1.18"/><rect class="cls-19" x="463.55" y="141.11" width="11.42" height="1.18"/><rect class="cls-20" x="463.55" y="143.06" width="11.42" height="1.18"/><rect class="cls-21" x="463.55" y="145.02" width="11.42" height="1.18"/><rect class="cls-5" x="477.32" y="112.01" width="16.27" height="36.38"/><rect class="cls-6" x="479.82" y="113.78" width="11.42" height="1.18"/><rect class="cls-7" x="479.82" y="115.74" width="11.42" height="1.18"/><rect class="cls-8" x="479.82" y="117.69" width="11.42" height="1.18"/><rect class="cls-9" x="479.82" y="119.64" width="11.42" height="1.18"/><rect class="cls-10" x="479.82" y="121.59" width="11.42" height="1.18"/><rect class="cls-11" x="479.82" y="123.54" width="11.42" height="1.18"/><rect class="cls-12" x="479.82" y="125.5" width="11.42" height="1.18"/><rect class="cls-13" x="479.82" y="129.4" width="11.42" height="1.18"/><rect class="cls-14" x="479.82" y="131.35" width="11.42" height="1.18"/><rect class="cls-15" x="479.82" y="133.3" width="11.42" height="1.18"/><rect class="cls-16" x="479.82" y="135.26" width="11.42" height="1.18"/><rect class="cls-17" x="479.82" y="137.21" width="11.42" height="1.18"/><rect class="cls-18" x="479.82" y="139.16" width="11.42" height="1.18"/><rect class="cls-19" x="479.82" y="141.11" width="11.42" height="1.18"/><rect class="cls-20" x="479.82" y="143.06" width="11.42" height="1.18"/><rect class="cls-21" x="479.82" y="145.02" width="11.42" height="1.18"/><rect class="cls-5" x="493.58" y="112.01" width="16.27" height="36.38"/><rect class="cls-6" x="496.08" y="113.78" width="11.42" height="1.18"/><rect class="cls-7" x="496.08" y="115.74" width="11.42" height="1.18"/><rect class="cls-8" x="496.08" y="117.69" width="11.42" height="1.18"/><rect class="cls-9" x="496.08" y="119.64" width="11.42" height="1.18"/><rect class="cls-10" x="496.08" y="121.59" width="11.42" height="1.18"/><rect class="cls-11" x="496.08" y="123.54" width="11.42" height="1.18"/><rect class="cls-12" x="496.08" y="125.5" width="11.42" height="1.18"/><rect class="cls-13" x="496.08" y="129.4" width="11.42" height="1.18"/><rect class="cls-14" x="496.08" y="131.35" width="11.42" height="1.18"/><rect class="cls-15" x="496.08" y="133.3" width="11.42" height="1.18"/><rect class="cls-16" x="496.08" y="135.26" width="11.42" height="1.18"/><rect class="cls-17" x="496.08" y="137.21" width="11.42" height="1.18"/><rect class="cls-18" x="496.08" y="139.16" width="11.42" height="1.18"/><rect class="cls-19" x="496.08" y="141.11" width="11.42" height="1.18"/><rect class="cls-20" x="496.08" y="143.06" width="11.42" height="1.18"/><rect class="cls-21" x="496.08" y="145.02" width="11.42" height="1.18"/><rect class="cls-5" x="509.85" y="112.01" width="16.27" height="36.38"/><rect class="cls-6" x="512.35" y="113.78" width="11.42" height="1.18"/><rect class="cls-7" x="512.35" y="115.74" width="11.42" height="1.18"/><rect class="cls-8" x="512.35" y="117.69" width="11.42" height="1.18"/><rect class="cls-9" x="512.35" y="119.64" width="11.42" height="1.18"/><rect class="cls-10" x="512.35" y="121.59" width="11.42" height="1.18"/><rect class="cls-11" x="512.35" y="123.54" width="11.42" height="1.18"/><rect class="cls-12" x="512.35" y="125.5" width="11.42" height="1.18"/><rect class="cls-13" x="512.35" y="129.4" width="11.42" height="1.18"/><rect class="cls-14" x="512.35" y="131.35" width="11.42" height="1.18"/><rect class="cls-15" x="512.35" y="133.3" width="11.42" height="1.18"/><rect class="cls-16" x="512.35" y="135.26" width="11.42" height="1.18"/><rect class="cls-17" x="512.35" y="137.21" width="11.42" height="1.18"/><rect class="cls-18" x="512.35" y="139.16" width="11.42" height="1.18"/><rect class="cls-19" x="512.35" y="141.11" width="11.42" height="1.18"/><rect class="cls-20" x="512.35" y="143.06" width="11.42" height="1.18"/><rect class="cls-21" x="512.35" y="145.02" width="11.42" height="1.18"/><rect class="cls-5" x="557.88" y="111.24" width="16.27" height="36.38"/><rect class="cls-6" x="560.38" y="113.02" width="11.42" height="1.18"/><rect class="cls-7" x="560.38" y="114.97" width="11.42" height="1.18"/><rect class="cls-8" x="560.38" y="116.92" width="11.42" height="1.18"/><rect class="cls-9" x="560.38" y="118.87" width="11.42" height="1.18"/><rect class="cls-10" x="560.38" y="120.82" width="11.42" height="1.18"/><rect class="cls-11" x="560.38" y="122.78" width="11.42" height="1.18"/><rect class="cls-12" x="560.38" y="124.73" width="11.42" height="1.18"/><rect class="cls-13" x="560.38" y="128.63" width="11.42" height="1.18"/><rect class="cls-14" x="560.38" y="130.58" width="11.42" height="1.18"/><rect class="cls-15" x="560.38" y="132.54" width="11.42" height="1.18"/><rect class="cls-16" x="560.38" y="134.49" width="11.42" height="1.18"/><rect class="cls-17" x="560.38" y="136.44" width="11.42" height="1.18"/><rect class="cls-18" x="560.38" y="138.39" width="11.42" height="1.18"/><rect class="cls-19" x="560.38" y="140.34" width="11.42" height="1.18"/><rect class="cls-20" x="560.38" y="142.3" width="11.42" height="1.18"/><rect class="cls-21" x="560.38" y="144.25" width="11.42" height="1.18"/><rect class="cls-5" x="574.14" y="111.24" width="16.27" height="36.38"/><rect class="cls-6" x="576.64" y="113.02" width="11.42" height="1.18"/><rect class="cls-7" x="576.64" y="114.97" width="11.42" height="1.18"/><rect class="cls-8" x="576.64" y="116.92" width="11.42" height="1.18"/><rect class="cls-9" x="576.64" y="118.87" width="11.42" height="1.18"/><rect class="cls-10" x="576.64" y="120.82" width="11.42" height="1.18"/><rect class="cls-11" x="576.64" y="122.78" width="11.42" height="1.18"/><rect class="cls-12" x="576.64" y="124.73" width="11.42" height="1.18"/><rect class="cls-13" x="576.64" y="128.63" width="11.42" height="1.18"/><rect class="cls-14" x="576.64" y="130.58" width="11.42" height="1.18"/><rect class="cls-15" x="576.64" y="132.54" width="11.42" height="1.18"/><rect class="cls-16" x="576.64" y="134.49" width="11.42" height="1.18"/><rect class="cls-17" x="576.64" y="136.44" width="11.42" height="1.18"/><rect class="cls-18" x="576.64" y="138.39" width="11.42" height="1.18"/><rect class="cls-19" x="576.64" y="140.34" width="11.42" height="1.18"/><rect class="cls-20" x="576.64" y="142.3" width="11.42" height="1.18"/><rect class="cls-21" x="576.64" y="144.25" width="11.42" height="1.18"/><rect class="cls-5" x="590.41" y="111.24" width="16.27" height="36.38"/><rect class="cls-6" x="592.91" y="113.02" width="11.42" height="1.18"/><rect class="cls-7" x="592.91" y="114.97" width="11.42" height="1.18"/><rect class="cls-8" x="592.91" y="116.92" width="11.42" height="1.18"/><rect class="cls-9" x="592.91" y="118.87" width="11.42" height="1.18"/><rect class="cls-10" x="592.91" y="120.82" width="11.42" height="1.18"/><rect class="cls-11" x="592.91" y="122.78" width="11.42" height="1.18"/><rect class="cls-12" x="592.91" y="124.73" width="11.42" height="1.18"/><rect class="cls-13" x="592.91" y="128.63" width="11.42" height="1.18"/><rect class="cls-14" x="592.91" y="130.58" width="11.42" height="1.18"/><rect class="cls-15" x="592.91" y="132.54" width="11.42" height="1.18"/><rect class="cls-16" x="592.91" y="134.49" width="11.42" height="1.18"/><rect class="cls-17" x="592.91" y="136.44" width="11.42" height="1.18"/><rect class="cls-18" x="592.91" y="138.39" width="11.42" height="1.18"/><rect class="cls-19" x="592.91" y="140.34" width="11.42" height="1.18"/><rect class="cls-20" x="592.91" y="142.3" width="11.42" height="1.18"/><rect class="cls-21" x="592.91" y="144.25" width="11.42" height="1.18"/><rect class="cls-4" x="423.26" y="156.1" width="3.58" height="13.27"/><rect class="cls-4" x="431.33" y="156.1" width="3.58" height="13.27"/><rect class="cls-4" x="439.4" y="156.1" width="3.58" height="13.27"/><rect class="cls-4" x="447.46" y="156.1" width="3.58" height="13.27"/><rect class="cls-4" x="455.53" y="156.1" width="3.58" height="13.27"/><rect class="cls-4" x="463.6" y="156.1" width="3.58" height="13.27"/><rect class="cls-4" x="471.67" y="156.1" width="3.58" height="13.27"/><rect class="cls-4" x="479.74" y="156.1" width="3.58" height="13.27"/><rect class="cls-4" x="487.8" y="156.1" width="3.58" height="13.27"/><rect class="cls-4" x="495.87" y="156.1" width="3.58" height="13.27"/><rect class="cls-4" x="503.94" y="156.1" width="3.58" height="13.27"/><rect class="cls-4" x="512.01" y="156.1" width="3.58" height="13.27"/><rect class="cls-4" x="520.07" y="156.1" width="3.58" height="13.27"/><rect class="cls-4" x="528.14" y="156.1" width="3.58" height="13.27"/><rect class="cls-4" x="552.35" y="156.1" width="3.58" height="13.27"/><rect class="cls-4" x="560.41" y="156.1" width="3.58" height="13.27"/><rect class="cls-4" x="568.48" y="156.1" width="3.58" height="13.27"/><rect class="cls-4" x="576.55" y="156.1" width="3.58" height="13.27"/><rect class="cls-4" x="584.62" y="156.1" width="3.58" height="13.27"/><rect class="cls-4" x="592.69" y="156.1" width="3.58" height="13.27"/><rect class="cls-4" x="600.75" y="156.1" width="3.58" height="13.27"/><polygon class="cls-4" points="555.92 366.1 606.68 366.1 606.68 366.1 555.92 366.1 555.92 366.1"/><rect class="cls-22" x="406.04" y="366.1" width="200.64" height="186.42"/><rect class="cls-23" x="122.54" y="219.8" width="283.5" height="332.71"/><circle class="cls-4" cx="450.57" cy="209.71" r="8.13"/><circle class="cls-24" cx="450.57" cy="209.71" r="5.11"/><circle class="cls-4" cx="506.36" cy="209.71" r="8.13"/><circle class="cls-24" cx="506.36" cy="209.71" r="5.11"/><circle class="cls-4" cx="575.54" cy="209.71" r="8.13"/><circle class="cls-24" cx="575.54" cy="209.71" r="5.11"/><path class="cls-24" d="M662.25,282.54v47.88H626.49V282.54a17.88,17.88,0,1,1,35.76,0Z" transform="translate(-68.32 -9.59)"/><path class="cls-24" d="M592.56,282.54v47.88H556.8V282.54a17.88,17.88,0,1,1,35.76,0Z" transform="translate(-68.32 -9.59)"/><path class="cls-24" d="M536.67,282.54v47.88H500.91V282.54a17.88,17.88,0,1,1,35.76,0Z" transform="translate(-68.32 -9.59)"/><rect class="cls-25" x="532.69" y="366.1" width="17.22" height="186.42"/><path class="cls-24" d="M580.11,419.82V493.2H514.54V419.82a32.79,32.79,0,1,1,65.57,0Z" transform="translate(-68.32 -9.59)"/><rect class="cls-4" x="446.21" y="463.78" width="65.57" height="4.19"/><rect class="cls-4" x="450.17" y="467.97" width="3.63" height="15.64"/><rect class="cls-4" x="456.92" y="467.97" width="3.63" height="15.64"/><rect class="cls-4" x="463.68" y="467.97" width="3.63" height="15.64"/><rect class="cls-4" x="470.43" y="467.97" width="3.63" height="15.64"/><rect class="cls-4" x="477.18" y="467.97" width="3.63" height="15.64"/><rect class="cls-4" x="483.94" y="467.97" width="3.63" height="15.64"/><rect class="cls-4" x="490.69" y="467.97" width="3.63" height="15.64"/><rect class="cls-4" x="497.44" y="467.97" width="3.63" height="15.64"/><rect class="cls-4" x="504.2" y="467.97" width="3.63" height="15.64"/><line class="cls-26" x1="504.2" y1="475.79" x2="453.8" y2="475.79"/><path class="cls-24" d="M240.53,368.28v58.89H197.69V368.28a21.42,21.42,0,1,1,42.84,0Z" transform="translate(-68.32 -9.59)"/><path class="cls-24" d="M240.53,490.27V562.1H197.69V490.27c0-14.42,9.6-26.12,21.42-26.12S240.53,475.85,240.53,490.27Z" transform="translate(-68.32 -9.59)"/><path class="cls-24" d="M355.62,490.27V562.1H282.35V490.27c0-14.42,16.42-26.12,36.64-26.12S355.62,475.85,355.62,490.27Z" transform="translate(-68.32 -9.59)"/><path class="cls-24" d="M471.71,490.27V562.1H398.44V490.27c0-14.42,16.42-26.12,36.64-26.12S471.71,475.85,471.71,490.27Z" transform="translate(-68.32 -9.59)"/><path class="cls-24" d="M422.55,256.59v35.82H395.26V256.59c0-7.19,6.12-13,13.65-13S422.55,249.4,422.55,256.59Z" transform="translate(-68.32 -9.59)"/><path class="cls-24" d="M232.33,256.59v35.82H205V256.59c0-7.19,6.12-13,13.65-13S232.33,249.4,232.33,256.59Z" transform="translate(-68.32 -9.59)"/><path class="cls-24" d="M306.32,256.27l.56,35.82-27.29.43L279,256.7c-.11-7.19,5.91-13.12,13.44-13.24S306.2,249.08,306.32,256.27Z" transform="translate(-68.32 -9.59)"/><path class="cls-24" d="M351,256.59v35.82H323.75V256.59c0-7.19,6.12-13,13.65-13S351,249.4,351,256.59Z" transform="translate(-68.32 -9.59)"/><path class="cls-24" d="M470.6,256.59v35.82H443.31V256.59c0-7.19,6.12-13,13.65-13S470.6,249.4,470.6,256.59Z" transform="translate(-68.32 -9.59)"/><path class="cls-24" d="M314.37,368.28v58.89H271.54V368.28a21.42,21.42,0,1,1,42.83,0Z" transform="translate(-68.32 -9.59)"/><path class="cls-24" d="M362.11,368.28v58.89H319.27V368.28a21.42,21.42,0,0,1,42.84,0Z" transform="translate(-68.32 -9.59)"/><path class="cls-24" d="M434.64,368.28v58.89H391.81V368.28a21.42,21.42,0,1,1,42.83,0Z" transform="translate(-68.32 -9.59)"/><path class="cls-24" d="M486.57,368.28v58.89H443.74V368.28a21.42,21.42,0,1,1,42.83,0Z" transform="translate(-68.32 -9.59)"/><rect class="cls-27" x="337.47" y="345.29" width="269.2" height="20.81"/><rect class="cls-25" x="406.04" y="366.1" width="17.22" height="186.42"/><rect class="cls-4" x="103.37" y="219.8" width="19.18" height="332.71"/><rect class="cls-4" x="179.03" y="219.8" width="19.18" height="332.71"/><rect class="cls-4" x="298.69" y="219.8" width="19.18" height="332.71"/><rect class="cls-4" x="122.54" y="301.8" width="283.5" height="10.85"/><rect class="cls-4" x="122.54" y="430.65" width="283.5" height="10.85"/><polygon class="cls-1" points="677.42 78.31 606.68 78.31 606.68 103.83 830.51 103.83 677.42 78.31"/><polygon class="cls-1" points="830.51 103.83 880.38 103.83 1123.84 212.84 1123.84 219.8 807.31 219.8 807.31 145.58 830.51 103.83"/><polygon class="cls-2" points="830.51 103.83 807.31 145.58 807.31 103.83 830.51 103.83"/><rect class="cls-3" x="675" y="113.41" width="200.64" height="241.45" transform="translate(1482.31 458.69) rotate(-180)"/><polygon class="cls-4" points="663.44 214.22 663.44 230.72 667.66 230.72 667.66 345.29 676.42 345.29 676.42 230.72 680.66 230.72 680.66 214.22 678.69 214.22 678.69 177.39 676.51 177.39 676.42 103.57 667.66 103.57 667.59 177.39 665.41 177.39 665.41 214.22 663.44 214.22"/><polygon class="cls-4" points="790.09 214.22 790.09 230.72 794.31 230.72 794.31 345.29 803.07 345.29 803.07 230.72 807.31 230.72 807.31 214.22 805.34 214.22 805.34 177.39 803.16 177.39 803.07 103.57 794.31 103.57 794.24 177.39 792.06 177.39 792.06 214.22 790.09 214.22"/><rect class="cls-4" x="675" y="160.25" width="200.64" height="5.44" transform="translate(1482.31 316.36) rotate(-180)"/><rect class="cls-4" x="675" y="199.01" width="200.64" height="5.44" transform="translate(1482.31 393.88) rotate(-180)"/><rect class="cls-4" x="675" y="236.36" width="200.64" height="5.44" transform="translate(1482.31 468.57) rotate(-180)"/><rect class="cls-4" x="606.05" y="163.93" width="201.27" height="5.44"/><rect class="cls-5" x="836.89" y="121.63" width="16.27" height="36.38" transform="translate(1621.73 270.04) rotate(-180)"/><rect class="cls-6" x="770.91" y="113.81" width="11.42" height="1.18"/><rect class="cls-7" x="770.91" y="115.77" width="11.42" height="1.18"/><rect class="cls-8" x="770.91" y="117.72" width="11.42" height="1.18"/><rect class="cls-9" x="770.91" y="119.67" width="11.42" height="1.18"/><rect class="cls-10" x="770.91" y="121.62" width="11.42" height="1.18"/><rect class="cls-11" x="770.91" y="123.57" width="11.42" height="1.18"/><rect class="cls-12" x="770.91" y="125.53" width="11.42" height="1.18"/><rect class="cls-13" x="770.91" y="129.43" width="11.42" height="1.18"/><rect class="cls-14" x="770.91" y="131.38" width="11.42" height="1.18"/><rect class="cls-15" x="770.91" y="133.33" width="11.42" height="1.18"/><rect class="cls-16" x="770.91" y="135.29" width="11.42" height="1.18"/><rect class="cls-17" x="770.91" y="137.24" width="11.42" height="1.18"/><rect class="cls-18" x="770.91" y="139.19" width="11.42" height="1.18"/><rect class="cls-19" x="770.91" y="141.14" width="11.42" height="1.18"/><rect class="cls-20" x="770.91" y="143.09" width="11.42" height="1.18"/><rect class="cls-21" x="770.91" y="145.05" width="11.42" height="1.18"/><rect class="cls-5" x="820.63" y="121.6" width="16.27" height="36.38" transform="translate(1589.19 269.98) rotate(-180)"/><rect class="cls-6" x="754.65" y="113.78" width="11.42" height="1.18"/><rect class="cls-7" x="754.65" y="115.74" width="11.42" height="1.18"/><rect class="cls-8" x="754.65" y="117.69" width="11.42" height="1.18"/><rect class="cls-9" x="754.65" y="119.64" width="11.42" height="1.18"/><rect class="cls-10" x="754.65" y="121.59" width="11.42" height="1.18"/><rect class="cls-11" x="754.65" y="123.54" width="11.42" height="1.18"/><rect class="cls-12" x="754.65" y="125.5" width="11.42" height="1.18"/><rect class="cls-13" x="754.65" y="129.4" width="11.42" height="1.18"/><rect class="cls-14" x="754.65" y="131.35" width="11.42" height="1.18"/><rect class="cls-15" x="754.65" y="133.3" width="11.42" height="1.18"/><rect class="cls-16" x="754.65" y="135.26" width="11.42" height="1.18"/><rect class="cls-17" x="754.65" y="137.21" width="11.42" height="1.18"/><rect class="cls-18" x="754.65" y="139.16" width="11.42" height="1.18"/><rect class="cls-19" x="754.65" y="141.11" width="11.42" height="1.18"/><rect class="cls-20" x="754.65" y="143.06" width="11.42" height="1.18"/><rect class="cls-21" x="754.65" y="145.02" width="11.42" height="1.18"/><rect class="cls-5" x="804.36" y="121.6" width="16.27" height="36.38" transform="translate(1556.66 269.98) rotate(-180)"/><rect class="cls-6" x="738.38" y="113.78" width="11.42" height="1.18"/><rect class="cls-7" x="738.38" y="115.74" width="11.42" height="1.18"/><rect class="cls-8" x="738.38" y="117.69" width="11.42" height="1.18"/><rect class="cls-9" x="738.38" y="119.64" width="11.42" height="1.18"/><rect class="cls-10" x="738.38" y="121.59" width="11.42" height="1.18"/><rect class="cls-11" x="738.38" y="123.54" width="11.42" height="1.18"/><rect class="cls-12" x="738.38" y="125.5" width="11.42" height="1.18"/><rect class="cls-13" x="738.38" y="129.4" width="11.42" height="1.18"/><rect class="cls-14" x="738.38" y="131.35" width="11.42" height="1.18"/><rect class="cls-15" x="738.38" y="133.3" width="11.42" height="1.18"/><rect class="cls-16" x="738.38" y="135.26" width="11.42" height="1.18"/><rect class="cls-17" x="738.38" y="137.21" width="11.42" height="1.18"/><rect class="cls-18" x="738.38" y="139.16" width="11.42" height="1.18"/><rect class="cls-19" x="738.38" y="141.11" width="11.42" height="1.18"/><rect class="cls-20" x="738.38" y="143.06" width="11.42" height="1.18"/><rect class="cls-21" x="738.38" y="145.02" width="11.42" height="1.18"/><rect class="cls-5" x="788.09" y="121.6" width="16.27" height="36.38" transform="translate(1524.13 269.98) rotate(-180)"/><rect class="cls-6" x="722.12" y="113.78" width="11.42" height="1.18"/><rect class="cls-7" x="722.12" y="115.74" width="11.42" height="1.18"/><rect class="cls-8" x="722.12" y="117.69" width="11.42" height="1.18"/><rect class="cls-9" x="722.12" y="119.64" width="11.42" height="1.18"/><rect class="cls-10" x="722.12" y="121.59" width="11.42" height="1.18"/><rect class="cls-11" x="722.12" y="123.54" width="11.42" height="1.18"/><rect class="cls-12" x="722.12" y="125.5" width="11.42" height="1.18"/><rect class="cls-13" x="722.12" y="129.4" width="11.42" height="1.18"/><rect class="cls-14" x="722.12" y="131.35" width="11.42" height="1.18"/><rect class="cls-15" x="722.12" y="133.3" width="11.42" height="1.18"/><rect class="cls-16" x="722.12" y="135.26" width="11.42" height="1.18"/><rect class="cls-17" x="722.12" y="137.21" width="11.42" height="1.18"/><rect class="cls-18" x="722.12" y="139.16" width="11.42" height="1.18"/><rect class="cls-19" x="722.12" y="141.11" width="11.42" height="1.18"/><rect class="cls-20" x="722.12" y="143.06" width="11.42" height="1.18"/><rect class="cls-21" x="722.12" y="145.02" width="11.42" height="1.18"/><rect class="cls-5" x="771.83" y="121.6" width="16.27" height="36.38" transform="translate(1491.6 269.98) rotate(-180)"/><rect class="cls-6" x="705.85" y="113.78" width="11.42" height="1.18"/><rect class="cls-7" x="705.85" y="115.74" width="11.42" height="1.18"/><rect class="cls-8" x="705.85" y="117.69" width="11.42" height="1.18"/><rect class="cls-9" x="705.85" y="119.64" width="11.42" height="1.18"/><rect class="cls-10" x="705.85" y="121.59" width="11.42" height="1.18"/><rect class="cls-11" x="705.85" y="123.54" width="11.42" height="1.18"/><rect class="cls-12" x="705.85" y="125.5" width="11.42" height="1.18"/><rect class="cls-13" x="705.85" y="129.4" width="11.42" height="1.18"/><rect class="cls-14" x="705.85" y="131.35" width="11.42" height="1.18"/><rect class="cls-15" x="705.85" y="133.3" width="11.42" height="1.18"/><rect class="cls-16" x="705.85" y="135.26" width="11.42" height="1.18"/><rect class="cls-17" x="705.85" y="137.21" width="11.42" height="1.18"/><rect class="cls-18" x="705.85" y="139.16" width="11.42" height="1.18"/><rect class="cls-19" x="705.85" y="141.11" width="11.42" height="1.18"/><rect class="cls-20" x="705.85" y="143.06" width="11.42" height="1.18"/><rect class="cls-21" x="705.85" y="145.02" width="11.42" height="1.18"/><rect class="cls-5" x="755.56" y="121.6" width="16.27" height="36.38" transform="translate(1459.07 269.98) rotate(-180)"/><rect class="cls-6" x="689.58" y="113.78" width="11.42" height="1.18"/><rect class="cls-7" x="689.58" y="115.74" width="11.42" height="1.18"/><rect class="cls-8" x="689.58" y="117.69" width="11.42" height="1.18"/><rect class="cls-9" x="689.58" y="119.64" width="11.42" height="1.18"/><rect class="cls-10" x="689.58" y="121.59" width="11.42" height="1.18"/><rect class="cls-11" x="689.58" y="123.54" width="11.42" height="1.18"/><rect class="cls-12" x="689.58" y="125.5" width="11.42" height="1.18"/><rect class="cls-13" x="689.58" y="129.4" width="11.42" height="1.18"/><rect class="cls-14" x="689.58" y="131.35" width="11.42" height="1.18"/><rect class="cls-15" x="689.58" y="133.3" width="11.42" height="1.18"/><rect class="cls-16" x="689.58" y="135.26" width="11.42" height="1.18"/><rect class="cls-17" x="689.58" y="137.21" width="11.42" height="1.18"/><rect class="cls-18" x="689.58" y="139.16" width="11.42" height="1.18"/><rect class="cls-19" x="689.58" y="141.11" width="11.42" height="1.18"/><rect class="cls-20" x="689.58" y="143.06" width="11.42" height="1.18"/><rect class="cls-21" x="689.58" y="145.02" width="11.42" height="1.18"/><rect class="cls-5" x="707.53" y="120.83" width="16.27" height="36.38" transform="translate(1363.01 268.45) rotate(-180)"/><rect class="cls-6" x="641.55" y="113.02" width="11.42" height="1.18"/><rect class="cls-7" x="641.55" y="114.97" width="11.42" height="1.18"/><rect class="cls-8" x="641.55" y="116.92" width="11.42" height="1.18"/><rect class="cls-9" x="641.55" y="118.87" width="11.42" height="1.18"/><rect class="cls-10" x="641.55" y="120.82" width="11.42" height="1.18"/><rect class="cls-11" x="641.55" y="122.78" width="11.42" height="1.18"/><rect class="cls-12" x="641.55" y="124.73" width="11.42" height="1.18"/><rect class="cls-13" x="641.55" y="128.63" width="11.42" height="1.18"/><rect class="cls-14" x="641.55" y="130.58" width="11.42" height="1.18"/><rect class="cls-15" x="641.55" y="132.54" width="11.42" height="1.18"/><rect class="cls-16" x="641.55" y="134.49" width="11.42" height="1.18"/><rect class="cls-17" x="641.55" y="136.44" width="11.42" height="1.18"/><rect class="cls-18" x="641.55" y="138.39" width="11.42" height="1.18"/><rect class="cls-19" x="641.55" y="140.34" width="11.42" height="1.18"/><rect class="cls-20" x="641.55" y="142.3" width="11.42" height="1.18"/><rect class="cls-21" x="641.55" y="144.25" width="11.42" height="1.18"/><rect class="cls-5" x="691.27" y="120.83" width="16.27" height="36.38" transform="translate(1330.47 268.45) rotate(-180)"/><rect class="cls-6" x="625.29" y="113.02" width="11.42" height="1.18"/><rect class="cls-7" x="625.29" y="114.97" width="11.42" height="1.18"/><rect class="cls-8" x="625.29" y="116.92" width="11.42" height="1.18"/><rect class="cls-9" x="625.29" y="118.87" width="11.42" height="1.18"/><rect class="cls-10" x="625.29" y="120.82" width="11.42" height="1.18"/><rect class="cls-11" x="625.29" y="122.78" width="11.42" height="1.18"/><rect class="cls-12" x="625.29" y="124.73" width="11.42" height="1.18"/><rect class="cls-13" x="625.29" y="128.63" width="11.42" height="1.18"/><rect class="cls-14" x="625.29" y="130.58" width="11.42" height="1.18"/><rect class="cls-15" x="625.29" y="132.54" width="11.42" height="1.18"/><rect class="cls-16" x="625.29" y="134.49" width="11.42" height="1.18"/><rect class="cls-17" x="625.29" y="136.44" width="11.42" height="1.18"/><rect class="cls-18" x="625.29" y="138.39" width="11.42" height="1.18"/><rect class="cls-19" x="625.29" y="140.34" width="11.42" height="1.18"/><rect class="cls-20" x="625.29" y="142.3" width="11.42" height="1.18"/><rect class="cls-21" x="625.29" y="144.25" width="11.42" height="1.18"/><rect class="cls-5" x="675" y="120.83" width="16.27" height="36.38" transform="translate(1297.94 268.45) rotate(-180)"/><rect class="cls-6" x="609.02" y="113.02" width="11.42" height="1.18"/><rect class="cls-7" x="609.02" y="114.97" width="11.42" height="1.18"/><rect class="cls-8" x="609.02" y="116.92" width="11.42" height="1.18"/><rect class="cls-9" x="609.02" y="118.87" width="11.42" height="1.18"/><rect class="cls-10" x="609.02" y="120.82" width="11.42" height="1.18"/><rect class="cls-11" x="609.02" y="122.78" width="11.42" height="1.18"/><rect class="cls-12" x="609.02" y="124.73" width="11.42" height="1.18"/><rect class="cls-13" x="609.02" y="128.63" width="11.42" height="1.18"/><rect class="cls-14" x="609.02" y="130.58" width="11.42" height="1.18"/><rect class="cls-15" x="609.02" y="132.54" width="11.42" height="1.18"/><rect class="cls-16" x="609.02" y="134.49" width="11.42" height="1.18"/><rect class="cls-17" x="609.02" y="136.44" width="11.42" height="1.18"/><rect class="cls-18" x="609.02" y="138.39" width="11.42" height="1.18"/><rect class="cls-19" x="609.02" y="140.34" width="11.42" height="1.18"/><rect class="cls-20" x="609.02" y="142.3" width="11.42" height="1.18"/><rect class="cls-21" x="609.02" y="144.25" width="11.42" height="1.18"/><rect class="cls-4" x="786.51" y="156.1" width="3.58" height="13.27"/><rect class="cls-4" x="778.45" y="156.1" width="3.58" height="13.27"/><rect class="cls-4" x="770.38" y="156.1" width="3.58" height="13.27"/><rect class="cls-4" x="762.31" y="156.1" width="3.58" height="13.27"/><rect class="cls-4" x="754.24" y="156.1" width="3.58" height="13.27"/><rect class="cls-4" x="746.17" y="156.1" width="3.58" height="13.27"/><rect class="cls-4" x="738.11" y="156.1" width="3.58" height="13.27"/><rect class="cls-4" x="730.04" y="156.1" width="3.58" height="13.27"/><rect class="cls-4" x="721.97" y="156.1" width="3.58" height="13.27"/><rect class="cls-4" x="713.9" y="156.1" width="3.58" height="13.27"/><rect class="cls-4" x="705.84" y="156.1" width="3.58" height="13.27"/><rect class="cls-4" x="697.77" y="156.1" width="3.58" height="13.27"/><rect class="cls-4" x="689.7" y="156.1" width="3.58" height="13.27"/><rect class="cls-4" x="681.63" y="156.1" width="3.58" height="13.27"/><rect class="cls-4" x="657.43" y="156.1" width="3.58" height="13.27"/><rect class="cls-4" x="649.36" y="156.1" width="3.58" height="13.27"/><rect class="cls-4" x="641.29" y="156.1" width="3.58" height="13.27"/><rect class="cls-4" x="633.22" y="156.1" width="3.58" height="13.27"/><rect class="cls-4" x="625.16" y="156.1" width="3.58" height="13.27"/><rect class="cls-4" x="617.09" y="156.1" width="3.58" height="13.27"/><rect class="cls-4" x="609.02" y="156.1" width="3.58" height="13.27"/><polygon class="cls-4" points="657.43 366.1 606.68 366.1 606.68 366.1 657.43 366.1 657.43 366.1"/><rect class="cls-22" x="675" y="375.69" width="200.64" height="186.42" transform="translate(1482.31 928.2) rotate(-180)"/><rect class="cls-23" x="875.64" y="229.39" width="283.5" height="332.71" transform="translate(1966.44 781.9) rotate(-180)"/><circle class="cls-4" cx="762.78" cy="209.71" r="8.13"/><circle class="cls-24" cx="762.78" cy="209.71" r="5.11"/><circle class="cls-4" cx="706.99" cy="209.71" r="8.13"/><circle class="cls-24" cx="706.99" cy="209.71" r="5.11"/><circle class="cls-4" cx="637.81" cy="209.71" r="8.13"/><circle class="cls-24" cx="637.81" cy="209.71" r="5.11"/><path class="cls-24" d="M687.75,282.54v47.88h35.76V282.54a17.88,17.88,0,1,0-35.76,0Z" transform="translate(-68.32 -9.59)"/><path class="cls-24" d="M757.44,282.54v47.88H793.2V282.54a17.88,17.88,0,1,0-35.76,0Z" transform="translate(-68.32 -9.59)"/><path class="cls-24" d="M813.33,282.54v47.88h35.76V282.54a17.88,17.88,0,1,0-35.76,0Z" transform="translate(-68.32 -9.59)"/><rect class="cls-25" x="731.77" y="375.69" width="17.22" height="186.42" transform="translate(1412.43 928.2) rotate(-180)"/><path class="cls-24" d="M769.89,419.82V493.2h65.57V419.82a32.79,32.79,0,1,0-65.57,0Z" transform="translate(-68.32 -9.59)"/><rect class="cls-4" x="769.89" y="473.37" width="65.57" height="4.19" transform="translate(1537.03 941.34) rotate(-180)"/><rect class="cls-4" x="759.55" y="467.97" width="3.63" height="15.64"/><rect class="cls-4" x="752.8" y="467.97" width="3.63" height="15.64"/><rect class="cls-4" x="746.05" y="467.97" width="3.63" height="15.64"/><rect class="cls-4" x="739.29" y="467.97" width="3.63" height="15.64"/><rect class="cls-4" x="732.54" y="467.97" width="3.63" height="15.64"/><rect class="cls-4" x="725.79" y="467.97" width="3.63" height="15.64"/><rect class="cls-4" x="719.03" y="467.97" width="3.63" height="15.64"/><rect class="cls-4" x="712.28" y="467.97" width="3.63" height="15.64"/><rect class="cls-4" x="705.53" y="467.97" width="3.63" height="15.64"/><line class="cls-26" x1="709.16" y1="475.79" x2="759.55" y2="475.79"/><path class="cls-24" d="M1109.47,368.28v58.89h42.84V368.28a21.42,21.42,0,1,0-42.84,0Z" transform="translate(-68.32 -9.59)"/><path class="cls-24" d="M1109.47,490.27V562.1h42.84V490.27c0-14.42-9.6-26.12-21.42-26.12S1109.47,475.85,1109.47,490.27Z" transform="translate(-68.32 -9.59)"/><path class="cls-24" d="M994.38,490.27V562.1h73.27V490.27c0-14.42-16.42-26.12-36.64-26.12S994.38,475.85,994.38,490.27Z" transform="translate(-68.32 -9.59)"/><path class="cls-24" d="M878.29,490.27V562.1h73.27V490.27c0-14.42-16.42-26.12-36.64-26.12S878.29,475.85,878.29,490.27Z" transform="translate(-68.32 -9.59)"/><path class="cls-24" d="M927.45,256.59v35.82h27.29V256.59c0-7.19-6.12-13-13.65-13S927.45,249.4,927.45,256.59Z" transform="translate(-68.32 -9.59)"/><path class="cls-24" d="M1117.67,256.59v35.82H1145V256.59c0-7.19-6.12-13-13.65-13S1117.67,249.4,1117.67,256.59Z" transform="translate(-68.32 -9.59)"/><path class="cls-24" d="M1043.68,256.27l-.56,35.82,27.29.43.56-35.82c.11-7.19-5.91-13.12-13.44-13.24S1043.8,249.08,1043.68,256.27Z" transform="translate(-68.32 -9.59)"/><path class="cls-24" d="M999,256.59v35.82h27.29V256.59c0-7.19-6.12-13-13.65-13S999,249.4,999,256.59Z" transform="translate(-68.32 -9.59)"/><path class="cls-24" d="M879.4,256.59v35.82h27.29V256.59c0-7.19-6.12-13-13.65-13S879.4,249.4,879.4,256.59Z" transform="translate(-68.32 -9.59)"/><path class="cls-24" d="M1035.63,368.28v58.89h42.83V368.28a21.42,21.42,0,1,0-42.83,0Z" transform="translate(-68.32 -9.59)"/><path class="cls-24" d="M987.89,368.28v58.89h42.84V368.28a21.42,21.42,0,0,0-42.84,0Z" transform="translate(-68.32 -9.59)"/><path class="cls-24" d="M915.36,368.28v58.89h42.83V368.28a21.42,21.42,0,1,0-42.83,0Z" transform="translate(-68.32 -9.59)"/><path class="cls-24" d="M863.43,368.28v58.89h42.83V368.28a21.42,21.42,0,1,0-42.83,0Z" transform="translate(-68.32 -9.59)"/><rect class="cls-27" x="675" y="354.87" width="269.2" height="20.81" transform="translate(1550.88 720.97) rotate(-180)"/><rect class="cls-25" x="858.42" y="375.69" width="17.22" height="186.42" transform="translate(1665.73 928.2) rotate(-180)"/><rect class="cls-4" x="1159.13" y="229.39" width="19.18" height="332.71" transform="translate(2269.12 781.9) rotate(-180)"/><rect class="cls-4" x="1083.47" y="229.39" width="19.18" height="332.71" transform="translate(2117.79 781.9) rotate(-180)"/><rect class="cls-4" x="963.81" y="229.39" width="19.18" height="332.71" transform="translate(1878.48 781.9) rotate(-180)"/><rect class="cls-4" x="875.64" y="311.39" width="283.5" height="10.85" transform="translate(1966.44 624.04) rotate(-180)"/><rect class="cls-4" x="875.64" y="440.24" width="283.5" height="10.85" transform="translate(1966.44 881.74) rotate(-180)"/><path class="cls-24" d="M709.94,419.94v73.38H644.37V419.94a32.79,32.79,0,1,1,65.57,0Z" transform="translate(-68.32 -9.59)"/><circle class="cls-4" cx="606.05" cy="194.87" r="23.07"/></g><g id="cay"><path class="cls-28" d="M828.35,558.19c-6.32-.27-16.36-.89-22.36-3.06-12.76-4.63-18.76-12.79-18.06-26.3,1-19.65,6.87-38.14,15.24-55.85,3.22-6.83,7-13.33,12.56-18.6,8.94-8.49,17.56-8.28,26,.77s13.23,20.14,17.47,31.47a164.26,164.26,0,0,1,9.26,37.63c2.1,17.11-5.23,27.93-22.07,32-4.59,1.12-13.27,2.3-18.06,1.91" transform="translate(-68.32 -9.59)"/><path class="cls-29" d="M925.44,567.12c-14.74,8.57-36.41,4-44.43-10.54-8.1-14.75-2.61-32.43,12.72-40.22,2.5-1.27,3-2.44,2.72-5.16-1.69-15.69,11-30.2,26.49-31.44,18.93-1.53,32.27,13.48,31.93,28.05-.12,4.94.83,7.78,5.54,10.62,12.58,7.57,16.63,24,10.12,37-6.63,13.26-24.06,19.68-38,14.77-1.65-.58-5.5-2.38-7.12-3" transform="translate(-68.32 -9.59)"/><path class="cls-30" d="M734.7,552.28c-4-.41-11.49-.54-15.43-1.27-18.39-3.44-26.41-13.13-24.53-31.58C696.51,502,704.27,487.28,719,477c10.17-7.08,21-7.31,31-.33,17.21,12,25.19,29.2,24.88,50-.15,10.79-6.12,18-16,21.87-6.44,2.53-17.28,3.65-24.17,3.72" transform="translate(-68.32 -9.59)"/><path class="cls-31" d="M832.21,527.46V589a3.43,3.43,0,0,1-3.42,3.42h-.45a3.44,3.44,0,0,1-3.41-3.42V544.64a3.38,3.38,0,0,1-.27-.26l-17.27-18.6a3.42,3.42,0,0,1,.18-4.83l.32-.31a3.44,3.44,0,0,1,4.84.19L824.93,534v-6.49a3.42,3.42,0,0,1,3.41-3.41h.45A3.42,3.42,0,0,1,832.21,527.46Z" transform="translate(-68.32 -9.59)"/><path class="cls-31" d="M756.89,519.84a3.58,3.58,0,0,1-1.07,2.58L738.4,539.86v48.67a3.64,3.64,0,0,1-7.28,0V539.88l-17.56-17.56a3.64,3.64,0,1,1,5.15-5.15l16,16,15.94-15.93a3.64,3.64,0,0,1,6.21,2.57Z" transform="translate(-68.32 -9.59)"/><path class="cls-31" d="M946.87,541l-17.78,17.77v30.06a3.64,3.64,0,1,1-7.28,0v-30L904,541a3.64,3.64,0,1,1,5.14-5.15l12.65,12.64V527.76a3.64,3.64,0,0,1,7.28,0v20.73l12.63-12.64a3.64,3.64,0,1,1,5.15,5.15Z" transform="translate(-68.32 -9.59)"/><path class="cls-28" d="M1117,557.74c-6.32-.28-16.36-.89-22.35-3.07-12.77-4.62-18.77-12.78-18.07-26.3,1-19.65,6.87-38.13,15.24-55.84,3.23-6.84,7-13.33,12.56-18.6,8.94-8.5,17.56-8.28,26,.77s13.23,20.14,17.47,31.47a164.3,164.3,0,0,1,9.26,37.62c2.1,17.12-5.23,27.94-22.07,32-4.59,1.12-13.27,2.3-18.06,1.91" transform="translate(-68.32 -9.59)"/><path class="cls-29" d="M1214.05,566.67c-14.74,8.57-36.41,4.05-44.43-10.54-8.1-14.76-2.61-32.43,12.72-40.22,2.51-1.27,3-2.44,2.72-5.16-1.69-15.7,11-30.2,26.49-31.45,18.94-1.52,32.27,13.49,31.93,28.06-.12,4.94.83,7.78,5.55,10.62,12.57,7.56,16.62,24,10.11,37-6.63,13.26-24.05,19.68-38,14.77-1.65-.58-5.5-2.39-7.12-3.05" transform="translate(-68.32 -9.59)"/><path class="cls-30" d="M1023.31,552.28c-4-.41-11.49-.54-15.43-1.27-18.39-3.44-26.41-13.13-24.53-31.58,1.77-17.45,9.53-32.15,24.28-42.43,10.17-7.08,21-7.31,31-.33,17.21,12,25.19,29.2,24.88,50-.15,10.79-6.12,18-16,21.87-6.44,2.53-17.28,3.65-24.17,3.72" transform="translate(-68.32 -9.59)"/><path class="cls-31" d="M1120.82,527.23v61.53a3.42,3.42,0,0,1-3.42,3.41H1117a3.43,3.43,0,0,1-3.41-3.41V544.4l-.27-.25L1096,525.54a3.41,3.41,0,0,1,.18-4.82l.33-.31a3.42,3.42,0,0,1,4.83.18l12.2,13.12v-6.48a3.42,3.42,0,0,1,3.41-3.42h.45A3.42,3.42,0,0,1,1120.82,527.23Z" transform="translate(-68.32 -9.59)"/><path class="cls-31" d="M1045.5,519.84a3.61,3.61,0,0,1-1.06,2.58L1027,539.86v48.67a3.64,3.64,0,0,1-7.28,0V539.88l-17.56-17.56a3.64,3.64,0,1,1,5.15-5.15l16,16,15.94-15.93a3.64,3.64,0,0,1,6.21,2.57Z" transform="translate(-68.32 -9.59)"/><path class="cls-31" d="M1237.3,541l-17.77,17.77v30.06a3.65,3.65,0,0,1-7.29,0v-30L1194.45,541a3.65,3.65,0,0,1,0-5.15,3.63,3.63,0,0,1,5.15,0l12.64,12.64V527.76a3.65,3.65,0,0,1,7.29,0v20.73l12.63-12.64a3.64,3.64,0,1,1,5.14,5.15Z" transform="translate(-68.32 -9.59)"/></g><g id="co"><path class="cls-32" d="M1227.89,507.17c-2.86,0-2.86,0-3.4-2.82a239.27,239.27,0,0,1-4.08-30.49,129.84,129.84,0,0,1,.56-24.3,75.31,75.31,0,0,1,2.24-11.34,3.1,3.1,0,0,1,.68,0,81.8,81.8,0,0,0,12.07,1.53c3.5.23,7,.39,10.54.27a6.87,6.87,0,0,0,.34,2.67,1.62,1.62,0,0,1-.55,2,3.93,3.93,0,0,0-1.33,1.93.86.86,0,0,0,.18.95.79.79,0,0,0,.95,0,3.61,3.61,0,0,0,.71-.35c2.78-2.18,6-4,6.76-7.92a67.18,67.18,0,0,0,12.09-2.3,29,29,0,0,1,3.15,9.55c1.55,8.46,1.39,17,.75,25.5a245.54,245.54,0,0,1-5.22,34.12c-.34,1.54-1.37.74-2.09,1l-.27,0c-.34-.36-.78-.21-1.18-.21H1229.5c-.39,0-.84-.15-1.18.21l-.19,0Z" transform="translate(-68.32 -9.59)"/><path class="cls-33" d="M1246.5,440c-3.52.12-7,0-10.54-.27a81.8,81.8,0,0,1-12.07-1.53,3.1,3.1,0,0,0-.68,0,3.26,3.26,0,0,1,0-2c.5-3.67.76-7.36,1.07-11a51.87,51.87,0,0,0,.2-5.43c-.08-.45.38-.9,0-1.34l0-1.65a2.36,2.36,0,0,0,.06-1.86,30.71,30.71,0,0,1-1.2-6.9,32.26,32.26,0,0,1,.76-9.69c.07-.27.29-.67-.11-.77s-.39.34-.46.63a28.92,28.92,0,0,0-.85,7.28,33.23,33.23,0,0,0,1.52,10.37l-7.76-.4c-.93.09-1.35-.14-1.41-1.26a126.52,126.52,0,0,1,.23-14.31c.12-2,.34-4.07.61-6.09.61-4.45,3.16-7.51,7-9.58,2.2-1.19,4.5-2.16,6.79-3.15.06.18.08.42.2.51,1.73,1.35,3.49,2.66,5.34,3.84a1,1,0,0,0,1.27-.05,6.86,6.86,0,0,0,2.72-3.38l0,0c.58.21,1.08,1.05,1.79.22,1.07.81,2.16,1.62,3.22,2.45a.94.94,0,0,0,1.47-.15,28.39,28.39,0,0,0,3.74-5.46c5.64,1.74,11.2,3.66,16.64,5.94a9.46,9.46,0,0,1,5.22,6.11,25.18,25.18,0,0,1,1.15,6.91c.24,5.14.17,10.29.11,15.44a3.87,3.87,0,0,0-1.22.08c-3,.6-6.1,1.17-9.15,1.75a103.26,103.26,0,0,0-.91-15.12c0-.25,0-.6-.37-.55s-.3.37-.26.63a93.43,93.43,0,0,1,.91,12.05,7.59,7.59,0,0,0,.42,3.19,1.27,1.27,0,0,0,.2.89,6,6,0,0,0,.17,1.57,1.14,1.14,0,0,1-.18,1.28c-1.94,1.74-3.41,4-5.44,5.59-.08-.7.24-1.7-1-1.56-3.13.35-6.26.75-9.39,1.11-.5.06-.75.28-.73.8s.2.81.74.79,1,0,1.46-.1l8.94-1c-2.25,2.8-4.77,5.37-7.23,8C1247.54,434.8,1246.3,437.07,1246.5,440Zm-11.65-14.08c.62,0,1.18.07,1.29-.84.08-.67-.31-.72-.7-.77-3.16-.4-6.33-.77-9.49-1.15-.45-.05-.86,0-.83.61,0,.43-.14.9.58,1C1228.75,425.12,1231.8,425.53,1234.85,425.92Zm5.53-34.43a.92.92,0,0,0,1.06-1,1.06,1.06,0,0,0-2.11.08A.87.87,0,0,0,1240.38,391.49Zm.44,11.12a.84.84,0,0,0-.92-1,1,1,0,0,0-1.1,1.06,1,1,0,0,0,1,1.05A.94.94,0,0,0,1240.82,402.61Zm0,12.57a.92.92,0,0,0-1-.89,1,1,0,0,0-1,1,.94.94,0,0,0,1.06,1C1240.51,416.27,1240.8,415.89,1240.84,415.18Zm-2,13.34c.16.52.32,1,1,1a.94.94,0,0,0,1-1.06.89.89,0,0,0-.89-1A1.08,1.08,0,0,0,1238.79,428.52Z" transform="translate(-68.32 -9.59)"/><path class="cls-34" d="M1233.27,578.31c.71-1,1.36-2.1,2.14-3.07a8,8,0,0,0,1.53-6.82c-.77-4.84-1.35-9.72-2-14.58-.54-3.85-1.12-7.7-1.68-11.55q-1.21-8.34-2.43-16.7c-.7-4.7-1.44-9.41-2.15-14.11-.13-.9-.24-1.8-.35-2.69,1.28-.11,2.56-.19,3.84-.32a38.2,38.2,0,0,1,12.15.88c.68.15.87.5.93,1.17.35,3.59.17,7.19.31,10.79.23,6.2.32,12.41.48,18.62.15,5.76.26,11.51.47,17.27.15,4.39.19,8.78.27,13.18a31.16,31.16,0,0,0,.22,4.42,25.13,25.13,0,0,1-5.59,3.12C1238.73,578.91,1236,579.51,1233.27,578.31Z" transform="translate(-68.32 -9.59)"/><path class="cls-34" d="M1262.18,508.07c-.24,3.21-.46,6.41-.73,9.62-.24,2.86-.54,5.72-.82,8.58q-.54,5.47-1.09,11c-.4,4.1-.79,8.2-1.2,12.3-.34,3.23-.77,6.46-1,9.7-.31,3.84-.94,7.66-1,11.52,0,2.23,1.31,4,2.23,5.88.48,1,1.09,1.91,1.47,2.94a4.9,4.9,0,0,1-4,.8c-3.56-.77-6.16-3-8.64-5.5,0-.46.07-.91.06-1.36-.13-4.63-.33-9.25-.41-13.87-.1-6.1-.24-12.2-.46-18.3-.12-3.26-.07-6.52-.2-9.78-.27-7-.34-14-.54-21A1.25,1.25,0,0,1,1247,509a40.51,40.51,0,0,1,6.49-1C1256.36,507.83,1259.27,508.05,1262.18,508.07Z" transform="translate(-68.32 -9.59)"/><path class="cls-35" d="M1240.27,355.42a9.31,9.31,0,0,1-3.45-6.49,17.41,17.41,0,0,1-7.48,6.82c-.15.07-2.72,2.65-2.88,2.72" transform="translate(-68.32 -9.59)"/><path class="cls-35" d="M1244.27,375.47c0,.15-8.88-.05-8.92.09a41.94,41.94,0,0,1-6.46-1.19c-3.14-.81-4.45-3.16-4.91-6.13-.5-3.3,0-6.58.33-9.86a29.84,29.84,0,0,1,.83-5.49c1.65-5.4,4.94-9.46,10.24-11.56,5.72-2.26,14,1.15,16.82,6.8a35.66,35.66,0,0,1,3.88,18.32,7.84,7.84,0,0,1-4.72,7.16,22.2,22.2,0,0,1-7.09,1.86" transform="translate(-68.32 -9.59)"/><path class="cls-36" d="M1241.41,356.32c1.83.86,4.86,2.15,7,1.69,1-.22,2.06-.35,2.84.56a2.9,2.9,0,0,1,.26,3.11,7.68,7.68,0,0,1-2.48,3.18,2.24,2.24,0,0,0-.77,1.3c-.55,2.59-1.44,5-3.68,6.7a.87.87,0,0,0-.33.79c0,.6,0,1.21,0,1.82,0,.77,0,1.54,0,2.32,0,.38-.27.59-.49.85-.84,1-1.66,2-2.49,3l-.24.46c-.71.83-1.21,0-1.79-.22-.16-.15-.31-.31-.48-.45a29.08,29.08,0,0,1-3.62-2.92,7.62,7.62,0,0,0,.28-2.12c.22.05.44.11.66.14a6.72,6.72,0,0,0,4.79-.91c.18-.12.42-.25.36-.52s-.34-.27-.56-.22a31.17,31.17,0,0,1-5.2.21c-1.5-.7-3-1.3-4.49-2.13-2.88-1.64-4.08-4.17-4.24-7.39-.12-2.38-.67-4.79-.28-7.14a4.54,4.54,0,0,1,2.8-2.71m0,0a15.92,15.92,0,0,0,7.56-6.82c.33,2.61,2.45,5.66,4.59,7.39m-4.59,8c-.73-.39-1.22,0-1.74,0-.78.06-1.29,0-.9-1s.55-1.73.82-2.6c.06-.19.09-.38-.17-.44a.29.29,0,0,0-.34.23,16.87,16.87,0,0,0-1.06,3.46.72.72,0,0,0,.69.87A3.84,3.84,0,0,0,1236.82,364.36Zm3,1.92a.47.47,0,0,0-.55.21c-.88,1.24-2.14,1.4-3.53,1.34-.46,0-1.24-.65-1.34,0s.89.47,1.4.58C1237.25,368.71,1239.74,367.8,1239.85,366.28Zm-.07-6c.34-.08.67-.24.68-.69a.64.64,0,0,0-.67-.72.62.62,0,0,0-.67.6C1239.06,359.92,1239.31,360.17,1239.78,360.29Zm-8.94,0c.44-.06.7-.28.67-.74a.6.6,0,0,0-.64-.63c-.45,0-.73.19-.73.65A.68.68,0,0,0,1230.84,360.29Z" transform="translate(-68.32 -9.59)"/><path class="cls-37" d="M1246.5,440c-.2-2.93,1-5.2,3-7.29,2.46-2.6,5-5.17,7.23-8h0c2-1.64,3.5-3.85,5.44-5.59a1.14,1.14,0,0,0,.18-1.28,6,6,0,0,1-.17-1.57,18.65,18.65,0,0,1,10.38-.72,31.05,31.05,0,0,1-.71,6.51,5.9,5.9,0,0,1-2.35,3.49c-1.74,1.26-3.41,2.63-5.1,3.95a1,1,0,0,0-.32.1c-3,2.24-6,4.57-9.1,6.7a2.81,2.81,0,0,0-1.44,3c-.79,3.89-4,5.74-6.76,7.92a3.61,3.61,0,0,1-.71.35.79.79,0,0,1-.95,0,.86.86,0,0,1-.18-.95,3.93,3.93,0,0,1,1.33-1.93,1.62,1.62,0,0,0,.55-2A6.87,6.87,0,0,1,1246.5,440Zm1.38-1.8a8.48,8.48,0,0,0,.24,2.93c.38,1.06,1,1.21,1.72.32a10.59,10.59,0,0,0,1.72-3.56c.06-.2.25-.46-.09-.56s-.34.19-.44.4c-.43,1-.85,1.94-1.31,2.89-.16.33-.34.77-.8.67s-.29-.55-.39-.87c-.38-1.28,0-2.55,0-3.83,0-.3.22-.82-.28-.82s-.37.51-.38.84C1247.87,437.14,1247.88,437.67,1247.88,438.2Z" transform="translate(-68.32 -9.59)"/><path class="cls-38" d="M1224.44,418.41c.37.44-.09.89,0,1.34a17.92,17.92,0,0,1-.86,1.83c-1.69,2.83-4.3,3.76-8,3a97.33,97.33,0,0,1-16.68-5.52c-2.07-.83-3.88-1.12-6,0a25,25,0,0,1-6,2,2.34,2.34,0,0,1-2-.38c-1.28-.92-2.79-1.54-3.66-3,1-.58,1.88.3,2.83.35,2,.87,2.64.68,4-1.21H1185l-1.47-.22c-.49-.78.28-.91.66-1.11a51,51,0,0,1,6.67-2.52,16.54,16.54,0,0,1,10.11-.16c4.89,1.26,9.83,2.36,14.71,3.69a5,5,0,0,0,.79.09C1219.22,416.67,1222,416.86,1224.44,418.41Zm-31.06-3.62c-1.27-.49-3.93.24-4.56,1.14a.51.51,0,0,0-.09.41c.06.17.24.16.37.06A8.78,8.78,0,0,1,1193.38,414.79Z" transform="translate(-68.32 -9.59)"/><path class="cls-39" d="M1247.35,574.86c2.48,2.46,5.08,4.73,8.64,5.5a4.9,4.9,0,0,0,4-.8,25,25,0,0,1,2.79,6.16c.18.59.35,1.26-.16,1.71s-1.15.2-1.72,0a24.79,24.79,0,0,1-5.81-3.27,80.78,80.78,0,0,1-6.84-5.27c-.52-.45-.87-.3-1.38-.06a112.87,112.87,0,0,1-14.65,6.31,18.64,18.64,0,0,1-2.08.53c-1,.2-1.46-.29-1.12-1.26a5.8,5.8,0,0,1,.7-1.41,45.37,45.37,0,0,1,3.58-4.69c2.76,1.2,5.45.6,8.1-.39a25.13,25.13,0,0,0,5.59-3.12Z" transform="translate(-68.32 -9.59)"/><path class="cls-40" d="M1247.35,574.86l-.38-.06a31.16,31.16,0,0,1-.22-4.42c-.08-4.4-.12-8.79-.27-13.18-.21-5.76-.32-11.51-.47-17.27-.16-6.21-.25-12.42-.48-18.62-.14-3.6,0-7.2-.31-10.79-.06-.67-.25-1-.93-1.17a38.2,38.2,0,0,0-12.15-.88c-1.28.13-2.56.21-3.84.32-.3-.42-.2-.91-.27-1.37,0-.07.06-.15.1-.23l.19,0H1262l.27,0-.06.88c-2.91,0-5.82-.24-8.74,0a40.51,40.51,0,0,0-6.49,1,1.25,1.25,0,0,0-1.15,1.47c.2,7,.27,14,.54,21,.13,3.26.08,6.52.2,9.78.22,6.1.36,12.2.46,18.3.08,4.62.28,9.24.41,13.87C1247.42,574,1247.37,574.4,1247.35,574.86Z" transform="translate(-68.32 -9.59)"/><path class="cls-33" d="M1253.56,439.32a2.81,2.81,0,0,1,1.44-3c3.1-2.13,6.07-4.46,9.1-6.7a1,1,0,0,1,.32-.1l1.23,7.49A67.18,67.18,0,0,1,1253.56,439.32Z" transform="translate(-68.32 -9.59)"/><path class="cls-41" d="M1184,418c-1-.05-1.8-.93-2.83-.35q-6.89-.69-13.77-1.4c-4.7-.49-9.4-1-14.1-1.51l-.57,0a.44.44,0,0,1-.45-.53c0-.4.3-.38.56-.36,1.28.1,2.57.19,3.85.31l25.87,2.42c.3,0,.61,0,.91,0l1.47.22C1185.08,417.5,1185.07,418.14,1184,418Z" transform="translate(-68.32 -9.59)"/><path class="cls-33" d="M1235.14,378.54a28.28,28.28,0,0,0,3.62,2.93c.17.14.32.3.48.45l0,0c-.37,0-.51.22-.7.47a16,16,0,0,1-1.66,2,1.21,1.21,0,0,1-1.84.18c-1.7-1.26-3.45-2.44-5.18-3.65.94-.74,1.91-1.44,2.81-2.22S1234.23,377.75,1235.14,378.54Z" transform="translate(-68.32 -9.59)"/><path class="cls-33" d="M1241.27,381.68c.83-1,1.65-2,2.49-3,.22-.26.48-.48.49-.85,1.58-1.37,1.58-1.37,3.42-.08.55.38,1.08.79,1.62,1.19a2.25,2.25,0,0,0-.83.9c-.82,1.21-1.66,2.4-2.48,3.62-.55.81-1.08,1.07-2,.35A13.3,13.3,0,0,0,1241.27,381.68Z" transform="translate(-68.32 -9.59)"/><path class="cls-40" d="M1272.58,415.58a18.65,18.65,0,0,0-10.38.72,1.27,1.27,0,0,1-.2-.89l.21-.2c3-.58,6.1-1.15,9.15-1.75a3.87,3.87,0,0,1,1.22-.08Z" transform="translate(-68.32 -9.59)"/><path class="cls-40" d="M1224.44,418.41c-2.46-1.55-5.22-1.74-8-1.87v-1.12l7.76.4c.36.24.22.62.28.94Z" transform="translate(-68.32 -9.59)"/><path class="cls-42" d="M1235.47,375.13a30.14,30.14,0,0,0,5.2-.22c.22,0,.49-.07.56.23s-.18.4-.37.52a6.69,6.69,0,0,1-4.78.91c-.22,0-.44-.09-.66-.14,0-.29,0-.58-.07-.87Z" transform="translate(-68.32 -9.59)"/><path class="cls-43" d="M1241.27,381.68a13.3,13.3,0,0,1,2.74,2.1c.89.72,1.42.46,2-.35.82-1.22,1.66-2.41,2.48-3.62a2.25,2.25,0,0,1,.83-.9l.17.07a28.39,28.39,0,0,1-3.74,5.46.94.94,0,0,1-1.47.15c-1.06-.83-2.15-1.64-3.22-2.45Z" transform="translate(-68.32 -9.59)"/><path class="cls-43" d="M1229.83,381c1.73,1.21,3.48,2.39,5.18,3.65a1.21,1.21,0,0,0,1.84-.18,16,16,0,0,0,1.66-2c.19-.25.33-.5.7-.47a6.86,6.86,0,0,1-2.72,3.38,1,1,0,0,1-1.27.05c-1.85-1.18-3.61-2.49-5.34-3.84-.12-.09-.14-.33-.2-.51A.34.34,0,0,1,1229.83,381Z" transform="translate(-68.32 -9.59)"/><path class="cls-44" d="M1228.13,507.19c0,.08-.07.16-.1.23l-.14-.25Z" transform="translate(-68.32 -9.59)"/><path class="cls-44" d="M1262,507.17h-33.65c.34-.36.79-.21,1.18-.21h31.29C1261.19,507,1261.63,506.81,1262,507.17Z" transform="translate(-68.32 -9.59)"/><path class="cls-45" d="M1234.85,425.92c-3-.39-6.1-.8-9.15-1.16-.72-.09-.56-.56-.58-1,0-.62.38-.66.83-.61,3.16.38,6.33.75,9.49,1.15.39.05.78.1.7.77C1236,426,1235.47,425.92,1234.85,425.92Z" transform="translate(-68.32 -9.59)"/><path class="cls-45" d="M1256.75,424.74l-8.94,1c-.49.06-1,.08-1.46.1s-.73-.3-.74-.79.23-.74.73-.8c3.13-.36,6.26-.76,9.39-1.11,1.26-.14.94.86,1,1.56Z" transform="translate(-68.32 -9.59)"/><path class="cls-43" d="M1224.47,416.76c-.06-.32.08-.7-.28-.94a33.23,33.23,0,0,1-1.52-10.37,28.92,28.92,0,0,1,.85-7.28c.07-.29.07-.73.46-.63s.18.5.11.77a32.26,32.26,0,0,0-.76,9.69,30.71,30.71,0,0,0,1.2,6.9A2.36,2.36,0,0,1,1224.47,416.76Z" transform="translate(-68.32 -9.59)"/><path class="cls-43" d="M1262.21,415.21l-.21.2a7.59,7.59,0,0,1-.42-3.19,93.43,93.43,0,0,0-.91-12.05c0-.26-.12-.59.26-.63s.34.3.37.55A103.26,103.26,0,0,1,1262.21,415.21Z" transform="translate(-68.32 -9.59)"/><path class="cls-45" d="M1240.38,391.49a.87.87,0,0,1-1.05-.93,1.06,1.06,0,0,1,2.11-.08A.92.92,0,0,1,1240.38,391.49Z" transform="translate(-68.32 -9.59)"/><path class="cls-43" d="M1240.82,402.61a.94.94,0,0,1-1,1.12,1,1,0,0,1-1-1.05,1,1,0,0,1,1.1-1.06A.84.84,0,0,1,1240.82,402.61Z" transform="translate(-68.32 -9.59)"/><path class="cls-45" d="M1240.84,415.18c0,.71-.33,1.09-1,1.13a.94.94,0,0,1-1.06-1,1,1,0,0,1,1-1A.92.92,0,0,1,1240.84,415.18Z" transform="translate(-68.32 -9.59)"/><path class="cls-45" d="M1238.79,428.52a1.08,1.08,0,0,1,1.14-1,.89.89,0,0,1,.89,1,.94.94,0,0,1-1,1.06C1239.11,429.54,1239,429,1238.79,428.52Z" transform="translate(-68.32 -9.59)"/><path class="cls-40" d="M1236.82,364.37a4,4,0,0,1-2.7.53.72.72,0,0,1-.69-.87,16.87,16.87,0,0,1,1.06-3.46.29.29,0,0,1,.34-.23c.26.06.23.24.17.44-.27.87-.49,1.75-.82,2.59-.39,1,.12,1.08.9,1C1235.59,364.35,1236.09,364,1236.82,364.37Z" transform="translate(-68.32 -9.59)"/><path class="cls-42" d="M1239.85,366.29c-.11,1.52-2.6,2.43-4,2.14-.5-.1-1.49,0-1.39-.57s.88,0,1.34,0c1.39.06,2.65-.1,3.53-1.34A.47.47,0,0,1,1239.85,366.29Z" transform="translate(-68.32 -9.59)"/><path class="cls-46" d="M1239.77,360.3c-.46-.12-.71-.37-.65-.81a.62.62,0,0,1,.67-.6.63.63,0,0,1,.67.72C1240.45,360.05,1240.12,360.22,1239.77,360.3Z" transform="translate(-68.32 -9.59)"/><path class="cls-46" d="M1230.84,360.3a.68.68,0,0,1-.7-.72c0-.46.28-.67.73-.66a.61.61,0,0,1,.64.64C1231.54,360,1231.28,360.24,1230.84,360.3Z" transform="translate(-68.32 -9.59)"/><path class="cls-42" d="M1247.88,438.2c0-.53,0-1.06,0-1.59,0-.33,0-.84.38-.84s.27.52.28.82c0,1.28-.39,2.55,0,3.83.1.32,0,.78.39.87s.64-.34.8-.67c.46-.95.88-1.92,1.31-2.89.1-.21.15-.49.44-.4s.15.36.09.56a10.59,10.59,0,0,1-1.72,3.56c-.69.89-1.34.74-1.72-.32A8.48,8.48,0,0,1,1247.88,438.2Z" transform="translate(-68.32 -9.59)"/><path class="cls-4" d="M1184,418c1,.16,1-.48.94-1.21h3.11C1186.67,418.66,1186,418.85,1184,418Z" transform="translate(-68.32 -9.59)"/><path class="cls-42" d="M1193.38,414.79a8.78,8.78,0,0,0-4.28,1.61c-.13.1-.31.11-.37-.06a.51.51,0,0,1,.09-.41C1189.45,415,1192.11,414.3,1193.38,414.79Z" transform="translate(-68.32 -9.59)"/><path class="cls-47" d="M979.07,352.19a4.45,4.45,0,0,0-2.92-1.12,5.2,5.2,0,0,0-2.61.61" transform="translate(-68.32 -9.59)"/><path class="cls-47" d="M964.1,352.19a4.48,4.48,0,0,1,2.92-1.12,5.17,5.17,0,0,1,2.61.61" transform="translate(-68.32 -9.59)"/></g><g id="sach"><path class="cls-48" d="M275.93,563.43q0,9.72-.05,19.45-43.9,0-87.8,0c-12.18,0-24.36.12-36.53.18l-15-.28a17.35,17.35,0,0,0,0-19.28l15-.33c1.77.07,3.55.22,5.33.22Z" transform="translate(-68.32 -9.59)"/><path class="cls-48" d="M291.06,532l0,19.72c-1.93,0-3.86-.16-5.8-.16q-66.74-.09-133.49-.15c3.38-5,3.31-10.29,1.76-15.79l4.31-3.64Zm-8.1,5.29c0-.48,0-1-.07-1.45" transform="translate(-68.32 -9.59)"/><path class="cls-48" d="M184.56,474.86c5,4.48,8.91,9.95,13.31,15-2.25.31-3.5,2.13-5,3.46q-15.39,13.21-30.71,26.53Q132.66,545.4,103.23,571l-11.31,9.2c-1.39-7.14-5.37-12-12.42-14.26l10.66-9.69Z" transform="translate(-68.32 -9.59)"/><path class="cls-49" d="M151.8,551.36q66.75.07,133.49.15c1.94,0,3.87.11,5.8.16.22,4.15-1.91,5.85-5.9,5.85-3.82,0-7.65.17-11.47.27-40.71-.27-81.41-.42-122.11.16-3.06-.4-6.23.36-9.19-.93-3-2.25-3.46-5.45-3.33-8.87a69.4,69.4,0,0,1,10.78-9.48c0,3.55.09,7.09.15,10.64C150,550.46,149.83,551.87,151.8,551.36Z" transform="translate(-68.32 -9.59)"/><path class="cls-49" d="M291.06,532l-133.19,0a27.38,27.38,0,0,1,7.31-6.29c1.93.09,3.86.25,5.79.25q56.73,0,113.45,0C288.81,525.84,291.31,527.24,291.06,532Z" transform="translate(-68.32 -9.59)"/><path class="cls-29" d="M151.54,583.09c12.18-.06,24.36-.16,36.54-.18q43.89,0,87.8,0c.35,3.75-1,6.15-5.1,6.15q-59.62-.07-119.24-.18C151.55,586.93,151.54,585,151.54,583.09Z" transform="translate(-68.32 -9.59)"/><path class="cls-50" d="M184.56,474.86l-94.4,81.4c-1.58-1.24-2.15-3.74-4.71-3.74l90.26-78C179.73,471.06,180.89,471.13,184.56,474.86Z" transform="translate(-68.32 -9.59)"/><path class="cls-50" d="M165.18,525.64a27.38,27.38,0,0,0-7.31,6.29l-4.31,3.64-3.69,3.1a69.4,69.4,0,0,0-10.78,9.48A106.27,106.27,0,0,0,127.51,558l-2.79,3.31c-4.29,1.31-6.71,5.1-10.07,7.64-2.93,2.21-5.61,4.76-8.4,7.16,0-2.29-2.29-3.22-3-5.08q29.45-25.59,58.89-51.19,15.31-13.31,30.71-26.53c1.54-1.33,2.79-3.15,5-3.46,2.5,3.47,1.54,6.08-1.59,8.74C185.82,507.49,175.53,516.6,165.18,525.64Z" transform="translate(-68.32 -9.59)"/><path class="cls-29" d="M151.61,558c40.7-.58,81.4-.43,122.11-.16a6.06,6.06,0,0,1,2.21,5.64h-119c-1.78,0-3.56-.15-5.33-.22Z" transform="translate(-68.32 -9.59)"/><path class="cls-51" d="M103.23,571c.73,1.86,3,2.79,3,5.08-4.78,4.23-9.48,8.54-14.35,12.64-3.49,2.94-6.74,2.83-9.84-.47-4.16-4.44-8.19-9-12-13.77-2.62-3.24-2.24-6.71.88-9.5,4.76-4.25,9.67-8.32,14.51-12.47,2.56,0,3.13,2.5,4.71,3.74L79.5,566c-1.09.45-1.21,1.15-.48,2q5.42,6.3,10.86,12.57c.78.9,1.49.63,2-.31Z" transform="translate(-68.32 -9.59)"/><path class="cls-30" d="M151.61,558l0,5.25-15,.33c-1.09-.26-1.68.15-1.68,1.29q0,8.34,0,16.69c0,1.2.69,1.45,1.7,1.3l15,.28c0,1.92,0,3.84,0,5.76-6.8.07-13.6.22-20.4.18-3.71,0-6.67-2-6.81-5.66-.28-7.34-.85-14.74.39-22.08l2.79-3.31c4.9-1.41,10-.27,14.91-1C145.38,558.31,148.55,557.55,151.61,558Z" transform="translate(-68.32 -9.59)"/><path class="cls-52" d="M136.54,582.81c-1,.15-1.7-.1-1.7-1.3q0-8.35,0-16.69c0-1.14.59-1.55,1.68-1.29A17.35,17.35,0,0,1,136.54,582.81Z" transform="translate(-68.32 -9.59)"/><path class="cls-52" d="M220.4,542.07H167.85v-.93h52.66Z" transform="translate(-68.32 -9.59)"/><path class="cls-52" d="M284.82,542.11H237.61v-.89h47.1Z" transform="translate(-68.32 -9.59)"/><path class="cls-52" d="M149.87,538.67l3.69-3.1c1.55,5.5,1.62,10.84-1.76,15.79-2,.51-1.76-.9-1.78-2.05C150,545.76,149.92,542.22,149.87,538.67Z" transform="translate(-68.32 -9.59)"/><path class="cls-52" d="M91.92,580.21c-.55.94-1.26,1.21-2,.31Q84.42,574.27,79,568c-.73-.85-.61-1.55.48-2C86.55,568.17,90.53,573.07,91.92,580.21Z" transform="translate(-68.32 -9.59)"/><path class="cls-4" d="M142.42,557c-4.95.69-10-.45-14.91,1a106.27,106.27,0,0,1,11.58-9.83C139,551.57,139.43,554.77,142.42,557Z" transform="translate(-68.32 -9.59)"/><rect class="cls-52" x="100.51" y="526.79" width="114.09" height="0.86"/><rect class="cls-52" x="99.52" y="531.55" width="52.67" height="0.93"/><rect class="cls-52" x="110.24" y="536.95" width="63.37" height="0.93"/><rect class="cls-52" x="184.59" y="536.97" width="34.57" height="0.93"/><rect class="cls-52" x="169.28" y="531.63" width="47.16" height="0.89"/><rect class="cls-52" x="81" y="557.87" width="114.09" height="0.86"/><rect class="cls-52" x="80.01" y="562.62" width="52.67" height="0.93"/><rect class="cls-52" x="90.72" y="568.02" width="63.37" height="0.93"/><rect class="cls-52" x="165.08" y="568.04" width="34.57" height="0.93"/><rect class="cls-52" x="149.76" y="562.71" width="47.16" height="0.89"/><rect class="cls-52" x="75.64" y="524.32" width="114.09" height="0.86" transform="translate(-380.99 207.56) rotate(-41.18)"/><rect class="cls-52" x="85.65" y="548.76" width="52.67" height="0.93" transform="translate(-402.23 199.98) rotate(-41.18)"/><rect class="cls-52" x="95.95" y="542.24" width="63.37" height="0.93" transform="translate(-394.07 208.67) rotate(-41.18)"/><rect class="cls-52" x="155.49" y="502.78" width="34.57" height="0.93" transform="translate(-356.93 228.63) rotate(-41.18)"/><rect class="cls-52" x="138.88" y="504.71" width="47.16" height="0.89" transform="translate(-360.74 222.31) rotate(-41.18)"/></g><g id="co-2" data-name="co"><path class="cls-50" d="M1244.22,143.79c-6.12,13-12.23,26-18.69,39.78-5.58-7.75-10.63-14.71-15.61-21.72-1.2-1.68-2.24-3-4.72-2.92-8.78.18-17.58.07-27.09.07l19.75-37.23Z" transform="translate(-68.32 -9.59)"/><path class="cls-50" d="M1175,109.07c-6.83,12.69-13.65,25.39-20.77,38.65-5-7.81-9.77-15-14.32-22.36a5.43,5.43,0,0,0-5.14-3c-7.48-.07-15-.53-22.44-.64-3.17,0-4.5-.56-2.46-3.88,6.69-10.9,13.24-21.88,19.85-32.83,7.28,5.17,15.26,9.19,23.14,13.29C1160.15,102.05,1166.87,107,1175,109.07Z" transform="translate(-68.32 -9.59)"/><path class="cls-50" d="M1107.9,72l-22.42,37c-4.48-7.86-8.63-14.85-12.46-22-1.53-2.88-3.18-4.45-6.72-4.62-8.27-.39-16.51-1.34-25.87-2.16l23.45-34.41c7,4.27,14,8.62,21,12.78C1092.57,63.09,1099.61,68.6,1107.9,72Z" transform="translate(-68.32 -9.59)"/><path class="cls-50" d="M1314.44,172.78c-4.57,12.95-9.15,25.9-14,39.64-6-6.78-11.5-12.91-16.82-19.23-2.1-2.48-4-3.61-7.57-3-8.16,1.38-16.43,2-25.61,3.1,5.67-13.7,11-26.62,16.38-39.54C1282.67,160.14,1298.2,167.34,1314.44,172.78Z" transform="translate(-68.32 -9.59)"/><path class="cls-50" d="M1270.73,143.09c.82-.94,1.78-.63,2.73-.27q22,8.43,44,16.92c.55.21.94.82,1.4,1.24-.24.91-.49,1.82-.73,2.72l-2.61,6.13c-16.06-5.82-31.78-12.47-47.52-19.07q.81-2.46,1.64-4.92A3.17,3.17,0,0,0,1270.73,143.09Z" transform="translate(-68.32 -9.59)"/><path class="cls-50" d="M1065.78,42.9l3.08-5.53A3.19,3.19,0,0,0,1070.3,35c2-1,3.08.63,4.39,1.47q18,11.46,35.94,23c1.54,1,4,1.48,2.76,4.31a4.41,4.41,0,0,0-1.71,2.8l-2.9,4c-.32-.56-.5-1.34-1-1.64Q1086.82,55.91,1065.78,42.9Z" transform="translate(-68.32 -9.59)"/><path class="cls-50" d="M1134.21,76.85c1-2,2-3,4.53-1.55q19.6,11.4,39.48,22.37c2,1.12,2,2.25,1.33,3.92a3.74,3.74,0,0,0-1.64,2.48c-.72,1.19-1.45,2.37-2.18,3.56-.45-.48-.82-1.12-1.38-1.41q-21.69-11.75-43.41-23.4c.59-1.26,1.19-2.52,1.78-3.77Z" transform="translate(-68.32 -9.59)"/><path class="cls-50" d="M1202.06,112.94c.88-1.23,1.57-2.23,3.53-1.23,14.14,7.18,28.35,14.21,42.52,21.32.37.19.54.78.8,1.18l-1.08,2.64c-.75,1.32-1.51,2.64-2.26,4-8.15-3.76-16.19-7.77-24.47-11.2-7.51-3.11-14.29-7.81-22.24-9.92.62-1.37,1.23-2.75,1.84-4.12Z" transform="translate(-68.32 -9.59)"/><path class="cls-53" d="M1070.3,35a3.19,3.19,0,0,1-1.44,2.38c-2.43-1.73-4.89-3.43-7.3-5.21s-4.68-3.56-7.11-5.41c-1.54,5.24,0,9.16,4.42,11.19,1,.48,2.61.4,2.14,2-.54,1.8-2.24,1.23-3.37.77-3.67-1.51-5.51-4.65-6.69-8.21a36.46,36.46,0,0,1-.84-4.59c-4.24,5.87-9.14,7.11-15,4.21a10.6,10.6,0,0,1-3.88-3c-.7-.88-.86-1.92.11-2.62s1.56.13,2.06.78c1.4,1.86,3.45,2.43,5.52,3.12,3,1,5.62.25,7-2.26,2-3.72,6.91-6.93,2.42-12.32-1.54-1.84-.41-4.76,2-5.83,2.72-1.19,4.41.64,5.31,3a39,39,0,0,1,1.16,4.94c3.27-1.61,6-3.84,9.67-4.11,3.39-.25,6,.81,6.93,4.24s-1.46,5.12-4.19,6.4c-2.91,1.37-6,1.59-9.85,1.61C1062.76,30,1066.85,32.1,1070.3,35Zm-12.52-12.63a15,15,0,0,0,11.25-.94,2.41,2.41,0,0,0,1.56-2.78,2.47,2.47,0,0,0-2.6-1.84C1063.76,16.66,1060.5,18.36,1057.78,22.36Z" transform="translate(-68.32 -9.59)"/><path class="cls-53" d="M1318.13,163.7c.24-.9.49-1.81.73-2.72l6.05,1.92c-.56-2.4-1.1-4.24-1.41-6.13a4.84,4.84,0,0,1,2.94-5.69c2.72-1.22,4.91-.21,6.61,1.9a11.52,11.52,0,0,1,2.75,6.8c.11,3.21.83,5,4.53,2.78,2.64-1.58,5.54-1.18,6.33,2.17.74,3.14-1.45,4.78-4.5,5.3-3.42.58-7.19,5.71-7.53,10.23-.36,4.82,3.26,6.4,6.69,8.19,1.19.63,4.25-.88,3.37,2-.69,2.22-3.15,1-4.82.46-6.32-2.18-8.87-6.78-7.79-14.18-1.77-.52-3,.82-4.48,1.29-2.6.87-5.21,1.25-7.79.25-1.79-.7-4.59-1.66-3.58-3.84,1.14-2.48,2.57.52,3.9,1a9.77,9.77,0,0,0,7.71-.61c2-1,4-2.28,3.82-4.72-.14-2.23-2.57-2.37-4.15-3C1324.45,165.73,1321.26,164.78,1318.13,163.7Zm15.33-1.31c-1.18-3.09-.19-7.51-4.82-8.72-1.57-.42-2.29.86-2.39,2.4-.21,3.15,3.62,9.4,5.69,9.15C1333.56,165,1333,163.5,1333.46,162.39Z" transform="translate(-68.32 -9.59)"/><path class="cls-54" d="M1245.71,189.72c-3.38,5.29-3.66,10.82-2.71,17.51-5.66-3.7-11-4.89-18-2.87,3.23-5.67,5-10.39,3.83-15.73-.46-2.15,1.11-2.1,2.44-1.23C1235.58,190.21,1240.29,190.38,1245.71,189.72Z" transform="translate(-68.32 -9.59)"/><path class="cls-54" d="M1158.23,44.35c-6.2,4-9,8.64-9.85,15.68-4.3-5.48-8.41-9.18-16.1-9.18,5.17-4.49,8.73-8.25,9.51-13.78.31-2.16,1.86-.92,2.4-.08C1147.15,41.53,1151.88,43,1158.23,44.35Z" transform="translate(-68.32 -9.59)"/><path class="cls-54" d="M1109.87,48.21c5.33-3.6,7.51-8.65,8.75-15.46,4.09,5.81,8.57,9,16.23,9.45-6.35,4.16-9.21,9.12-10.28,16.37A20.83,20.83,0,0,0,1109.87,48.21Z" transform="translate(-68.32 -9.59)"/><path class="cls-51" d="M1268,150.76c15.74,6.6,31.46,13.25,47.52,19.07l-1.08,2.95c-16.24-5.44-31.77-12.64-47.62-19C1266.62,152.51,1267.44,151.68,1268,150.76Z" transform="translate(-68.32 -9.59)"/><path class="cls-51" d="M1065.78,42.9q21,13,42,26.1c.48.3.66,1.08,1,1.64L1107.9,72c-8.29-3.39-15.33-8.9-23-13.39-7.08-4.16-14-8.51-21-12.78A4.26,4.26,0,0,1,1065.78,42.9Z" transform="translate(-68.32 -9.59)"/><path class="cls-51" d="M1130.94,82.82q21.72,11.69,43.41,23.4c.56.29.93.93,1.38,1.41l-.72,1.44c-8.14-2-14.86-7-22.14-10.8C1145,94.17,1137,90.15,1129.73,85Z" transform="translate(-68.32 -9.59)"/><path class="cls-51" d="M1198.86,119.7c8,2.11,14.73,6.81,22.24,9.92,8.28,3.43,16.32,7.44,24.47,11.2.14,1.26-.7,2.07-1.35,3l-46.36-22Z" transform="translate(-68.32 -9.59)"/><path class="cls-53" d="M1202.06,112.94l-1.36,2.64-22.79-11.51a3.74,3.74,0,0,1,1.64-2.48Z" transform="translate(-68.32 -9.59)"/><path class="cls-53" d="M1134.21,76.85l-1.49,2.2-21-12.46a4.41,4.41,0,0,1,1.71-2.8Z" transform="translate(-68.32 -9.59)"/><path class="cls-53" d="M1247.83,136.85l1.08-2.64,21.82,8.88a3.17,3.17,0,0,1-1.09,2.75Z" transform="translate(-68.32 -9.59)"/><path class="cls-54" d="M1255,197.87c.26,5.51-1.69,7.41-6.85,5.19.3-1.58,1.21-3.38.48-5.7C1251.07,197.34,1252.83,198.77,1255,197.87Z" transform="translate(-68.32 -9.59)"/><path class="cls-54" d="M1136.8,30.36l-3.32,4.88c-1.49-1.13-3.71-2-4.23-3.5-.35-1,1.66-4.1,2.57-4.08C1133.48,27.69,1135.1,29.34,1136.8,30.36Z" transform="translate(-68.32 -9.59)"/><path class="cls-4" d="M1057.78,22.36c2.72-4,6-5.7,10.21-5.56a2.47,2.47,0,0,1,2.6,1.84,2.41,2.41,0,0,1-1.56,2.78A15,15,0,0,1,1057.78,22.36Z" transform="translate(-68.32 -9.59)"/><path class="cls-4" d="M1333.46,162.39c-.45,1.11.1,2.63-1.52,2.83-2.07.25-5.9-6-5.69-9.15.1-1.54.82-2.82,2.39-2.4C1333.27,154.88,1332.28,159.3,1333.46,162.39Z" transform="translate(-68.32 -9.59)"/></g></svg>